<svg width="69" height="102" viewBox="0 0 69 102" fill="none" xmlns="http://www.w3.org/2000/svg">
<path d="M12.4321 43.5189C12.9672 43.5177 13.5023 43.516 14.0374 43.5139C15.4843 43.5096 16.9311 43.5113 18.378 43.5143C19.8957 43.5167 21.4134 43.5144 22.9311 43.513C25.4794 43.5113 28.0276 43.5135 30.5758 43.518C33.5174 43.5231 36.459 43.5215 39.4006 43.5163C41.931 43.512 44.4614 43.5114 46.9919 43.5139C48.5011 43.5153 50.0103 43.5155 51.5195 43.5124C52.9387 43.5097 54.3578 43.5116 55.777 43.517C56.2963 43.5183 56.8156 43.5179 57.3349 43.5158C62.3177 43.4976 62.3177 43.4976 64.7011 44.5848C64.8049 44.7925 64.9087 45.0001 65.0157 45.214C64.808 45.214 64.6004 45.214 64.3865 45.214C64.3876 45.4568 64.3888 45.6996 64.39 45.9497C64.4178 51.8601 64.4386 57.7705 64.4517 63.6809C64.4582 66.5392 64.467 69.3974 64.4814 72.2556C64.494 74.7472 64.5021 77.2387 64.5049 79.7302C64.5065 81.0493 64.5104 82.3682 64.5195 83.6871C64.5281 84.9294 64.5307 86.1716 64.5288 87.4139C64.5292 87.8691 64.5316 88.3242 64.5365 88.7793C64.5798 93.0623 64.5798 93.0623 63.1281 94.9196C61.5821 96.3183 60.636 96.5385 58.605 96.5304C58.3629 96.5306 58.1209 96.5309 57.8715 96.5312C57.0561 96.5317 56.2407 96.53 55.4254 96.5282C54.8426 96.5281 54.2598 96.5282 53.677 96.5284C52.0912 96.5285 50.5053 96.5266 48.9194 96.5244C47.2635 96.5225 45.6075 96.5223 43.9516 96.5219C40.8141 96.5209 37.6767 96.5183 34.5392 96.5152C30.9681 96.5117 27.3969 96.5099 23.8258 96.5084C16.4781 96.5051 9.13036 96.4995 1.78265 96.4925C1.67883 96.804 1.57502 97.1154 1.46806 97.4363C0.0986893 95.0692 0.0281544 92.922 0.0418682 90.2327C0.039644 89.7973 0.0368914 89.3619 0.0336549 88.9264C0.0266138 87.7512 0.0274953 86.5761 0.0302959 85.4009C0.0319107 84.4167 0.0296034 83.4325 0.0273161 82.4483C0.0219795 80.1249 0.0230783 77.8016 0.0283505 75.4782C0.0336731 73.088 0.0286909 70.698 0.0185279 68.3079C0.0101089 66.2492 0.00784586 64.1907 0.0105102 62.132C0.0120549 60.9053 0.0113981 59.6787 0.0049155 58.4521C-0.000892296 57.298 0.0010533 56.1442 0.00875214 54.9901C0.0110585 54.3693 0.00568037 53.7486 0 53.1278C0.0329176 50.0177 0.721503 47.7598 2.96237 45.5483C5.60724 43.2081 9.14079 43.5057 12.4321 43.5189ZM29.1325 65.2889C28.3729 66.6662 28.2706 67.8983 28.523 69.4376C29.0467 71.0916 29.7526 72.0611 31.0397 73.2127C31.6447 73.8177 31.434 74.9337 31.4538 75.7602C31.4604 75.9832 31.4669 76.2062 31.4737 76.4359C31.4943 77.1507 31.5128 77.8656 31.5313 78.5804C31.5448 79.064 31.5586 79.5476 31.5724 80.0311C31.6064 81.2188 31.6376 82.4065 31.6689 83.5942C33.5376 83.5942 35.4063 83.5942 37.3316 83.5942C37.336 82.8858 37.3405 82.1773 37.3451 81.4474C37.3547 80.7581 37.367 80.0689 37.3796 79.3796C37.3868 78.9021 37.3914 78.4246 37.3931 77.947C37.396 77.2587 37.4089 76.5712 37.4237 75.8831C37.4287 75.4695 37.4336 75.056 37.4387 74.63C37.6946 73.27 38.185 72.8396 39.2191 71.9543C40.3791 70.2143 40.7756 68.6765 40.4775 66.6063C39.656 64.6634 38.3815 63.2978 36.4468 62.4379C33.2814 61.6931 31.037 62.6044 29.1325 65.2889Z" fill="#FFC300"/>
<path d="M52.3113 7.04989C56.9721 11.4517 60.4008 17.6785 60.6465 24.1957C60.6458 24.5548 60.6451 24.9138 60.6444 25.2838C60.6444 25.693 60.6444 26.1023 60.6443 26.524C60.6427 26.9659 60.6411 27.4079 60.6394 27.8498C60.6388 28.3056 60.6384 28.7614 60.6381 29.2171C60.6369 30.4118 60.6338 31.6065 60.6303 32.8012C60.6271 34.0222 60.6256 35.2432 60.6241 36.4643C60.6207 38.8565 60.6152 41.2487 60.6087 43.6409C57.8057 43.6409 55.0027 43.6409 52.1147 43.6409C52.1118 43.0524 52.1088 42.4639 52.1058 41.8576C52.0946 39.8974 52.0776 37.9374 52.0569 35.9774C52.0445 34.7908 52.0343 33.6043 52.0295 32.4176C52.0246 31.2691 52.0137 30.1208 51.9988 28.9724C51.9942 28.5377 51.9917 28.1029 51.9914 27.6681C51.9851 22.5794 50.6059 17.8091 47.0714 14.0188C43.2976 10.4922 38.7355 8.84026 33.6054 8.95957C29.0518 9.30812 24.7328 10.9598 21.5993 14.3838C17.9976 18.7859 17.114 23.1502 17.0647 28.7101C17.0588 29.1429 17.0527 29.5757 17.0463 30.0085C17.0303 31.1369 17.0177 32.2654 17.006 33.3938C16.9933 34.5496 16.9773 35.7054 16.9615 36.8612C16.9309 39.1211 16.9058 41.3809 16.8804 43.6409C14.0774 43.6409 11.2744 43.6409 8.38642 43.6409C8.36651 41.1459 8.34761 38.6512 8.33757 36.1561C8.33263 34.9937 8.32606 33.8314 8.31522 32.669C8.20495 20.517 8.20495 20.517 10.9032 15.013C11.0422 14.7226 11.1813 14.4323 11.3247 14.1331C14.6872 7.53848 20.373 3.41544 27.2372 1.06681C35.9342 -1.73208 45.5993 1.22351 52.3113 7.04989Z" fill="#BECACF"/>
<path d="M64 44.5C65.174 44.705 66.1589 45.5499 66.9411 46.4732C67.1662 46.7263 67.1662 46.7263 67.3958 46.9844C68.8899 49.4664 68.9253 51.9928 68.9115 54.8246C68.9128 55.2482 68.9145 55.6717 68.9165 56.0953C68.9208 57.238 68.9192 58.3806 68.9161 59.5232C68.9137 60.7236 68.916 61.9239 68.9174 63.1242C68.9192 65.1392 68.9169 67.1543 68.9124 69.1693C68.9073 71.4933 68.9089 73.8173 68.9141 76.1413C68.9184 78.1428 68.919 80.1442 68.9166 82.1457C68.9151 83.3384 68.9149 84.531 68.918 85.7238C68.9207 86.8455 68.9188 87.9672 68.9134 89.0889C68.9116 89.6928 68.9143 90.2968 68.9173 90.9007C68.8925 94.3001 68.3421 96.5588 65.9753 99.047C64.0865 100.778 62.0662 100.936 59.6061 100.942C59.2695 100.943 59.2695 100.943 58.9261 100.945C58.1761 100.947 57.426 100.948 56.676 100.948C56.1374 100.95 55.5989 100.951 55.0603 100.953C53.5985 100.957 52.1367 100.959 50.6748 100.961C49.7611 100.962 48.8473 100.963 47.9336 100.964C45.0733 100.969 42.2131 100.972 39.3529 100.973C36.0536 100.974 32.7543 100.98 29.4549 100.989C26.9029 100.996 24.3508 100.999 21.7988 100.999C20.2753 101 18.7519 101.001 17.2284 101.007C15.7951 101.012 14.3618 101.013 12.9284 101.01C12.4034 101.01 11.8784 101.011 11.3534 101.014C5.3244 101.048 5.3244 101.048 2.88232 98.8725C2.67145 98.6912 2.46057 98.5099 2.24331 98.3232C1.78125 97.7517 1.78125 97.7517 1.78125 96.4934C2.08432 96.4929 2.38739 96.4924 2.69964 96.492C10.0723 96.4804 17.4449 96.4618 24.8174 96.4355C28.3828 96.423 31.9481 96.4128 35.5134 96.4081C38.6208 96.404 41.7281 96.3955 44.8355 96.3818C46.481 96.3747 48.1264 96.3698 49.7719 96.3701C51.3207 96.3703 52.8694 96.3647 54.4181 96.3546C54.9865 96.3519 55.5549 96.3513 56.1233 96.3531C56.8998 96.3552 57.6758 96.3496 58.4523 96.342C58.6769 96.3445 58.9015 96.3469 59.133 96.3494C60.7084 96.3224 61.5958 95.9029 62.8121 94.9204C64.4871 92.8926 64.252 90.6318 64.2422 88.1076C64.245 87.6392 64.2483 87.1709 64.2521 86.7026C64.2608 85.4359 64.2619 84.1693 64.2616 82.9026C64.2626 81.5771 64.2707 80.2517 64.278 78.9262C64.2907 76.4183 64.2971 73.9104 64.3012 71.4025C64.3062 68.5464 64.3183 65.6904 64.331 62.8343C64.3569 56.9612 63.9888 50.3732 64 44.5Z" fill="#DDA901"/>
<path d="M36.1731 62.4237C38.1106 63.1795 39.1509 64.1463 40.1952 65.9518C40.8505 67.4836 40.5909 69.0733 40.1018 70.6178C39.5061 71.6861 38.8667 72.4007 37.9587 73.2132C37.3537 73.8182 37.5644 74.9343 37.5445 75.7607C37.538 75.9837 37.5314 76.2067 37.5247 76.4364C37.5041 77.1512 37.4856 77.8661 37.4671 78.5809C37.4535 79.0645 37.4398 79.5481 37.4259 80.0316C37.3919 81.2193 37.3608 82.407 37.3295 83.5948C35.4608 83.5948 33.5921 83.5948 31.6668 83.5948C31.6624 82.8863 31.6579 82.1778 31.6533 81.4479C31.6437 80.7586 31.6314 80.0694 31.6188 79.3801C31.6115 78.9026 31.607 78.4251 31.6053 77.9475C31.6024 77.2592 31.5894 76.5717 31.5746 75.8836C31.5672 75.2633 31.5672 75.2633 31.5597 74.6305C31.3038 73.2705 30.8133 72.8401 29.7793 71.9549C28.6146 70.2078 28.2344 68.6831 28.5209 66.6068C29.7256 63.363 32.8347 61.4138 36.1731 62.4237Z" fill="#323C5A"/>
</svg>
