<svg width="95" height="95" viewBox="0 0 95 95" fill="none" xmlns="http://www.w3.org/2000/svg">
<path d="M0.331778 34.4062C0.919473 34.7003 0.919473 34.7003 1.13068 35.2011C1.68932 36.2033 2.54665 36.8448 3.41718 37.5674C3.60295 37.7241 3.78872 37.8808 3.98012 38.0423C5.23964 39.1006 6.51844 40.1332 7.80882 41.1535C8.87055 42.0081 9.90598 42.8925 10.9436 43.776C11.9522 44.6337 12.969 45.4796 13.9957 46.3157C15.1828 47.2826 16.3555 48.2645 17.5219 49.2562C18.9232 50.4472 20.3367 51.6215 21.762 52.7838C24.5767 55.081 27.3811 57.3899 30.148 59.7446C31.3798 60.7916 32.6294 61.8153 33.8832 62.8358C34.9813 63.7399 36.0632 64.6626 37.1438 65.5875C38.3027 66.5742 39.496 67.5 40.7324 68.3885C40.8789 68.528 41.0255 68.6675 41.1766 68.8112C41.1766 69.1023 41.1766 69.3934 41.1766 69.6934C40.5109 70.1824 40.5109 70.1824 39.5707 70.718C39.4016 70.8157 39.2324 70.9134 39.0581 71.0141C38.4987 71.3365 37.9368 71.6543 37.3749 71.9723C36.7875 72.3098 36.2008 72.6484 35.6141 72.987C35.2141 73.2177 34.8139 73.448 34.4134 73.6779C32.5333 74.758 30.6731 75.8693 28.8166 76.9897C28.5134 77.1722 28.2103 77.3548 27.8979 77.5428C27.0347 78.0626 26.1717 78.5829 25.3088 79.1033C21.3684 81.4771 17.4172 83.8324 13.4607 86.1794C7.9097 89.4581 7.9097 89.4581 2.45299 92.8902C1.01593 93.8062 1.01593 93.8062 0.0379302 93.8062C0.031076 86.1049 0.0258891 78.4035 0.0227054 70.7021C0.021188 67.1265 0.0191182 63.5509 0.0157625 59.9753C0.0128403 56.86 0.0109395 53.7447 0.0102826 50.6294C0.00989839 48.9788 0.00899094 47.3282 0.00686172 45.6776C0.00487623 44.1259 0.00425013 42.5742 0.00469383 41.0225C0.00461258 40.4513 0.00402281 39.88 0.00290201 39.3087C0.00145272 38.5323 0.00178697 37.756 0.00259375 36.9796C0.00173782 36.7504 0.000881868 36.5213 0 36.2853C0.00439599 34.7339 0.00439601 34.7339 0.331778 34.4062Z" fill="#FFD448"/>
<path d="M47.0539 11.4688C58.8842 11.4688 70.7145 11.4688 82.9033 11.4688C83.2816 31.1545 83.2816 31.1545 83.2552 35.1805C83.2532 35.8994 83.2573 36.6183 83.2667 37.3371C83.3447 43.7124 83.3447 43.7124 82.2805 45.14C81.5401 45.8173 80.8481 46.2872 79.9648 46.7559C79.6811 46.9947 79.3974 47.2335 79.1051 47.4795C78.7579 47.7581 78.7579 47.7581 78.4038 48.0424C77.1969 49.0202 76.0053 50.0131 74.8225 51.0197C73.3979 52.2313 71.9579 53.4216 70.5078 54.6024C69.5809 55.3653 68.6658 56.1411 67.7518 56.9193C66.4147 58.0573 65.0584 59.1651 63.6827 60.2562C62.7863 60.9801 61.9075 61.7229 61.03 62.4697C59.5848 63.6996 58.1348 64.9215 56.6476 66.1006C55.8532 66.7416 55.8532 66.7416 55.1462 67.5043C53.6476 68.9832 52.5675 69.5234 50.4892 69.5845C49.3428 69.5565 48.1983 69.4716 47.0539 69.3985C47.0539 66.6813 47.0539 63.9642 47.0539 61.1648C46.2781 61.1648 45.5024 61.1648 44.7031 61.1648C44.7031 61.0677 44.7031 60.9707 44.7031 60.8707C45.0687 60.8563 45.4342 60.8419 45.8108 60.8271C48.4201 60.7135 50.9641 60.5802 53.5185 59.9886C53.3913 59.6557 53.264 59.3229 53.1329 58.98C52.9675 58.5443 52.8022 58.1086 52.637 57.6728C52.5529 57.4534 52.4688 57.2339 52.3822 57.0078C51.7555 55.3502 51.7555 55.3502 51.7555 54.6955C51.5483 54.7887 51.3411 54.882 51.1276 54.9781C49.7896 55.464 48.4697 55.4752 47.0539 55.5777C47.0539 53.7339 47.0539 51.8902 47.0539 49.9905C47.7812 49.8086 47.7812 49.8086 48.5231 49.623C49.646 49.3298 50.5236 48.9971 51.4983 48.3732C52.0562 48.0665 52.0562 48.0665 52.637 47.9321C53.4029 48.2008 54.0013 48.5539 54.671 49.0107C56.1618 49.967 57.9796 49.8617 59.6893 49.6965C62.2127 49.0081 63.9298 47.8641 65.2518 45.5969C66.8255 42.5678 66.2877 39.2623 65.3666 36.1135C64.3007 32.9078 62.699 30.296 60.277 27.9361C60.1036 27.753 59.9301 27.5699 59.7513 27.3813C56.3587 24.0535 51.5713 22.9517 47.0539 22.3489C47.0539 18.7585 47.0539 15.168 47.0539 11.4688Z" fill="#CFDCE1"/>
<path d="M94.0731 34.9922C94.0731 54.4001 94.0731 73.808 94.0731 93.8041C90.5977 92.4129 87.4089 90.2223 84.2089 88.2948C81.6259 86.7395 79.0353 85.1974 76.4423 83.659C73.3561 81.8278 70.2751 79.9887 67.2005 78.1381C65.4475 77.084 63.6914 76.0353 61.9324 74.9912C61.7208 74.8656 61.5093 74.74 61.2913 74.6106C60.2503 73.9928 59.209 73.3755 58.1675 72.7587C56.3118 71.6589 54.4619 70.5534 52.6406 69.3971C53.7769 68.2298 54.9698 67.152 56.2035 66.089C56.3992 65.9199 56.5949 65.7508 56.7965 65.5766C58.1376 64.4217 59.4942 63.2884 60.8684 62.1732C61.9865 61.2655 63.0991 60.3513 64.2109 59.4359C64.4255 59.2592 64.64 59.0825 64.8611 58.9005C66.3288 57.6897 67.7848 56.4661 69.2337 55.233C70.4664 54.1854 71.7169 53.1612 72.9712 52.1395C73.8911 51.3826 74.8001 50.6139 75.7076 49.8422C77.6618 48.1812 79.6456 46.5581 81.6351 44.9397C82.9207 43.8911 84.1988 42.8357 85.4604 41.7584C87.1405 40.3237 88.8477 38.9328 90.5926 37.5774C91.4084 36.9435 92.2118 36.3013 92.9999 35.6331C93.7793 34.9922 93.7793 34.9922 94.0731 34.9922Z" fill="#FFC300"/>
<path d="M11.2057 11.4688C23.036 11.4688 34.8663 11.4688 47.0551 11.4688C47.0551 15.0592 47.0551 18.6497 47.0551 22.3489C45.4066 22.6401 43.7582 22.9312 42.0597 23.2311C36.4411 25.0713 32.4715 28.2356 29.7181 33.5232C29.2475 34.5843 28.8685 35.6442 28.5427 36.7579C28.4768 36.9705 28.4109 37.1832 28.343 37.4023C27.1175 41.9634 28.1656 47.1628 30.3965 51.2529C33.2445 55.8143 37.2072 58.9246 42.4087 60.3343C43.9465 60.667 45.5032 60.906 47.0551 61.1648C47.0551 63.8819 47.0551 66.599 47.0551 69.3985C41.7015 69.8643 41.7015 69.8643 39.7721 68.2707C39.0981 67.6405 38.4456 66.9945 37.8083 66.3272C37.1595 65.6678 36.4481 65.1018 35.7236 64.5281C34.5351 63.5626 33.3632 62.5802 32.1975 61.5875C31.0901 60.6451 29.976 59.716 28.8366 58.8123C27.5282 57.7746 26.2546 56.7003 24.9833 55.6179C23.9747 54.7602 22.9579 53.9142 21.9312 53.0782C20.5794 51.9771 19.2479 50.8544 17.9199 49.725C16.6387 48.6372 15.3418 47.5698 14.0363 46.5112C13.781 46.3008 13.5257 46.0905 13.2627 45.8737C13.0924 45.7665 12.9222 45.6592 12.7468 45.5487C11.8517 44.9265 11.2952 44.4489 11.0115 43.3722C10.9336 42.4445 10.921 41.5358 10.9303 40.6048C10.9259 40.2512 10.9216 39.8976 10.9172 39.5334C10.9059 38.3936 10.9089 37.2544 10.9119 36.1146C10.9055 35.3995 10.8982 34.6845 10.8901 33.9695C10.8401 26.466 11.0587 18.9724 11.2057 11.4688Z" fill="#ECEBF0"/>
<path d="M47.0547 69.3984C54.1203 69.3984 54.1203 69.3984 57.1924 71.5855C57.5374 71.8149 57.8836 72.0427 58.2306 72.269C58.9497 72.7385 59.6646 73.2135 60.3777 73.692C61.9375 74.7275 63.5589 75.6561 65.1809 76.5896C66.0734 77.1042 66.9625 77.6246 67.8513 78.1456C68.0272 78.2486 68.2031 78.3517 68.3843 78.4579C70.4829 79.6905 72.5598 80.9586 74.6371 82.2267C77.5141 83.9827 80.4065 85.7108 83.308 87.426C85.5938 88.7774 87.8735 90.1385 90.147 91.5107C91.4453 92.2932 92.7513 93.0581 94.0703 93.8054C94.0703 93.9024 94.0703 93.9994 94.0703 94.0994C78.5551 94.0994 63.04 94.0994 47.0547 94.0994C47.0547 85.9481 47.0547 77.7968 47.0547 69.3984Z" fill="#FED92C"/>
<path d="M41.1777 69.1055C43.1171 69.2025 45.0565 69.2995 47.0547 69.3995C47.0547 77.5509 47.0547 85.7022 47.0547 94.1005C31.5395 94.1005 16.0244 94.1005 0.0390625 94.1005C0.983459 93.3917 1.88713 92.8038 2.90408 92.2144C3.24592 92.0154 3.58776 91.8164 3.9296 91.6174C4.1094 91.5131 4.28921 91.4087 4.47446 91.3012C7.66325 89.45 10.8316 87.568 13.9785 85.6463C16.6863 83.9934 19.4039 82.3592 22.1375 80.7491C24.5996 79.2987 27.0494 77.8284 29.4977 76.3547C31.0518 75.4197 32.6071 74.4866 34.1621 73.5531C34.7628 73.1924 35.3635 72.8318 35.9642 72.4711C36.2457 72.3025 36.5273 72.1339 36.8173 71.9602C37.3805 71.6212 37.9419 71.2794 38.5018 70.935C38.7659 70.7732 39.03 70.6115 39.3021 70.4448C39.5366 70.3 39.771 70.1551 40.0125 70.0059C40.59 69.6936 40.59 69.6936 41.1777 69.6936C41.1777 69.4995 41.1777 69.3054 41.1777 69.1055Z" fill="#FEF160"/>
<path d="M47.0547 22.3477C52.7291 22.4558 57.3268 24.4779 61.3684 28.5515C63.5212 30.8488 65.0915 33.6997 65.8609 36.7566C65.9204 36.9628 65.9799 37.169 66.0411 37.3814C66.8402 40.4277 66.7064 43.3383 65.2732 46.1665C64.1213 48.02 62.3671 49.2184 60.2939 49.8767C57.6718 50.3655 55.4383 49.9499 53.2071 48.5373C52.9223 48.4342 52.6374 48.3311 52.3439 48.2249C51.3962 48.6625 51.3962 48.6625 50.815 49.0692C49.6343 49.8115 48.4231 49.9892 47.0547 49.9892C47.0547 48.1455 47.0547 46.3017 47.0547 44.4021C47.782 44.111 47.782 44.111 48.5239 43.814C49.0755 43.4949 49.0755 43.4949 49.4055 42.9318C49.5765 41.9254 49.5765 41.9254 49.6075 40.8183C49.6268 40.4441 49.6461 40.07 49.666 39.6845C49.677 39.3976 49.688 39.1106 49.6993 38.815C48.8266 38.815 47.9539 38.815 47.0547 38.815C47.0547 37.0683 47.0547 35.3216 47.0547 33.5219C49.7698 33.5219 52.485 33.5219 55.2824 33.5219C55.2934 34.1417 55.3044 34.7614 55.3157 35.4C55.3293 36.0034 55.3443 36.6068 55.3595 37.2102C55.3693 37.628 55.3775 38.0458 55.3842 38.4637C55.3941 39.0661 55.4095 39.6681 55.4259 40.2703C55.4336 40.6322 55.4413 40.9941 55.4492 41.367C55.585 42.4106 55.8306 42.9779 56.4578 43.814C57.3561 44.2635 58.1121 44.1764 59.1024 44.1081C60.0383 43.5905 60.2287 43.3732 60.5717 42.3437C60.7604 38.692 59.59 35.4099 57.2843 32.5478C54.4971 29.6122 50.9654 28.4939 47.0547 27.9348C47.0547 26.091 47.0547 24.2473 47.0547 22.3477Z" fill="#FE4A4A"/>
<path d="M47.0565 22.3477C47.0565 24.1914 47.0565 26.0352 47.0565 27.9348C46.3474 28.044 45.6383 28.1531 44.9077 28.2656C41.2411 28.9146 38.0909 30.6885 35.888 33.7551C33.7874 37.1546 32.9868 40.627 33.7599 44.5859C33.8733 45.0172 33.996 45.4462 34.1272 45.8724C34.2351 46.2255 34.2351 46.2255 34.3453 46.5857C35.5777 50.0948 38.0381 52.5056 41.3081 54.1784C43.174 54.9953 45.046 55.2956 47.0565 55.5764C47.0565 57.3231 47.0565 59.0698 47.0565 60.8694C41.9034 61.121 37.9363 59.3982 34.0354 56.0726C29.903 52.1655 27.7016 47.0845 27.5156 41.4248C27.7148 35.8045 30.2007 31.1876 34.1272 27.3467C34.292 27.1723 34.4567 26.9979 34.6265 26.8183C37.8357 23.6827 42.7294 22.3477 47.0565 22.3477Z" fill="#FE8958"/>
<path d="M47.0513 27.9375C47.0513 29.7813 47.0513 31.625 47.0513 33.5246C46.6149 33.5913 46.1786 33.6581 45.729 33.7268C43.2077 34.24 41.4609 35.5404 39.9989 37.6415C38.866 39.5689 38.7786 41.757 39.2758 43.9166C40.0703 46.1927 41.3955 47.952 43.5251 49.1098C44.6972 49.4936 45.8391 49.7438 47.0513 49.992C47.0513 51.8357 47.0513 53.6795 47.0513 55.5791C42.8033 55.3814 39.7167 54.1445 36.6794 51.074C34.79 48.8634 33.398 46.1721 33.2405 43.2286C33.2223 42.9731 33.2041 42.7176 33.1854 42.4544C33.0193 38.4774 34.3909 34.9109 37.08 31.9808C40.0213 29.2006 43.0296 27.9375 47.0513 27.9375Z" fill="#ECEAEE"/>
<path d="M82.8984 26.7578C83.9672 27.2926 84.8936 27.8984 85.8553 28.5957C86.0288 28.7212 86.2023 28.8467 86.3811 28.976C86.7672 29.2557 87.1529 29.5358 87.5384 29.8163C88.2562 30.3362 88.9778 30.8505 89.6994 31.3651C90.2119 31.7344 90.7242 32.1039 91.2364 32.4736C91.4864 32.6509 91.7364 32.8282 91.994 33.0109C92.225 33.1789 92.4561 33.3469 92.6941 33.52C92.9018 33.6692 93.1096 33.8183 93.3236 33.972C93.4711 34.1143 93.6187 34.2567 93.7708 34.4034C93.7708 35.2855 93.7708 35.2855 93.3728 35.7123C93.1879 35.8595 93.0029 36.0068 92.8123 36.1585C92.6064 36.325 92.4005 36.4914 92.1883 36.6629C91.9651 36.8391 91.7419 37.0153 91.5118 37.1969C91.0521 37.5669 90.5926 37.9372 90.1333 38.3077C89.9037 38.4919 89.6741 38.676 89.4375 38.8658C88.2086 39.8617 87.0147 40.8983 85.8163 41.9306C84.8782 42.7004 83.8856 43.4017 82.8984 44.1073C82.8984 38.382 82.8984 32.6566 82.8984 26.7578Z" fill="#FE9101"/>
<path d="M11.2035 26.7578C11.2035 32.3861 11.2035 38.0144 11.2035 43.8133C10.0593 43.2407 9.20016 42.5663 8.24667 41.7365C7.90557 41.4433 7.56428 41.1504 7.22279 40.8577C6.9674 40.6385 6.9674 40.6385 6.70684 40.4148C5.98024 39.7966 5.24063 39.195 4.50011 38.5937C3.18175 37.5201 1.89393 36.4171 0.625 35.2855C1.00307 34.1354 1.37104 33.5719 2.35709 32.8745C2.70315 32.6252 2.70315 32.6252 3.0562 32.3709C3.30239 32.1986 3.54858 32.0263 3.80223 31.8487C4.30908 31.4857 4.81566 31.1224 5.32197 30.7586C5.57178 30.5802 5.82159 30.4018 6.07897 30.218C7.38855 29.2687 8.65186 28.2611 9.91907 27.2563C10.6158 26.7578 10.6158 26.7578 11.2035 26.7578Z" fill="#FCBF01"/>
<path d="M47.0579 33.5234C47.0579 35.2702 47.0579 37.0169 47.0579 38.8165C47.9306 38.8165 48.8034 38.8165 49.7025 38.8165C49.7025 38.9135 49.7025 39.0106 49.7025 39.1106C49.4404 39.1181 49.1783 39.1257 48.9082 39.1335C48.5643 39.1502 48.2203 39.1669 47.866 39.1841C47.3546 39.2046 47.3546 39.2046 46.8329 39.2254C45.7281 39.4337 45.361 39.677 44.7071 40.5809C44.476 41.6865 44.6457 42.749 45.001 43.8155C45.6798 44.0096 46.3585 44.2037 47.0579 44.4036C47.0579 46.2474 47.0579 48.0911 47.0579 49.9908C43.9182 49.6417 42.38 49.1443 40.4383 46.763C38.843 44.5695 38.5454 42.355 38.8302 39.6987C39.547 37.4243 40.9536 35.5384 43.0037 34.3126C44.529 33.5675 45.2248 33.5234 47.0579 33.5234Z" fill="#FE8958"/>
<path d="M47.0547 27.9375C50.795 27.9375 53.9901 29.2363 56.7517 31.7603C59.2784 34.3322 60.8493 37.5477 60.939 41.1886C60.8634 42.3799 60.7157 42.8946 59.984 43.8167C58.8858 44.5494 58.3463 44.5395 57.0455 44.4048C56.0495 43.7765 55.6568 43.4705 55.2824 42.3464C55.2578 41.6748 55.2509 41.0025 55.2537 40.3305C55.2541 40.1359 55.2546 39.9414 55.255 39.7409C55.2566 39.1207 55.2603 38.5006 55.2641 37.8804C55.2655 37.4594 55.2669 37.0384 55.2681 36.6174C55.2711 35.5865 55.2768 34.5556 55.2824 33.5246C52.5673 33.5246 49.8521 33.5246 47.0547 33.5246C47.0547 31.6809 47.0547 29.8371 47.0547 27.9375Z" fill="#CFDADF"/>
<path d="M47.0547 0.292969C48.1619 0.736154 48.7977 1.02282 49.7028 1.70468C50.0329 1.9511 50.0329 1.9511 50.3697 2.20249C50.603 2.37899 50.8363 2.55549 51.0767 2.73734C51.5766 3.11089 52.0767 3.4842 52.577 3.85729C52.8309 4.04715 53.0848 4.23701 53.3464 4.43263C54.5222 5.30649 55.7098 6.16358 56.8986 7.01958C57.1168 7.1771 57.335 7.33462 57.5598 7.49692C58.5204 8.19032 59.482 8.88235 60.4454 9.57192C60.7416 9.78495 61.0378 9.99799 61.343 10.2175C61.5953 10.3979 61.8476 10.5783 62.1075 10.7642C62.2795 10.8992 62.4514 11.0341 62.6286 11.1732C62.6286 11.2702 62.6286 11.3672 62.6286 11.4672C57.4892 11.4672 52.3498 11.4672 47.0547 11.4672C47.0547 7.77972 47.0547 4.09222 47.0547 0.292969Z" fill="#FE9202"/>
<path d="M46.7566 0C46.9506 0.0970396 47.1445 0.194079 47.3443 0.294059C47.2474 3.98156 47.1504 7.66907 47.0505 11.4683C41.9111 11.4683 36.7717 11.4683 31.4766 11.4683C32.4304 10.5138 33.3569 9.75025 34.4518 8.98719C34.8207 8.72659 35.1895 8.46583 35.5583 8.20495C35.8518 7.99791 35.8518 7.99791 36.1511 7.78669C37.2298 7.02297 38.3021 6.25045 39.3737 5.47686C39.7038 5.23855 39.7038 5.23855 40.0406 4.99542C42.3007 3.35878 44.5315 1.68374 46.7566 0Z" fill="#FCBF03"/>
<path d="M51.7562 54.6953C52.0513 55.4668 52.3449 56.2387 52.6378 57.011C52.7639 57.3402 52.7639 57.3402 52.8926 57.6761C53.5193 59.3336 53.5193 59.3336 53.5193 59.9884C51.3722 60.9363 49.3666 60.8988 47.0547 60.8706C47.0547 59.1238 47.0547 57.3771 47.0547 55.5775C51.0951 54.6953 51.0951 54.6953 51.7562 54.6953Z" fill="#FE4B4B"/>
<path d="M47.0547 39.1094C47.9274 39.1094 48.8001 39.1094 49.6993 39.1094C49.9213 42.4808 49.9213 42.4808 49.4135 43.5134C49.0382 43.9062 49.0382 43.9062 48.2301 44.4024C47.8422 44.4024 47.4543 44.4024 47.0547 44.4024C47.0547 42.6557 47.0547 40.909 47.0547 39.1094Z" fill="#CFDBE0"/>
<path d="M47.0519 39.1094C47.0519 40.8561 47.0519 42.6028 47.0519 44.4024C45.1629 44.0244 45.1629 44.0244 44.4073 42.9321C44.194 41.438 44.1573 40.9132 45.0684 39.6975C45.8765 39.1094 45.8765 39.1094 47.0519 39.1094Z" fill="#ECE9ED"/>
</svg>
