<?xml version="1.0" encoding="UTF-8"?>
<svg version="1.1" xmlns="http://www.w3.org/2000/svg" width="512" height="512">
<path d="M0 0 C3.58854744 2.54235649 6.15202293 5.04615813 8.4921875 8.765625 C8.90210938 9.36375 9.31203125 9.961875 9.734375 10.578125 C14.3977753 18.81143863 12.4921875 25.62271269 12.4921875 35.765625 C65.9521875 35.765625 119.4121875 35.765625 174.4921875 35.765625 C174.4921875 29.825625 174.4921875 23.885625 174.4921875 17.765625 C177.43127162 10.02364733 180.40984054 4.2031121 187.4921875 -0.234375 C188.11351562 -0.64429688 188.73484375 -1.05421875 189.375 -1.4765625 C196.35460988 -5.32463639 204.75263795 -5.48492024 212.4921875 -4.234375 C220.0787596 -1.83011979 226.22424119 1.98213417 230.4921875 8.765625 C230.90210938 9.36375 231.31203125 9.961875 231.734375 10.578125 C234.78305167 15.96061623 234.69418024 21.07799464 234.59375 27.08984375 C234.58275269 28.34251038 234.58275269 28.34251038 234.5715332 29.6204834 C234.55249136 31.66894617 234.52334968 33.71731075 234.4921875 35.765625 C235.47222748 35.75674255 236.45226746 35.74786011 237.46200562 35.7387085 C246.72999583 35.6573718 255.99791295 35.59753972 265.26618004 35.55837631 C270.03030735 35.53756458 274.79414488 35.50936511 279.55810547 35.46386719 C284.16171718 35.42017936 288.76505139 35.39643973 293.36885452 35.38611603 C295.11901844 35.37876561 296.86916838 35.36441254 298.6192131 35.34270477 C309.42803102 35.21404941 317.79140918 35.65378376 327.2421875 41.453125 C335.78647042 50.23474911 337.79618419 58.56845798 337.71682739 70.50531006 C337.71697527 71.69577824 337.71712314 72.88624642 337.7172755 74.11278939 C337.71614578 76.7219452 337.71134737 79.33079178 337.70030785 81.93989563 C337.68235675 86.18566363 337.67816849 90.43138379 337.67558289 94.67718506 C337.67057409 100.84199593 337.65918281 107.00676777 337.64432144 113.17156219 C337.62159547 122.92023582 337.62185333 132.66884755 337.62619019 142.4175415 C337.62742238 145.75486372 337.62855684 149.09218596 337.6296978 152.42950821 C337.62999553 153.26350731 337.63029326 154.09750641 337.63060001 154.95677821 C337.63380184 164.44612099 337.63355 173.93546181 337.63085938 183.42480469 C337.6306205 184.29204809 337.63038163 185.15929149 337.63013552 186.05281499 C337.6255311 200.10395867 337.5985326 214.15498879 337.56504156 228.20608923 C337.53135037 242.64116748 337.52825469 257.07604061 337.55178726 271.51113915 C337.56520026 280.40984861 337.55390031 289.30783238 337.51065819 298.20645002 C337.48315882 304.30753434 337.4848793 310.40817408 337.50937267 316.50926945 C337.5225911 320.02687302 337.52293353 323.54321597 337.48808479 327.06069946 C337.4570168 330.88090448 337.47529482 334.69786495 337.50564575 338.51800537 C337.48486973 339.62094114 337.46409371 340.72387691 337.44268811 341.86023498 C337.59408487 350.4664794 340.82078083 354.56626865 346.4921875 360.765625 C350.45428242 366.3490636 353.2382251 372.21206883 355.6796875 378.578125 C355.91768066 379.19316895 356.15567383 379.80821289 356.40087891 380.44189453 C360.37592145 391.31406765 362.03319381 401.96223437 361.9296875 413.515625 C361.91993896 414.7420874 361.91019043 415.9685498 361.90014648 417.23217773 C361.39580831 443.15174042 350.62768889 465.25398054 332.27929688 483.46728516 C312.26226696 502.42584259 287.11150948 508.84563512 260.18359375 508.13671875 C233.27694757 506.93026067 211.42567162 493.15848498 193.4921875 473.765625 C190.4921875 470.12868232 190.4921875 470.12868232 190.4921875 467.765625 C189.26301102 467.77672806 188.03383453 467.78783112 186.76741028 467.79927063 C175.18744343 467.90059905 163.60756645 467.97556778 152.02725697 468.02468586 C146.07356614 468.05078694 140.120233 468.08619529 134.16674805 468.14282227 C128.4219937 468.19712235 122.67758355 468.22704168 116.93259239 468.24001122 C114.74008451 468.24925458 112.54759562 468.26730471 110.35523415 468.29427528 C107.28564271 468.33053804 104.21747602 468.33557138 101.14770508 468.33325195 C100.23995834 468.35122833 99.33221161 468.36920471 98.3969574 468.38772583 C94.02638074 468.35195813 92.07127403 468.18894253 88.45121765 465.54264832 C86.4921875 462.765625 86.4921875 462.765625 85.4921875 457.765625 C79.2221875 457.765625 72.9521875 457.765625 66.4921875 457.765625 C66.1621875 459.745625 65.8321875 461.725625 65.4921875 463.765625 C63.31547799 466.35046755 61.67602204 467.53614983 58.3359375 468.18359375 C54.02881054 468.44919991 52.05400993 468.17528719 48.4921875 465.578125 C46.4921875 462.765625 46.4921875 462.765625 45.4921875 457.765625 C39.2221875 457.765625 32.9521875 457.765625 26.4921875 457.765625 C26.1621875 459.745625 25.8321875 461.725625 25.4921875 463.765625 C22.93168873 466.52044976 21.30909463 467.62376645 17.59351063 468.26898956 C16.51970489 468.27049767 15.44589914 468.27200577 14.33955383 468.27355957 C12.48297905 468.29047852 12.48297905 468.29047852 10.58889771 468.30773926 C9.22503427 468.29996254 7.86117315 468.2917699 6.49731445 468.28320312 C5.05468541 468.28862604 3.6120619 468.29574966 2.16944885 468.30444336 C-1.74416312 468.32266795 -5.65735292 468.31561082 -9.5709722 468.30292702 C-13.67426407 468.29278506 -17.77752028 468.30219692 -21.8808136 468.30847168 C-28.7766466 468.31574873 -35.67230826 468.30616325 -42.56811523 468.28710938 C-50.52238626 468.26538357 -58.47624646 468.27236032 -66.43050736 468.294415 C-73.27150776 468.31261907 -80.11238505 468.31510166 -86.95340186 468.30466032 C-91.03378348 468.29844724 -95.11397267 468.29752826 -99.19434166 468.31080627 C-103.03668417 468.32243575 -106.87850255 468.31421111 -110.72078896 468.29122925 C-112.1243465 468.28597788 -113.52794879 468.28739412 -114.93148804 468.29627991 C-124.58254178 468.35170502 -131.98501686 467.15461323 -140.2578125 462.078125 C-147.0143127 455.13394424 -150.75154739 447.78566199 -150.76787472 438.01134872 C-150.77168039 437.35402101 -150.77548606 436.69669329 -150.77940705 436.01944655 C-150.78970412 433.81934137 -150.78582023 431.61949509 -150.78196716 429.41937256 C-150.78642059 427.82502086 -150.79173498 426.23067137 -150.79783589 424.63632512 C-150.81201367 420.25676122 -150.81367922 415.87726829 -150.81323898 411.49768472 C-150.81488737 406.77361347 -150.82795426 402.04957144 -150.83943176 397.32551575 C-150.86227861 386.99701702 -150.87020194 376.66853884 -150.87525821 366.34001827 C-150.87851539 359.89044578 -150.88503797 353.44087924 -150.8922596 346.99131012 C-150.91182459 329.1326606 -150.92822956 311.27401661 -150.93113613 293.41535568 C-150.9313237 292.27261647 -150.93151127 291.12987727 -150.93170452 289.9525096 C-150.93207077 287.63592513 -150.93243447 285.31934067 -150.93279564 283.00275621 C-150.93297845 281.85280857 -150.93316126 280.70286094 -150.93334961 279.51806641 C-150.93353016 278.3667146 -150.93371071 277.2153628 -150.93389673 276.02912155 C-150.93743883 257.37057824 -150.96446398 238.7121503 -151.0018475 220.05364701 C-151.03992547 200.89517234 -151.05929357 181.73675494 -151.05959564 162.57824159 C-151.0601803 151.82222208 -151.068678 141.06634023 -151.09759331 130.31035614 C-151.12210025 121.1521329 -151.12939463 111.99409755 -151.11434578 102.83585039 C-151.10717429 98.16416762 -151.10804475 93.4928559 -151.13075638 88.82121468 C-151.15136408 84.54129846 -151.14872951 80.26203814 -151.12788153 75.98212889 C-151.12439007 74.43704813 -151.12928217 72.89191988 -151.14358597 71.34690139 C-151.23415364 60.88692593 -150.04995848 52.98909288 -143.0078125 44.890625 C-142.1828125 44.189375 -141.3578125 43.488125 -140.5078125 42.765625 C-139.7446875 42.064375 -138.9815625 41.363125 -138.1953125 40.640625 C-132.17050101 36.43726815 -126.40896045 35.31778837 -119.25585938 35.42504883 C-118.47440552 35.42461075 -117.69295166 35.42417267 -116.88781738 35.42372131 C-114.33380147 35.42579254 -111.78046212 35.44904353 -109.2265625 35.47265625 C-107.44438027 35.47825815 -105.6621934 35.48252544 -103.88000488 35.48551941 C-99.21104972 35.49692141 -94.54237877 35.52634815 -89.87353516 35.55963135 C-85.10062504 35.59043284 -80.32766857 35.60404621 -75.5546875 35.61914062 C-66.20560495 35.65122267 -56.85673245 35.70236228 -47.5078125 35.765625 C-47.5375415 34.54456055 -47.56727051 33.32349609 -47.59790039 32.06542969 C-47.62194968 30.43946323 -47.64526696 28.81348583 -47.66796875 27.1875 C-47.6894397 26.38554199 -47.71091064 25.58358398 -47.73303223 24.75732422 C-47.81981197 16.45186733 -45.28193166 10.18673602 -39.8671875 3.84375 C-38.1686301 2.24043881 -36.48539723 1.00469261 -34.5078125 -0.234375 C-33.88648437 -0.64429688 -33.26515625 -1.05421875 -32.625 -1.4765625 C-22.455808 -7.08315125 -9.72162164 -5.63801363 0 0 Z " fill="#000000" transform="translate(150.5078125,4.234375)"/>
<path d="M0 0 C6.6 0 13.2 0 20 0 C20.99 2.31 21.98 4.62 23 7 C26.25860909 9.17240606 26.82050803 9.23564158 30.5 8.8125 C31.2734375 8.73644531 32.046875 8.66039062 32.84375 8.58203125 C35.4631306 7.8749883 36.36064711 7.14926789 38 5 C38.66 3.35 39.32 1.7 40 0 C46.6 0 53.2 0 60 0 C60.99 2.31 61.98 4.62 63 7 C66.56820952 9.37880635 68.09877499 9.2533877 72.33497906 9.26171303 C72.98339934 9.26570909 73.63181962 9.26970515 74.299889 9.27382231 C76.4876557 9.28485136 78.67517178 9.28158768 80.86296082 9.2784729 C82.44122665 9.28347267 84.01948991 9.28934751 85.59774953 9.29602563 C89.9463857 9.31187834 94.29495736 9.3152592 98.64361894 9.31667423 C103.3287004 9.32035911 108.01374609 9.33550998 112.69880676 9.34928894 C120.81987829 9.37159435 128.94093714 9.38658787 137.0620327 9.39665604 C148.80386036 9.41122353 160.54564389 9.43675488 172.2874457 9.46498732 C191.33639419 9.51049048 210.38534902 9.54709069 229.43432617 9.578125 C247.9418245 9.60829613 266.44930721 9.64266261 284.95678711 9.68261719 C286.10866927 9.6850987 287.26055143 9.6875802 288.44733912 9.69013691 C297.45542456 9.70957592 306.46350947 9.72925876 315.47159421 9.74901867 C359.64771054 9.84585979 403.8238401 9.92142785 448 10 C448 75.34 448 140.68 448 208 C443.70440901 206.2817636 439.57212674 204.40579243 435.40234375 202.4140625 C432.2255764 201.09375276 429.05264475 199.99017964 425.78735352 198.91162109 C424.70430435 198.5531308 423.62125519 198.1946405 422.50538635 197.82528687 C421.67860886 197.5529422 420.85183136 197.28059753 420 197 C419.99853344 196.21516613 419.99706688 195.43033226 419.99555588 194.62171555 C419.9585221 175.5347276 419.89955308 156.44792318 419.81609726 137.36108017 C419.77626907 128.13085382 419.74389583 118.9007132 419.72900391 109.67041016 C419.71600693 101.62630735 419.68909247 93.58239287 419.64538693 85.53839612 C419.62272794 81.27817387 419.60709196 77.01818428 419.60811615 72.75789642 C419.60886016 68.74899867 419.59101453 64.74061608 419.55883217 60.73185158 C419.55030456 59.25967825 419.54860261 57.78744733 419.55419731 56.31525993 C419.56081455 54.30664647 419.54059595 52.29799782 419.51898193 50.28948975 C419.51529476 49.16490231 419.51160759 48.04031487 419.50780869 46.88164902 C418.88288999 43.33543882 417.81410936 42.17993264 415 40 C411.68729915 38.89576638 409.2315383 38.87009323 405.74145699 38.86298561 C404.42184381 38.85791107 403.10223063 38.85283653 401.74262917 38.84760821 C400.26926625 38.84700651 398.79590328 38.84650744 397.32254028 38.84609985 C395.76433893 38.84208577 394.20613861 38.83764764 392.64793956 38.8328203 C388.35457652 38.82084333 384.06122473 38.81520377 379.76784825 38.81063914 C375.14198775 38.8046875 370.51614073 38.79307675 365.89028931 38.78234863 C354.71456243 38.75781755 343.53883109 38.74319797 332.36308557 38.73028857 C329.20818271 38.72657764 326.05328031 38.72260434 322.8983779 38.7185359 C303.31806532 38.69330425 283.73775208 38.6712454 264.15742683 38.65880775 C259.62139 38.65587794 255.08535319 38.65291629 250.54931641 38.64990234 C249.42187208 38.64915629 248.29442775 38.64841024 247.13281845 38.64764158 C228.85546921 38.63497902 210.57821705 38.6017439 192.30091323 38.56010051 C173.54823766 38.51772312 154.79561186 38.49411772 136.04288852 38.48888719 C125.50886384 38.48546869 114.97499098 38.47366156 104.44101334 38.44078445 C95.47289004 38.41284063 86.50494968 38.40175971 77.53678621 38.41297992 C72.95889736 38.4181808 68.38139196 38.41518744 63.80355835 38.39051437 C59.61507576 38.36812753 55.4272544 38.36867861 51.23876105 38.38771825 C49.72126616 38.39053316 48.20372743 38.38483741 46.68630339 38.36990531 C44.62679998 38.35087341 42.5696727 38.36253218 40.5102253 38.38196754 C39.36547584 38.38061102 38.22072638 38.37925449 37.04128754 38.37785685 C33.00081625 39.20439873 31.50724953 40.78329122 29 44 C28.27429764 46.14572684 28.27429764 46.14572684 28.37917423 48.38067627 C28.36798559 49.23052975 28.35679695 50.08038322 28.34526926 50.95598984 C28.35846923 51.87962452 28.3716692 52.8032592 28.38526917 53.75488281 C28.37958591 54.74384678 28.37390265 55.73281075 28.36804718 56.75174332 C28.35511683 60.06929715 28.37795874 63.38563753 28.40063477 66.703125 C28.39877121 69.07995866 28.39473566 71.45679147 28.38868713 73.83361816 C28.37973385 79.62135548 28.39395951 85.40869889 28.4188254 91.19638252 C28.44675964 97.93657338 28.4480984 104.67669058 28.44826841 111.41692972 C28.44945572 123.44339564 28.4744267 135.46969443 28.51293945 147.49609375 C28.55028442 159.16538498 28.57153498 170.83455468 28.57446289 182.50390625 C28.5746457 183.22261855 28.57482851 183.94133084 28.57501686 184.6818223 C28.57519583 185.39929306 28.5753748 186.11676381 28.5755592 186.8559761 C28.57592462 188.30057017 28.57629699 189.74516424 28.57667637 191.1897583 C28.57686188 191.90218602 28.5770474 192.61461375 28.57723853 193.34863019 C28.58080966 204.46999055 28.59926147 215.59133214 28.61916961 226.71267343 C28.62618976 230.74298799 28.63097388 234.77329812 28.63413096 238.80361748 C28.63965439 245.79472812 28.65533057 252.78571826 28.68231773 259.77677917 C28.68976616 262.09998234 28.69383021 264.42319913 28.69429779 266.74641418 C28.69555304 269.9127606 28.70907943 273.07882042 28.72584534 276.24511719 C28.72343025 277.16875187 28.72101517 278.09238655 28.7185269 279.04401016 C28.75281196 285.26473643 28.75281196 285.26473643 31 291 C34.17758734 293.11839156 34.94912248 293.251597 38.58583355 293.26171303 C39.5323235 293.26917852 40.47881345 293.27664401 41.45398492 293.28433573 C43.01671119 293.28143363 43.01671119 293.28143363 44.61100769 293.2784729 C46.26869131 293.2871615 46.26869131 293.2871615 47.95986348 293.29602563 C51.68184892 293.31310002 55.40371092 293.31590855 59.12573242 293.31884766 C61.78624689 293.32814071 64.44674748 293.33822073 67.10725403 293.34928894 C72.84486044 293.37158316 78.58244896 293.38658341 84.32008934 293.39665604 C92.61578857 293.41122992 100.91142546 293.43676308 109.20708815 293.46498732 C122.66563017 293.51047882 136.12418114 293.54708386 149.58276367 293.578125 C162.657975 293.6083009 175.73316439 293.64264673 188.80834961 293.68261719 C189.61405024 293.68507874 190.41975088 293.68754028 191.24986669 293.69007643 C195.29175423 293.70245084 199.33364152 293.71490741 203.37552869 293.72740483 C236.91698932 293.83100793 270.45847434 293.92019952 304 294 C304.11069824 294.57967529 304.22139648 295.15935059 304.33544922 295.7565918 C304.84349738 298.40124419 305.35917495 301.04435393 305.875 303.6875 C306.13603516 305.05551758 306.13603516 305.05551758 306.40234375 306.45117188 C307.26774337 310.85829956 308.23918482 314.85177325 310 319 C310 319.99 310 320.98 310 322 C308.38174065 322.00213753 308.38174065 322.00213753 306.73078918 322.00431824 C296.56328423 322.02098836 286.3961795 322.06376246 276.2288866 322.13209057 C271.00173518 322.16638017 265.77487664 322.19147363 260.54760742 322.19555664 C255.50285619 322.19983533 250.45876586 322.22826258 245.41422081 322.27343178 C243.48975156 322.28642049 241.56520326 322.29070961 239.64069557 322.28615379 C236.94438966 322.28125753 234.25002264 322.30729573 231.55395508 322.34057617 C230.36064827 322.32763771 230.36064827 322.32763771 229.14323425 322.31443787 C225.15603811 322.39693046 223.22111681 322.82954068 220.02787781 325.29121399 C217.72495228 328.00298798 217.72495228 328.00298798 217 332 C210.4 332 203.8 332 197 332 C196.67 333.98 196.34 335.96 196 338 C193.82329049 340.58484255 192.18383454 341.77052483 188.84375 342.41796875 C184.53662304 342.68357491 182.56182243 342.40966219 179 339.8125 C177 337 177 337 176 332 C169.73 332 163.46 332 157 332 C156.01 330.02 155.02 328.04 154 326 C150.37636266 323.10144891 147.62468236 322.62658079 143.04823303 322.63491821 C141.85522079 322.62960587 140.66220856 322.62429352 139.43304443 322.61882019 C138.13264221 322.6281105 136.83223999 322.63740082 135.49243164 322.64697266 C134.10243079 322.64614142 132.71243017 322.64392388 131.32243347 322.64042664 C128.33385816 322.63548348 125.34547932 322.63956157 122.35692024 322.65044022 C117.62909497 322.6668177 112.90151544 322.65832782 108.1736908 322.64559937 C95.58036274 322.61549547 82.98707925 322.61694123 70.39373344 322.63585222 C62.117005 322.64818933 53.84055526 322.64631546 45.56385893 322.61746442 C40.86614883 322.60223916 36.16919573 322.60969914 31.47153294 322.63417459 C28.54628786 322.64425727 25.62138879 322.63354142 22.69618416 322.61705971 C20.69825622 322.61197247 18.70031312 322.63171241 16.70248413 322.65223694 C6.90837969 322.5625379 6.90837969 322.5625379 3.21018982 319.64926147 C0.12815225 315.95495281 -0.12490272 313.38091901 -0.12304783 308.72700214 C-0.1260344 307.07736311 -0.1260344 307.07736311 -0.12908131 305.39439803 C-0.12616847 304.18137879 -0.12325563 302.96835955 -0.12025452 301.71858215 C-0.12110894 300.43378344 -0.12196337 299.14898472 -0.12284368 297.82525271 C-0.12508541 294.25192538 -0.12107174 290.67862789 -0.11606562 287.10530436 C-0.11175671 283.25460537 -0.11320786 279.40390812 -0.1139679 275.5532074 C-0.11449285 268.87923088 -0.11134902 262.20526412 -0.10573006 255.53129005 C-0.09761121 245.88178327 -0.09499944 236.23228121 -0.09374207 226.58277138 C-0.09155215 210.92798098 -0.08489371 195.27319578 -0.07543945 179.6184082 C-0.06626377 164.40909857 -0.0591837 149.19979035 -0.05493164 133.99047852 C-0.05466892 133.05335007 -0.05440619 132.11622163 -0.05413551 131.15069536 C-0.05283049 126.4495089 -0.05156678 121.74832243 -0.05032361 117.04713595 C-0.03995288 78.03142029 -0.022262 39.01571057 0 0 Z " fill="#FEFEFE" transform="translate(20,130)"/>
<path d="M0 0 C1.11234512 -0.00021904 1.11234512 -0.00021904 2.24716187 -0.0004425 C4.70370385 0.00025539 7.16017045 0.00804206 9.61669922 0.01586914 C11.31777912 0.01773376 13.01885956 0.01915745 14.71994019 0.02015686 C19.20145139 0.02397861 23.68293029 0.03380599 28.16442871 0.04486084 C32.73575402 0.05508231 37.30708453 0.05965606 41.87841797 0.06469727 C50.85108843 0.07542854 59.82373489 0.09250088 68.79638672 0.11352539 C68.87530151 1.74922485 68.87530151 1.74922485 68.95581055 3.41796875 C69.03381925 4.86728833 69.11220855 6.31658745 69.19091797 7.76586914 C69.22447388 8.48238647 69.25802979 9.19890381 69.29260254 9.93713379 C69.7542838 18.12787496 72.11058195 25.44692437 77.85498047 31.50805664 C85.01032846 37.42525588 92.43144542 40.05378546 101.68701172 39.56665039 C109.50473161 38.42738468 116.67431575 35.27825711 121.79638672 29.11352539 C127.89004901 18.96797337 127.99273133 12.97201169 128.79638672 0.11352539 C182.25638672 0.11352539 235.71638672 0.11352539 290.79638672 0.11352539 C291.12638672 5.39352539 291.45638672 10.67352539 291.79638672 16.11352539 C294.7075738 25.7096606 298.56055013 31.57805254 307.35888672 36.55102539 C315.60191551 40.36100028 323.62850329 40.54325341 332.17138672 37.48852539 C340.96633814 33.38326444 345.0926794 28.00548387 348.79638672 19.11352539 C350.03398495 15.4007307 350.15247569 11.80046193 350.35888672 7.92602539 C350.40207031 7.17643555 350.44525391 6.4268457 350.48974609 5.65454102 C350.59561357 3.80774164 350.69648432 1.96065705 350.79638672 0.11352539 C360.48878243 0.04398425 370.18109212 -0.00930673 379.87368298 -0.04191113 C384.37445583 -0.0575604 388.87505787 -0.07878515 393.37573242 -0.11279297 C397.71995534 -0.14541282 402.06401405 -0.16333318 406.40834999 -0.17110634 C408.06494036 -0.17664514 409.72152184 -0.18746112 411.37804222 -0.20366478 C413.70022304 -0.22547431 416.02172722 -0.22844012 418.34399414 -0.22705078 C419.02732315 -0.23783661 419.71065216 -0.24862244 420.41468811 -0.25973511 C424.72805724 -0.23185091 427.38472959 0.45893125 430.79638672 3.11352539 C433.6422523 6.23739251 434.16691381 8.23973224 434.13696289 12.43286133 C434.1367363 13.49365906 434.1365097 14.55445679 434.13627625 15.6473999 C434.12079239 16.78606506 434.10530853 17.92473022 434.08935547 19.09790039 C434.08511063 20.26863098 434.08086578 21.43936157 434.07649231 22.64556885 C434.05969847 26.38512155 434.02204376 30.12413554 433.98388672 33.86352539 C433.96884085 36.39867386 433.95515228 38.93383077 433.94287109 41.46899414 C433.90979256 47.68402172 433.85958555 53.89873507 433.79638672 60.11352539 C432.98998491 60.11374276 432.1835831 60.11396013 431.35274488 60.11418408 C383.58781397 60.1276919 335.82296473 60.16713361 288.05808612 60.24038101 C282.32640339 60.24914805 276.59472036 60.25769781 270.86303711 60.26611328 C269.72193382 60.26779234 268.58083053 60.26947141 267.40514835 60.27120135 C248.91425594 60.29789105 230.42339453 60.30696784 211.93248484 60.30956682 C192.96741913 60.31262331 174.00244323 60.3345348 155.03741807 60.37404996 C143.32939617 60.39784727 131.62155342 60.4068337 119.91351064 60.3970385 C111.89128263 60.39173397 103.86921555 60.40469865 95.84703336 60.43218829 C91.21451298 60.44751811 86.58235262 60.45464088 81.94982147 60.4401226 C77.71121513 60.42701622 73.473308 60.43677537 69.23478081 60.46496312 C67.69904583 60.47109693 66.16324932 60.46873458 64.62754575 60.45715465 C62.54333719 60.44266469 60.46153209 60.45878462 58.37746143 60.48266888 C57.21893471 60.48380804 56.06040798 60.4849472 54.86677438 60.48612088 C50.81829108 61.31338993 49.33502483 62.91474566 46.79638672 66.11352539 C46.30138672 68.09352539 46.30138672 68.09352539 45.79638672 70.11352539 C39.19638672 70.11352539 32.59638672 70.11352539 25.79638672 70.11352539 C25.46638672 71.76352539 25.13638672 73.41352539 24.79638672 75.11352539 C23.07466291 77.69611111 21.68030867 78.84091395 18.70654297 79.75805664 C16.28113524 80.189868 14.24801668 80.3713617 11.79638672 80.11352539 C7.3908402 76.99292994 6.87689727 75.51607815 5.79638672 70.11352539 C-0.80361328 70.11352539 -7.40361328 70.11352539 -14.20361328 70.11352539 C-14.31675324 62.00295666 -14.40840753 53.89300541 -14.46267414 45.78185844 C-14.48872471 42.01516179 -14.52403729 38.24903483 -14.58081055 34.48266602 C-14.63529607 30.84513916 -14.66506796 27.20815884 -14.6779995 23.57025528 C-14.68721006 22.18516566 -14.70519687 20.80010464 -14.73226357 19.41524887 C-14.96139473 7.20172009 -14.96139473 7.20172009 -11.7980957 3.27807617 C-7.77805363 -0.0758048 -5.04683316 -0.02579338 0 0 Z " fill="#9FE456" transform="translate(34.20361328125,59.886474609375)"/>
<path d="M0 0 C15.7619877 12.75180358 26.73846307 28.66154802 30 49 C30.28257577 52.4431757 30.33434049 55.85885322 30.3125 59.3125 C30.30512817 60.69779907 30.30512817 60.69779907 30.29760742 62.11108398 C29.95064142 82.36856078 20.67733015 100.51838284 6.44677734 114.63085938 C-9.17431586 129.41369615 -29.13716714 134.61193953 -50.07421875 134.2734375 C-66.59270226 133.62815928 -81.889726 125.94785677 -94 115 C-94.70769531 114.37351562 -95.41539062 113.74703125 -96.14453125 113.1015625 C-106.93109328 102.99560572 -113.41744603 89.18497722 -117 75 C-117.18433594 74.28328125 -117.36867188 73.5665625 -117.55859375 72.828125 C-120.6462754 53.04510274 -116.46065439 33.66960283 -105.05078125 17.18359375 C-103.11814335 14.69660392 -101.1118343 12.33606381 -99 10 C-98.06027344 8.93845703 -98.06027344 8.93845703 -97.1015625 7.85546875 C-92.05574899 2.46983515 -86.37719219 -1.33535998 -80 -5 C-79.20851563 -5.4640625 -78.41703125 -5.928125 -77.6015625 -6.40625 C-52.93358408 -19.84661034 -22.54341146 -15.94270058 0 0 Z " fill="#FD5C5C" transform="translate(462,358)"/>
<path d="M0 0 C18.15 0 36.3 0 55 0 C55 19.47 55 38.94 55 59 C36.85 59 18.7 59 0 59 C0 39.53 0 20.06 0 0 Z " fill="#C6F0FC" transform="translate(142,345)"/>
<path d="M0 0 C18.15 0 36.3 0 55 0 C55 19.47 55 38.94 55 59 C36.85 59 18.7 59 0 59 C0 39.53 0 20.06 0 0 Z " fill="#C6F0FC" transform="translate(291,188)"/>
<path d="M0 0 C18.15 0 36.3 0 55 0 C55 19.47 55 38.94 55 59 C36.85 59 18.7 59 0 59 C0 39.53 0 20.06 0 0 Z " fill="#C6F0FC" transform="translate(142,188)"/>
<path d="M0 0 C18.15 0 36.3 0 55 0 C55 19.14 55 38.28 55 58 C36.85 58 18.7 58 0 58 C0 38.86 0 19.72 0 0 Z " fill="#C6F0FC" transform="translate(291,267)"/>
<path d="M0 0 C18.15 0 36.3 0 55 0 C55 19.14 55 38.28 55 58 C36.85 58 18.7 58 0 58 C0 38.86 0 19.72 0 0 Z " fill="#FC5B5B" transform="translate(142,267)"/>
<path d="M0 0 C17.82 0 35.64 0 54 0 C54 19.47 54 38.94 54 59 C36.18 59 18.36 59 0 59 C0 39.53 0 20.06 0 0 Z " fill="#C9F3FF" transform="translate(217,345)"/>
<path d="M0 0 C17.82 0 35.64 0 54 0 C54 19.47 54 38.94 54 59 C36.18 59 18.36 59 0 59 C0 39.53 0 20.06 0 0 Z " fill="#C9F3FF" transform="translate(68,345)"/>
<path d="M0 0 C17.82 0 35.64 0 54 0 C54 19.47 54 38.94 54 59 C36.18 59 18.36 59 0 59 C0 39.53 0 20.06 0 0 Z " fill="#C9F3FF" transform="translate(366,188)"/>
<path d="M0 0 C17.82 0 35.64 0 54 0 C54 19.47 54 38.94 54 59 C36.18 59 18.36 59 0 59 C0 39.53 0 20.06 0 0 Z " fill="#C9F3FF" transform="translate(217,188)"/>
<path d="M0 0 C17.82 0 35.64 0 54 0 C54 19.47 54 38.94 54 59 C36.18 59 18.36 59 0 59 C0 39.53 0 20.06 0 0 Z " fill="#C9F3FF" transform="translate(68,188)"/>
<path d="M0 0 C17.82 0 35.64 0 54 0 C54 19.14 54 38.28 54 58 C36.18 58 18.36 58 0 58 C0 38.86 0 19.72 0 0 Z " fill="#C9F3FF" transform="translate(217,267)"/>
<path d="M0 0 C17.82 0 35.64 0 54 0 C54 19.14 54 38.28 54 58 C36.18 58 18.36 58 0 58 C0 38.86 0 19.72 0 0 Z " fill="#C9F3FF" transform="translate(68,267)"/>
<path d="M0 0 C17.82 0 35.64 0 54 0 C54 18.81 54 37.62 54 57 C46.15305984 57.60361078 38.58484072 58.14653873 30.76171875 58.09765625 C29.57237732 58.09614563 29.57237732 58.09614563 28.35900879 58.09460449 C25.46849061 58.08947233 22.57799345 58.0755135 19.6875 58.0625 C13.190625 58.041875 6.69375 58.02125 0 58 C0 38.86 0 19.72 0 0 Z " fill="#C8F2FE" transform="translate(366,267)"/>
<path d="M0 0 C18.15 0 36.3 0 55 0 C55 14 55 14 52.5 17.4375 C51.68208984 18.20900391 51.68208984 18.20900391 50.84765625 18.99609375 C41.20864104 29.45024767 37.32870423 45.68518307 34 59 C22.78 59 11.56 59 0 59 C0 39.53 0 20.06 0 0 Z " fill="#C7F0FC" transform="translate(291,345)"/>
<path d="M0 0 C3.5386994 1.65139305 4.81070153 2.71605229 7 6 C7.66407654 9.33022256 7.88720557 10.82229888 7 14 C4.31709149 17.81594043 1.02255022 20.93100403 -2.3359375 24.15234375 C-3.29688731 25.10089554 -4.25614334 26.05116605 -5.21377563 27.00306702 C-7.73057814 29.49508755 -10.27089636 31.96174225 -12.81658936 34.42419434 C-14.89467265 36.44213179 -16.95581406 38.47689938 -19.01622581 40.51285458 C-23.26882391 44.71487083 -27.53460398 48.90343482 -31.82568359 53.06616211 C-32.58513275 53.80370224 -33.34458191 54.54124237 -34.12704468 55.3011322 C-36.37411566 57.33934234 -37.63765017 57.93098098 -40.625 58.5 C-48.96168057 57.26493621 -56.21474887 46.9367658 -61.9375 41.1875 C-62.79923828 40.32962891 -63.66097656 39.47175781 -64.54882812 38.58789062 C-65.77569336 37.3590918 -65.77569336 37.3590918 -67.02734375 36.10546875 C-67.76718506 35.36449951 -68.50702637 34.62353027 -69.26928711 33.86010742 C-71.42843619 31.53953233 -71.94438091 30.40787331 -72.375 27.25 C-71.8528401 22.7246142 -70.15770622 21.2328897 -67 18 C-64.13391871 16.56695936 -62.18699217 16.69355845 -59 17 C-54.38891117 19.69932886 -50.8018273 22.94328477 -47.125 26.75 C-46.62742187 27.25660156 -46.12984375 27.76320313 -45.6171875 28.28515625 C-44.40676798 29.51885307 -43.20270147 30.75877784 -42 32 C-39.15101954 30.70665553 -37.10820567 29.35207334 -34.91552734 27.12670898 C-34.34168304 26.54948593 -33.76783875 25.97226288 -33.17660522 25.37754822 C-32.56918488 24.75666824 -31.96176453 24.13578827 -31.3359375 23.49609375 C-30.70265533 22.85761002 -30.06937317 22.21912628 -29.41690063 21.56129456 C-27.39812011 19.52472625 -25.38616271 17.48158925 -23.375 15.4375 C-21.35583275 13.39072882 -19.33523099 11.34542734 -17.31167603 9.30299377 C-16.05351851 8.03256434 -14.79804361 6.75947158 -13.54550171 5.48350525 C-8.78583921 0.66907137 -6.84656338 -0.46417379 0 0 Z " fill="#030101" transform="translate(457,391)"/>
<path d="M0 0 C0.77859375 0.05929688 1.5571875 0.11859375 2.359375 0.1796875 C3.51179688 0.24542969 3.51179688 0.24542969 4.6875 0.3125 C8.36317441 1.43891635 9.75976147 3.00177684 12.109375 6.0546875 C12.8311779 9.5031838 12.76301032 12.88231958 12.703125 16.39453125 C12.70316528 17.39424454 12.70320557 18.39395782 12.70324707 19.42396545 C12.69789454 21.53457944 12.68032336 23.6451931 12.65136719 25.75561523 C12.6095633 28.97767406 12.61029649 32.1976379 12.6171875 35.41992188 C12.60669258 37.47397279 12.59375285 39.52801297 12.578125 41.58203125 C12.57792358 42.54157211 12.57772217 43.50111298 12.57751465 44.48973083 C12.48530598 49.73048054 12.10049012 53.55219121 9.109375 58.0546875 C5.52471042 60.18610968 2.22314745 60.65461265 -1.890625 60.0546875 C-4.99227269 57.50444385 -6.61628916 55.87769503 -7.890625 52.0546875 C-8.00136028 50.56278049 -8.05931231 49.06661627 -8.08349609 47.57080078 C-8.09955902 46.66621124 -8.11562195 45.7616217 -8.13217163 44.82962036 C-8.17671265 40.70299123 -8.21766783 36.57652026 -8.24072266 32.44970703 C-8.25729778 30.27316609 -8.28460805 28.09667992 -8.32275391 25.92041016 C-8.37749829 22.77998666 -8.39939113 19.64083625 -8.4140625 16.5 C-8.43673187 15.52902374 -8.45940125 14.55804749 -8.48275757 13.55764771 C-8.46151668 6.76889454 -8.46151668 6.76889454 -5.42041016 2.96435547 C-4.58558105 2.33416504 -3.75075195 1.70397461 -2.890625 1.0546875 C-1.890625 0.0546875 -1.890625 0.0546875 0 0 Z " fill="#70D5FC" transform="translate(352.890625,19.9453125)"/>
<path d="M0 0 C0.77859375 0.05929688 1.5571875 0.11859375 2.359375 0.1796875 C3.51179687 0.24542969 3.51179687 0.24542969 4.6875 0.3125 C8.36317441 1.43891635 9.75976147 3.00177684 12.109375 6.0546875 C12.8311779 9.5031838 12.76301032 12.88231958 12.703125 16.39453125 C12.70316528 17.39424454 12.70320557 18.39395782 12.70324707 19.42396545 C12.69789454 21.53457944 12.68032336 23.6451931 12.65136719 25.75561523 C12.6095633 28.97767406 12.61029649 32.1976379 12.6171875 35.41992188 C12.60669258 37.47397279 12.59375285 39.52801297 12.578125 41.58203125 C12.57792358 42.54157211 12.57772217 43.50111298 12.57751465 44.48973083 C12.48530598 49.73048054 12.10049012 53.55219121 9.109375 58.0546875 C5.52471042 60.18610968 2.22314745 60.65461265 -1.890625 60.0546875 C-4.99227269 57.50444385 -6.61628916 55.87769503 -7.890625 52.0546875 C-8.00136028 50.56278049 -8.05931231 49.06661627 -8.08349609 47.57080078 C-8.09955902 46.66621124 -8.11562195 45.7616217 -8.13217163 44.82962036 C-8.17671265 40.70299123 -8.21766783 36.57652026 -8.24072266 32.44970703 C-8.25729778 30.27316609 -8.28460805 28.09667992 -8.32275391 25.92041016 C-8.37749829 22.77998666 -8.39939113 19.64083625 -8.4140625 16.5 C-8.43673187 15.52902374 -8.45940125 14.55804749 -8.48275757 13.55764771 C-8.46151668 6.76889454 -8.46151668 6.76889454 -5.42041016 2.96435547 C-4.58558105 2.33416504 -3.75075195 1.70397461 -2.890625 1.0546875 C-1.890625 0.0546875 -1.890625 0.0546875 0 0 Z " fill="#70D5FC" transform="translate(130.890625,19.9453125)"/>
<path d="M0 0 C2.97046873 1.79023785 5.42502414 3.85004828 7 7 C7.39447548 11.18144011 7.45035186 13.30946048 5.125 16.875 C2.28058592 19.71941408 0.6112568 20.20354172 -3.3125 20.375 C-7.02449383 20.33315788 -7.85129077 20.10843381 -11 17.8125 C-13.07916606 14.88867272 -14 13.56483292 -14 10 C-12.84718323 6.48087511 -11.74121936 3.82063572 -9.25 1.0625 C-5.90314086 -0.51796126 -3.66018158 -0.50485263 0 0 Z " fill="#040404" transform="translate(210,452)"/>
<path d="M0 0 C4.21991975 0.32138462 6.62477605 0.71843517 10.171875 3.1796875 C12.62942904 6.82638059 12.72695581 8.73162183 12.109375 13.0546875 C10.75690611 16.25790328 9.82378782 17.64920996 6.796875 19.3671875 C3.62182807 20.17940881 1.37132147 20.53038803 -1.890625 20.0546875 C-5.73190805 16.81093737 -7.69842472 14.75245665 -8.265625 9.7421875 C-7.79849125 5.14870563 -6.37022282 3.94020765 -2.890625 1.0546875 C-1.890625 0.0546875 -1.890625 0.0546875 0 0 Z " fill="#070805" transform="translate(47.890625,119.9453125)"/>
</svg>
