<?xml version="1.0" encoding="UTF-8"?>
<svg version="1.1" xmlns="http://www.w3.org/2000/svg" width="512" height="512">
<path d="M0 0 C55.44 0 110.88 0 168 0 C168 57.44618834 168 57.44618834 159 68 C154.99911258 71.6635577 151.08457807 74.10539985 146 76 C147.59328125 77.16015625 147.59328125 77.16015625 149.21875 78.34375 C171.29116502 94.55436186 171.29116502 94.55436186 173.875 105.8125 C174.45981106 111.77527943 172.25912638 117.11131042 169 122 C170.27004883 121.97905273 171.54009766 121.95810547 172.84863281 121.93652344 C177.61218759 121.86349738 182.37569406 121.81797488 187.13964844 121.78027344 C189.19181674 121.76029943 191.24392917 121.73311053 193.29589844 121.69824219 C220.43787498 121.24895923 220.43787498 121.24895923 232.03125 131.078125 C238.85440381 137.73882276 243.61452053 145.59635827 244.12025452 155.30964661 C244.11803391 156.09796371 244.11581329 156.88628082 244.11352539 157.69848633 C244.11344986 158.59904251 244.11337433 159.49959869 244.11329651 160.42744446 C244.10813522 161.3859581 244.10297394 162.34447174 244.09765625 163.33203125 C244.09553383 164.81965218 244.09553383 164.81965218 244.09336853 166.33732605 C244.08778418 169.49574843 244.07523452 172.65409915 244.0625 175.8125 C244.05748298 177.95768127 244.05292042 180.10286365 244.04882812 182.24804688 C244.03781988 187.49872224 244.0210973 192.749356 244 198 C245.23133667 197.97643433 245.23133667 197.97643433 246.48754883 197.95239258 C249.58697087 197.90070283 252.68617038 197.86338092 255.78588867 197.83520508 C257.76561236 197.8130253 259.74513664 197.77487003 261.72460938 197.73632812 C274.90347703 197.63623546 286.36892539 199.8829356 296.26171875 209.109375 C305.32482142 218.82582519 308.32317402 228.96485525 308.26069641 242.0743866 C308.26452196 242.94199515 308.26834751 243.80960371 308.27228898 244.70350343 C308.28253874 247.58649706 308.27864214 250.46928854 308.2746582 253.35229492 C308.27900921 255.42940453 308.28419366 257.50651253 308.29014587 259.58361816 C308.30350765 265.20989702 308.3041175 270.83610858 308.30158257 276.4624002 C308.30051059 281.16874933 308.30540224 285.87508498 308.310188 290.58143121 C308.32127421 301.69207448 308.32172607 312.80268395 308.31567383 323.91333008 C308.30963903 335.35071703 308.32193459 346.78798081 308.3432439 358.22534674 C308.36089834 368.06516398 308.36685506 377.90494216 308.36360615 387.74477464 C308.36179871 393.6125955 308.3643752 399.48032856 308.37832069 405.34813499 C308.39095641 410.871363 308.38890081 416.39440013 308.37590981 421.91762543 C308.37355665 423.93551258 308.37623302 425.95341341 308.38453293 427.97128487 C308.50153404 458.64831255 308.50153404 458.64831255 297.5 470.75 C296.675 471.4925 295.85 472.235 295 473 C294.236875 473.70125 293.47375 474.4025 292.6875 475.125 C284.51210327 480.82876516 276.0840523 480.42864454 266.520401 480.38768005 C264.93598362 480.39185571 263.35156922 480.3973345 261.76716036 480.40399987 C257.4243465 480.41844272 253.0817226 480.41421339 248.7388984 480.40683305 C244.05100675 480.40210084 239.36315617 480.41461168 234.67527771 480.42485046 C225.49579598 480.44204249 216.3163827 480.44287766 207.13688905 480.43763756 C199.67576501 480.43359554 192.2146612 480.43503981 184.75353813 480.44038582 C183.1604537 480.44150845 183.1604537 480.44150845 181.53518574 480.44265376 C179.37760158 480.44418525 177.22001744 480.44572359 175.06243329 480.44726873 C154.83135704 480.46099513 134.60031946 480.455555 114.36924409 480.44408352 C95.86212908 480.43415005 77.35511402 480.44709355 58.84801442 480.47101771 C39.84202872 480.49540159 20.83608959 480.50501839 1.83008856 480.49836498 C-8.8392096 480.49487131 -19.50843087 480.49711471 -30.17771721 480.51461601 C-39.25978702 480.52932903 -48.34172579 480.52998513 -57.42379301 480.5125451 C-62.0568303 480.50402552 -66.68963339 480.50190899 -71.32265854 480.51719666 C-75.56598352 480.53102503 -79.80887328 480.52630452 -84.05217297 480.50695742 C-85.58505698 480.50319143 -87.11797569 480.50613669 -88.65082883 480.51656907 C-96.845296 480.56836236 -103.81245063 480.32419581 -111 476 C-111.65116144 475.62198398 -112.30232287 475.24396795 -112.97321647 474.8544969 C-120.13818823 470.49939564 -123.99450997 463.12645935 -126.45703125 455.3359375 C-127.86813797 449.26513305 -128.14714363 443.34026494 -128.14044189 437.14593506 C-128.14341302 436.27791866 -128.14638414 435.40990225 -128.1494453 434.51558232 C-128.15808722 431.61942779 -128.15963671 428.72331482 -128.16113281 425.82714844 C-128.16576413 423.74546725 -128.17078922 421.66378691 -128.17617798 419.58210754 C-128.18927267 413.93526967 -128.19574107 408.28844366 -128.20018864 402.64159298 C-128.20312376 399.11086557 -128.20722937 395.58014137 -128.21169281 392.04941559 C-128.22535928 380.99427263 -128.23503041 369.93913705 -128.2388947 358.88398623 C-128.24337516 346.13754546 -128.26092616 333.39121193 -128.2898953 320.64480376 C-128.31153173 310.78130047 -128.32160001 300.91782731 -128.32293582 291.05430055 C-128.32398232 285.16809349 -128.3298575 279.28198736 -128.34775543 273.39580536 C-128.36427025 267.85702948 -128.36637501 262.31843006 -128.35761642 256.77963829 C-128.35684791 254.75242578 -128.36116413 252.72520364 -128.37107468 250.69801521 C-128.44140646 235.40930786 -127.90089789 221.54374052 -116.890625 209.73828125 C-105.23365299 198.86514012 -93.42928556 197.67648525 -77.9375 197.875 C-76.58138685 197.88505369 -75.22526645 197.8941753 -73.86914062 197.90234375 C-70.579239 197.92575942 -67.28971562 197.95855577 -64 198 C-64.01571045 196.68918457 -64.0314209 195.37836914 -64.04760742 194.02783203 C-64.10224495 189.12636553 -64.13647241 184.22492552 -64.16479492 179.32324219 C-64.17980487 177.2089382 -64.2002192 175.09466493 -64.22631836 172.98046875 C-64.26304633 169.92700579 -64.27980474 166.87395743 -64.29296875 163.8203125 C-64.30845261 162.88760529 -64.32393646 161.95489807 -64.33988953 160.993927 C-64.34270095 149.82506258 -61.08164002 140.40999148 -53.3359375 132.24609375 C-44.49452785 124.1919329 -34.59750527 121.67129776 -22.91015625 121.8046875 C-21.4933683 121.80893234 -21.4933683 121.80893234 -20.04795837 121.81326294 C-17.05267276 121.82439316 -14.05769414 121.8494844 -11.0625 121.875 C-9.0227908 121.88503905 -6.98307688 121.89416328 -4.94335938 121.90234375 C0.0378774 121.92430904 5.01888678 121.95878924 10 122 C10.16428749 121.16774651 10.16428749 121.16774651 10.33189392 120.31867981 C11.45315607 114.9320554 12.98200041 109.93466196 15.00390625 104.82421875 C15.42892677 103.72555229 15.42892677 103.72555229 15.86253357 102.60469055 C16.75648956 100.29656098 17.65897132 97.99189707 18.5625 95.6875 C19.46814588 93.3647195 20.37192514 91.04123963 21.2731781 88.7167511 C21.83122791 87.27877353 22.39202259 85.84185729 22.95594788 84.40617371 C24.16468844 81.30330542 25.31621954 78.26475226 26 75 C25.443125 74.99742188 24.88625 74.99484375 24.3125 74.9921875 C17.67765197 74.65596209 13.68298332 72.69286303 9 68 C-6.64432166 49.77188766 0 20.86515337 0 0 Z M-14 167 C-19.71431878 176.93792558 -19.71431878 176.93792558 -18 198 C53.28 198 124.56 198 198 198 C199.76824202 179.71012224 199.76824202 179.71012224 192.17138672 165.14216614 C187.04381007 162.08861411 183.05082515 161.31260873 177.125 161.51171875 C176.31506592 161.51879349 175.50513184 161.52586823 174.6706543 161.53315735 C172.11278359 161.5608911 169.55719594 161.62358216 167 161.6875 C165.25393812 161.71261037 163.50784154 161.73541872 161.76171875 161.75585938 C157.50694822 161.81064769 153.25385958 161.8967664 149 162 C148.88172852 162.8031665 148.76345703 163.60633301 148.64160156 164.43383789 C148.4762793 165.49852295 148.31095703 166.56320801 148.140625 167.66015625 C147.90134277 169.23615601 147.90134277 169.23615601 147.65722656 170.84399414 C146.03131863 178.65161371 142.57298008 184.52477952 136 189 C131.22094791 191.82718661 126.40614911 191.74128637 121 191 C117.98222836 189.72481367 115.5516244 188.03783578 113 186 C112.01 185.236875 111.02 184.47375 110 183.6875 C109.34 183.130625 108.68 182.57375 108 182 C107.071875 182.639375 106.14375 183.27875 105.1875 183.9375 C99.12228303 187.86205216 93.0424869 187.71009654 86 187 C79.04785916 184.66744866 75.04899749 178.80778078 71 173 C70.29746094 173.32226562 69.59492188 173.64453125 68.87109375 173.9765625 C62.91802526 176.09860868 56.37308352 175.99238038 50.5625 173.5625 C48.17188731 171.17188731 46.92324828 169.27667586 45.33984375 166.33984375 C44.67843384 165.12155884 44.67843384 165.12155884 44.00366211 163.87866211 C43.67245361 163.25870361 43.34124512 162.63874512 43 162 C36.16833484 161.87275458 29.33697762 161.78546237 22.50439453 161.7253418 C20.18233825 161.70026734 17.86036035 161.66619908 15.53857422 161.62280273 C12.19218559 161.56184195 8.84684447 161.53371851 5.5 161.51171875 C4.4694751 161.48591232 3.4389502 161.4601059 2.37719727 161.43351746 C-4.02655705 161.43105073 -9.44994417 162.13153783 -14 167 Z " fill="#020100" transform="translate(166,16)"/>
<path d="M0 0 C1.24344681 0.2816803 2.48689362 0.5633606 3.76802063 0.85357666 C12.54472983 2.80018206 21.01377027 4.59585666 30.04296875 4.609375 C31.40099358 4.63417938 31.40099358 4.63417938 32.78645325 4.65948486 C35.5868786 4.70681608 38.38676746 4.72907177 41.1875 4.75 C43.12437437 4.77825657 45.06122493 4.80819687 46.99804688 4.83984375 C51.66531988 4.9125385 56.33231473 4.96280473 61 5 C61.01401855 6.29248657 61.01401855 6.29248657 61.02832031 7.61108398 C61.07268242 10.84886581 61.13445068 14.08574648 61.20751953 17.32299805 C61.23551371 18.71643218 61.25683406 20.11001875 61.27099609 21.50366211 C61.38357198 31.96196204 62.25557307 41.25557307 70 49 C77.85741824 54.42842712 84.91258834 54.26663672 94.1875 54.375 C95.97897461 54.43107422 95.97897461 54.43107422 97.80664062 54.48828125 C106.20310882 54.57146035 112.23584942 53.34735336 118.54321289 47.59179688 C129.3238831 35.71823746 125.49806899 20.55986141 126 5 C177.48 5 228.96 5 282 5 C282.33 15.23 282.66 25.46 283 36 C287.22881269 45.26526246 287.22881269 45.26526246 294 51 C294.77730469 51.52980469 295.55460937 52.05960937 296.35546875 52.60546875 C301.96147539 54.75053238 307.42693609 54.43243839 313.375 54.375 C314.56867188 54.38660156 315.76234375 54.39820313 316.9921875 54.41015625 C324.9839214 54.38363501 330.77054888 53.55734254 337.6875 49.375 C343.57252626 43.33091897 346.07113148 36.44883404 346.31640625 28.14453125 C346.3475779 27.15207649 346.3475779 27.15207649 346.37937927 26.13957214 C346.44464727 24.03065148 346.50365344 21.92160865 346.5625 19.8125 C346.60570689 18.38084685 346.64932188 16.94920596 346.69335938 15.51757812 C346.80030506 12.01184846 346.90163641 8.50598214 347 5 C348.74518921 4.97812622 348.74518921 4.97812622 350.52563477 4.95581055 C354.91508055 4.89706561 359.30405328 4.81985079 363.69311523 4.73754883 C365.57910382 4.70465275 367.46518254 4.67651577 369.35131836 4.65356445 C380.94985787 4.50869829 391.70838222 3.73218211 403 1 C404.66571752 0.66195558 406.33224483 0.32784385 408 0 C408.0937098 14.54332804 408.1638426 29.08660883 408.20724869 43.6301775 C408.22781738 50.38400721 408.25582786 57.13764862 408.30175781 63.89135742 C408.34609604 70.41415887 408.36916623 76.93683852 408.37950897 83.45978355 C408.3868758 85.94316363 408.40126131 88.42653354 408.42292023 90.90983009 C408.45213463 94.39950929 408.45594835 97.8883912 408.45410156 101.37817383 C408.46848267 102.39525925 408.48286377 103.41234467 408.49768066 104.46025085 C408.45093435 112.67193413 406.5389005 119.82894918 402.25 126.875 C395.99438396 132.78308181 390.32772506 135.12184986 381.7829628 135.13142776 C380.49804262 135.13526891 379.21312245 135.13911005 377.8892653 135.1430676 C376.46021408 135.14228735 375.03116292 135.14140857 373.60211182 135.14044189 C372.08643383 135.14302547 370.57075653 135.14603861 369.05508018 135.1494453 C364.8837799 135.15751945 360.71249683 135.1593051 356.54118967 135.16004276 C352.04480941 135.16189259 347.54843809 135.16943956 343.05206299 135.17617798 C333.21736683 135.18976466 323.38267475 135.19578651 313.54797077 135.20018864 C307.40831986 135.20295043 301.26867053 135.20718766 295.12902069 135.21169281 C278.13343021 135.22388579 261.137841 135.23418513 244.14224625 135.2375679 C243.05431829 135.23778747 241.96639033 135.23800703 240.84549485 135.23823325 C239.75495007 135.23845153 238.66440528 135.23866981 237.54081368 135.2388947 C235.33092006 135.23933817 233.12102644 135.23978473 230.91113281 135.24023438 C229.81494707 135.2404558 228.71876132 135.24067723 227.58935782 135.24090537 C209.82498299 135.24485386 192.06064917 135.26230931 174.29629019 135.2855939 C156.06224319 135.30930142 137.82821678 135.32176948 119.59415412 135.32293582 C109.3546397 135.3238529 99.11517872 135.32961366 88.87567902 135.34775543 C80.15692472 135.3631483 71.43824036 135.36828168 62.71947506 135.36001733 C58.27091811 135.35610798 53.82250206 135.35705433 49.3739624 135.37107468 C45.30022327 135.38379639 41.22673116 135.38263135 37.15299246 135.37048396 C35.68056792 135.36852397 34.20812599 135.3716194 32.73572591 135.38032833 C23.80088251 135.42982308 17.0136329 135.14809508 9.3125 130.3125 C2.36451535 123.36451535 -0.22128839 115.71414615 -0.24884033 106.01889038 C-0.24164978 104.97447784 -0.23445923 103.93006531 -0.22705078 102.85400391 C-0.22734283 101.7412207 -0.22763489 100.6284375 -0.22793579 99.48193359 C-0.22654537 95.81339653 -0.21099741 92.14506398 -0.1953125 88.4765625 C-0.19158136 85.92923087 -0.18873486 83.38189779 -0.18673706 80.83456421 C-0.17988781 74.82109197 -0.16413388 68.80770716 -0.14403808 62.79426992 C-0.12164944 55.94542014 -0.11067821 49.09656678 -0.10064721 42.24768949 C-0.07976674 28.16508592 -0.04460931 14.08254697 0 0 Z " fill="#BE7327" transform="translate(52,347)"/>
<path d="M0 0 C1.27721869 -0.00644889 2.55443738 -0.01289778 3.87035966 -0.0195421 C5.28035792 -0.01660007 6.69035579 -0.01346466 8.10035324 -0.01015663 C9.6039591 -0.0138942 11.10756302 -0.01849615 12.61116385 -0.02388728 C16.73989838 -0.0361196 20.86855188 -0.03585653 24.99730039 -0.03349853 C29.45142824 -0.03309042 33.9055301 -0.04412898 38.35964584 -0.05361366 C47.08519045 -0.07022612 55.81070803 -0.07572333 64.53626713 -0.07683842 C71.62938754 -0.07778882 78.72249902 -0.08189869 85.81561661 -0.08823967 C105.92771348 -0.10585307 126.03978901 -0.11507843 146.15189365 -0.11357872 C147.77824424 -0.11345885 147.77824424 -0.11345885 149.43745041 -0.11333656 C150.52300869 -0.1132548 151.60856697 -0.11317304 152.72702095 -0.1130888 C170.3185724 -0.11227597 187.91003821 -0.13141278 205.50156489 -0.1596133 C223.56618747 -0.1883436 241.63076829 -0.2021535 259.6954143 -0.20042574 C269.836608 -0.19976187 279.97771193 -0.20525285 290.11888504 -0.22678185 C298.75374491 -0.24499558 307.38847432 -0.24933941 316.02334508 -0.235763 C320.4276465 -0.22923422 324.83169767 -0.22911284 329.23597527 -0.2464695 C333.27156783 -0.26220941 337.3067119 -0.25932741 341.34229359 -0.24190123 C342.79854295 -0.23883333 344.25482585 -0.24245585 345.71103564 -0.25362138 C356.60693032 -0.33160154 365.87547598 0.9001695 374.12055588 8.54242516 C379.38080787 14.68404915 380.73937157 21.43542297 380.70283127 29.30878258 C380.70297729 30.12852058 380.70312332 30.94825859 380.70327377 31.79283714 C380.70257684 34.50366419 380.69479466 37.21442261 380.68696213 39.92523766 C380.68509717 41.80425034 380.68367363 43.6832635 380.68267441 45.56227684 C380.67885535 50.50902205 380.66903026 55.45573793 380.65797043 60.40247154 C380.64774318 65.44976975 380.64317397 70.4970727 380.638134 75.54437828 C380.62740747 85.44868805 380.61033835 95.35297604 380.58930588 105.25726891 C361.50666672 111.05246878 361.50666672 111.05246878 351.42524338 110.74555016 C350.4962825 110.73847542 349.56732162 110.73140068 348.61021042 110.72411156 C345.72731593 110.69677132 342.84658324 110.63417055 339.96430588 110.56976891 C337.97475116 110.54460727 335.98516512 110.52180825 333.99555588 110.50140953 C329.19267675 110.44714649 324.39135348 110.36132714 319.58930588 110.25726891 C319.58566025 109.66258308 319.58201462 109.06789726 319.57825851 108.45519066 C319.53649968 102.27447772 319.46720136 96.09451198 319.38178635 89.91425133 C319.35353273 87.6067101 319.33234017 85.2990713 319.31830978 82.99139977 C319.29694144 79.67716926 319.25032143 76.36411739 319.19868088 73.05023766 C319.19683792 71.49855133 319.19683792 71.49855133 319.19495773 69.91551781 C319.17523911 68.95474831 319.15552048 67.99397881 319.13520432 67.00409508 C319.12632187 66.15804207 319.11743942 65.31198906 319.10828781 64.44029808 C318.75283934 62.13131641 318.75283934 62.13131641 316.90188217 60.48485374 C314.08590785 58.99005014 312.22452038 58.87686042 309.04218674 58.86908531 C307.93100983 58.85962883 306.81983292 58.85017235 305.67498398 58.84042931 C304.48010864 58.846502 303.28523331 58.85257469 302.05414963 58.85883141 C300.82394592 58.85596123 299.59374222 58.85309105 298.32625961 58.8501339 C295.72635564 58.84809274 293.12643632 58.85362611 290.52656174 58.86615562 C287.85759425 58.87690774 285.1904441 58.87983868 282.52167892 58.86615562 C278.67814874 58.8476623 274.83520384 58.84985706 270.99164963 58.85883141 C269.79475006 58.85275871 268.59785049 58.84668602 267.36468124 58.84042931 C266.25665649 58.84988579 265.14863174 58.85934227 264.00703049 58.86908531 C263.03092316 58.87147209 262.05481583 58.87385887 261.04912949 58.87631798 C258.18387819 59.07213902 258.18387819 59.07213902 255.58930588 62.25726891 C255.25930588 78.09726891 254.92930588 93.93726891 254.58930588 110.25726891 C203.10930588 110.25726891 151.62930588 110.25726891 98.58930588 110.25726891 C98.25930588 93.75726891 97.92930588 77.25726891 97.58930588 60.25726891 C94.48972576 59.22407553 92.31442513 59.11839986 89.06391525 59.09613609 C87.93264206 59.08652855 86.80136887 59.07692101 85.63581467 59.06702232 C84.41390427 59.06277245 83.19199387 59.05852257 81.93305588 59.05414391 C80.67924118 59.04844383 79.42542648 59.04274376 78.1336174 59.03687096 C75.48062635 59.02741928 72.82774849 59.02052283 70.1747551 59.01703453 C66.7749604 59.01154065 63.37556436 58.98748812 59.97589493 58.95906258 C56.73247866 58.93597112 53.48904286 58.9339896 50.24555588 58.92914391 C49.02364548 58.9167971 47.80173508 58.9044503 46.54279709 58.89172935 C45.4115239 58.89473045 44.2802507 58.89773155 43.1146965 58.90082359 C42.11780807 58.89717796 41.12091965 58.89353233 40.09382248 58.88977623 C37.57755064 59.07452363 37.57755064 59.07452363 35.77099228 60.4828701 C34.24148532 62.77954993 34.19304969 64.25199041 34.15693283 67.00409508 C34.13713867 67.96486458 34.11734451 68.92563408 34.09695053 69.91551781 C34.08736565 71.46720413 34.08736565 71.46720413 34.07758713 73.05023766 C34.05963593 74.11140297 34.04168472 75.17256828 34.02318954 76.26589012 C33.96896064 79.65880916 33.93514998 83.05158652 33.90180588 86.44476891 C33.86864397 88.7436168 33.83415538 91.04244597 33.79829025 93.34125328 C33.71322706 98.97979811 33.64493054 104.618361 33.58930588 110.25726891 C28.11243093 110.30719834 22.63569234 110.34323581 17.15864182 110.36713219 C15.30054538 110.37710811 13.4424643 110.39069368 11.58442307 110.40814781 C-2.46377539 110.53668354 -14.49362067 110.27776642 -27.41069412 104.25726891 C-27.50359378 93.59092454 -27.57456027 82.92467728 -27.61794281 72.25800991 C-27.63876994 67.3044106 -27.66699814 62.35108918 -27.71245193 57.39764977 C-27.75608404 52.61249581 -27.77986785 47.82760827 -27.79020309 43.04227066 C-27.79756339 41.22150482 -27.81193613 39.40075268 -27.83361435 37.58010101 C-27.97631605 25.09255992 -27.55009854 15.61427819 -18.41069412 6.25726891 C-12.57275675 1.7856573 -7.32829441 0.00937664 0 0 Z " fill="#8B541C" transform="translate(79.41069412231445,227.74273109436035)"/>
<path d="M0 0 C11.36971094 -0.23181178 22.73885902 -0.40943656 34.11045265 -0.51812172 C39.39105372 -0.57028982 44.67003714 -0.64102676 49.94970703 -0.75439453 C55.04620586 -0.86314288 60.14115039 -0.92285906 65.23871994 -0.94877243 C67.18218846 -0.96723493 69.1255728 -1.00329185 71.06837845 -1.05730057 C86.35675219 -1.46536002 86.35675219 -1.46536002 90.42327881 2.16094971 C92.00146484 4.82666016 92.00146484 4.82666016 93.01254272 7.48062134 C95.29622268 13.30715652 101.46644575 16.70479892 106.5625 19.9375 C111.16968224 22.95019656 115.13292729 26.23695985 118 31 C118.5 34.625 118.5 34.625 117 38 C111.82644913 42.92030013 105.07121089 45.40566632 98.50390625 47.921875 C95.88830593 48.86514878 95.88830593 48.86514878 94 51 C93.8732505 54.06506768 93.86604758 57.04031714 93.9453125 60.1015625 C93.97062514 61.97264859 93.99534555 63.84374276 94.01953125 65.71484375 C94.06898842 68.66415602 94.12472777 71.61304764 94.19189453 74.56201172 C94.25270377 77.40855427 94.28798489 80.25457313 94.3203125 83.1015625 C94.34723175 83.97269684 94.374151 84.84383118 94.40188599 85.74136353 C94.45003783 91.68284202 93.30332143 96.01774639 90 101 C88 103 88 103 85.75 103.5625 C81.39496572 102.67169753 79.50601063 99.50701487 77 96 C76.360625 94.865625 75.72125 93.73125 75.0625 92.5625 C73.1832584 89.71596801 73.1832584 89.71596801 69.8125 89.125 C64.87346413 90.25854922 62.48885468 92.66750326 58.91796875 96.15234375 C56.3869444 98.59058105 55.27767629 98.95728057 51.75 99.5 C47.78883697 98.97184493 47.30682709 98.79263084 44.8125 96 C41.87155272 92.12867262 38 87.02572513 38 82 C32.99246903 81.48902745 29.33698637 81.29717403 25.25 84.5 C24.69699219 84.95761719 24.14398438 85.41523438 23.57421875 85.88671875 C21.37154684 87.44443958 19.61378982 87.39602876 17 87 C14.83341874 81.81904481 13.64114975 77.5008316 13.40625 71.8828125 C13.14036434 69.59066468 13.14036434 69.59066468 10 68 C5.38628107 67.63813969 1.68822811 68.34153527 -2.74609375 69.5390625 C-7.06623571 70.42255774 -11.65773048 70.82776705 -16 70 C-18.5718948 67.467328 -19.4487013 65.45308419 -19.5 61.875 C-19.27626773 57.02485354 -18.23711995 52.54358872 -16.92578125 47.890625 C-16.70718948 47.11059113 -16.48859772 46.33055725 -16.26338196 45.52688599 C-13.55833064 36.13447784 -10.13145318 27.01597632 -6.6875 17.875 C-6.0351227 16.12655737 -5.38342688 14.3778603 -4.73242188 12.62890625 C-3.16274495 8.41631259 -1.58403911 4.20721301 0 0 Z " fill="#F1A665" transform="translate(207,91)"/>
<path d="M0 0 C46.2 0 92.4 0 140 0 C140 37.86484526 140 37.86484526 133.98046875 45.59265137 C129.20378465 47.84815559 124.52881363 47.55545944 119.3125 47.51757812 C117.53854858 47.52809204 117.53854858 47.52809204 115.72875977 47.53881836 C112.493064 47.55338979 109.25802457 47.54999904 106.02233887 47.53730202 C102.63206633 47.52715634 99.24183681 47.53657203 95.8515625 47.54284668 C90.1587744 47.55011858 84.46619404 47.54054761 78.7734375 47.52148438 C72.19709626 47.49971624 65.6212511 47.50676796 59.04492188 47.52879 C53.39294191 47.54695725 47.74111106 47.54949593 42.08911133 47.53903532 C38.71590039 47.53280757 35.34292242 47.53194465 31.96972656 47.54518127 C28.20864218 47.55532861 24.44851315 47.53986903 20.6875 47.51757812 C19.5725415 47.52567505 18.45758301 47.53377197 17.30883789 47.54211426 C13.07284753 47.49555395 9.87692792 47.41407691 6.01953125 45.59265137 C-4.48364547 32.10879195 0 16.74385256 0 0 Z " fill="#314C5A" transform="translate(180,30)"/>
<path d="M0 0 C1.30621307 -0.00145523 2.61242615 -0.00291046 3.95822144 -0.00440979 C6.71014819 -0.00578726 9.46154959 0.0066563 12.21337891 0.02954102 C15.72829054 0.05798079 19.24233442 0.05516483 22.75731087 0.0424509 C26.12996378 0.03380032 29.50236171 0.0489457 32.875 0.0625 C34.75954391 0.05809654 34.75954391 0.05809654 36.68215942 0.05360413 C37.85712982 0.0662883 39.03210022 0.07897247 40.24267578 0.09204102 C41.78533615 0.10014549 41.78533615 0.10014549 43.35916138 0.1084137 C49.45669439 0.91095009 53.28519788 4.02999417 57.3046875 8.49609375 C60.51390636 13.30992204 59.71433147 18.5226301 59.7421875 24.18359375 C59.77505859 25.34310547 59.80792969 26.50261719 59.84179688 27.69726562 C59.8804534 33.87879596 59.52282448 38.55697085 56.16430664 43.82348633 C49.06477696 50.20905516 41.78924168 50.08653877 32.6796875 50.02734375 C31.37821777 50.03117065 30.07674805 50.03499756 28.73583984 50.03894043 C25.99231789 50.04480849 23.24931997 50.03636112 20.50585938 50.01757812 C17.00892412 49.99478883 13.51321721 50.00792666 10.0163269 50.03186798 C6.65401827 50.04989017 3.2920309 50.03723055 -0.0703125 50.02734375 C-1.31635254 50.03544067 -2.56239258 50.0435376 -3.84619141 50.05187988 C-10.93159309 49.97583645 -15.69479389 49.36270012 -21.6953125 45.49609375 C-27.65713714 39.22853451 -26.97189102 32.95981354 -27.0703125 24.74609375 C-27.10769531 23.57820313 -27.14507812 22.4103125 -27.18359375 21.20703125 C-27.29578487 10.21230196 -27.29578487 10.21230196 -23.31890869 5.97712708 C-16.39137784 -0.34211912 -8.8881581 -0.07973189 0 0 Z " fill="#040201" transform="translate(239.6953125,394.50390625)"/>
<path d="M0 0 C12.54 0 25.08 0 38 0 C38.09194608 6.58436076 38.17155205 13.16648476 38.21972656 19.75097656 C38.23981316 21.98966021 38.2670878 24.22829158 38.30175781 26.46679688 C38.35040464 29.68893349 38.37299874 32.91037501 38.390625 36.1328125 C38.41127014 37.12991241 38.43191528 38.12701233 38.45318604 39.15432739 C38.45509718 45.10377305 37.97284581 48.47540783 34 53 C28.90407171 56.59980627 23.9448076 56.45410134 17.9375 56.375 C17.05255859 56.38660156 16.16761719 56.39820313 15.25585938 56.41015625 C10.40888104 56.38833939 6.82115614 56.30829775 3 53 C-1.0315717 48.18203352 -0.38298747 42.96574749 -0.29296875 37.01171875 C-0.28872391 35.95338333 -0.28447906 34.89504791 -0.28010559 33.80464172 C-0.26334362 30.43199988 -0.22569512 27.05996055 -0.1875 23.6875 C-0.17244999 21.3977951 -0.15876214 19.10808082 -0.14648438 16.81835938 C-0.11600302 11.21182199 -0.05727497 5.60658361 0 0 Z " fill="#D89652" transform="translate(127,333)"/>
<path d="M0 0 C12.54 0 25.08 0 38 0 C38.06890229 6.7447686 38.12862827 13.48831406 38.16479492 20.2331543 C38.17987308 22.52714172 38.2003387 24.82110037 38.22631836 27.11499023 C38.26274358 30.41397205 38.27973631 33.7125724 38.29296875 37.01171875 C38.30845261 38.03585373 38.32393646 39.05998871 38.33988953 40.11515808 C38.34200465 49.08202756 38.34200465 49.08202756 35 53 C29.90024236 56.5527275 24.98935158 56.48594328 19 56.4375 C18.1234375 56.45748047 17.246875 56.47746094 16.34375 56.49804688 C10.77079411 56.49385037 7.27516285 55.91672694 3 52 C-0.59750875 46.56334849 -0.39273119 41.63494139 -0.29296875 35.3515625 C-0.28872391 34.33903412 -0.28447906 33.32650574 -0.28010559 32.28329468 C-0.26337302 29.06358752 -0.22573026 25.84451656 -0.1875 22.625 C-0.17244618 20.43620698 -0.158759 18.24740411 -0.14648438 16.05859375 C-0.11604481 10.70528953 -0.05731187 5.35335315 0 0 Z " fill="#D89652" transform="translate(347,333)"/>
<path d="M0 0 C8.17187125 -0.11343035 16.34311985 -0.20496018 24.51556969 -0.25906086 C28.31129829 -0.28504016 32.10645558 -0.32022007 35.90185547 -0.37719727 C39.5718196 -0.43194008 43.24123789 -0.46150804 46.91157913 -0.47438622 C48.30452684 -0.48355116 49.69744817 -0.50144661 51.09016037 -0.52865028 C59.72514669 -0.6904487 66.85187942 -0.23662162 74 5 C80.85678514 12.26524016 82.30047721 18.56684704 82.1953125 28.33203125 C82.1924826 29.32377853 82.18965271 30.31552582 82.18673706 31.33732605 C82.17556804 34.49584159 82.15046927 37.65407057 82.125 40.8125 C82.11496597 42.95767819 82.10584086 45.10286083 82.09765625 47.24804688 C82.07563939 52.49880784 82.0411319 57.74935538 82 63 C76.06 63 70.12 63 64 63 C63.97421875 61.16695312 63.9484375 59.33390625 63.921875 57.4453125 C63.86556438 55.0051855 63.80821773 52.56508225 63.75 50.125 C63.73582031 48.92101562 63.72164063 47.71703125 63.70703125 46.4765625 C63.43961593 36.63567856 61.70950081 27.95858399 54.84765625 20.53515625 C49.67153186 16.2344863 42.75442934 12.94410412 35.98754883 12.79467773 C35.18694534 12.77473251 34.38634186 12.75478729 33.56147766 12.73423767 C32.70201035 12.71752518 31.84254303 12.70081268 30.95703125 12.68359375 C30.0734343 12.66281265 29.18983734 12.64203156 28.27946472 12.62062073 C25.45722215 12.55524246 22.63488665 12.49629472 19.8125 12.4375 C17.89907894 12.39430363 15.98566727 12.35068898 14.07226562 12.30664062 C9.38160563 12.19957305 4.69085217 12.09827248 0 12 C0 8.04 0 4.08 0 0 Z " fill="#643C14" transform="translate(314,152)"/>
<path d="M0 0 C0.9029631 0.0028299 1.80592621 0.00565979 2.73625183 0.00857544 C5.60946109 0.01973643 8.4823543 0.04483353 11.35546875 0.0703125 C13.30793819 0.08034757 15.26041254 0.0894725 17.21289062 0.09765625 C21.98970441 0.11966242 26.76628306 0.15416419 31.54296875 0.1953125 C32.03796875 6.1353125 32.03796875 6.1353125 32.54296875 12.1953125 C30.69445312 12.19917969 30.69445312 12.19917969 28.80859375 12.203125 C17.61515977 12.39562715 8.56151063 13.33461561 -0.375 20.796875 C-8.27439353 29.02784801 -9.07904562 39.4531692 -9.20703125 50.3203125 C-9.25150391 52.18429688 -9.25150391 52.18429688 -9.296875 54.0859375 C-9.36693929 57.12205677 -9.41432201 60.15868524 -9.45703125 63.1953125 C-15.39703125 63.1953125 -21.33703125 63.1953125 -27.45703125 63.1953125 C-27.58138846 56.9697992 -27.67172733 50.74502186 -27.73168945 44.51855469 C-27.756707 42.40416861 -27.79073217 40.28986791 -27.83422852 38.17578125 C-27.89544457 35.12218058 -27.92336917 32.06973111 -27.9453125 29.015625 C-27.97111893 28.08291779 -27.99692535 27.15021057 -28.02351379 26.1892395 C-28.02641043 19.28481159 -26.37215626 13.92946106 -22.45703125 8.1953125 C-15.53101425 1.60379723 -9.35798333 -0.11090286 0 0 Z " fill="#643C14" transform="translate(143.45703125,151.8046875)"/>
<path d="M0 0 C1.11455566 -0.00630432 2.22911133 -0.01260864 3.37744141 -0.019104 C4.58577637 -0.01505554 5.79411133 -0.01100708 7.0390625 -0.00683594 C8.89217041 -0.00970612 8.89217041 -0.00970612 10.78271484 -0.01263428 C14.06997657 -0.01434704 17.35705037 -0.00627793 20.64428711 0.00488281 C22.6620078 0.00878509 24.67955451 0.00489736 26.69726562 -0.00195312 C30.56128078 -0.01427098 34.42503678 -0.01282072 38.2890625 -0.00683594 C39.49739746 -0.0108844 40.70573242 -0.01493286 41.95068359 -0.019104 C43.06523926 -0.01279968 44.17979492 -0.00649536 45.328125 0 C46.80466553 0.00238678 46.80466553 0.00238678 48.31103516 0.00482178 C50.6640625 0.25878906 50.6640625 0.25878906 52.6640625 2.25878906 C52.86263222 5.13220968 52.94235196 7.88740894 52.9140625 10.75878906 C52.92566406 11.93634766 52.92566406 11.93634766 52.9375 13.13769531 C52.91737037 19.00548119 52.91737037 19.00548119 50.6640625 21.25878906 C48.31103516 21.51275635 48.31103516 21.51275635 45.328125 21.51757812 C44.21356934 21.52388245 43.09901367 21.53018677 41.95068359 21.53668213 C40.74234863 21.53263367 39.53401367 21.52858521 38.2890625 21.52441406 C36.43595459 21.52728424 36.43595459 21.52728424 34.54541016 21.5302124 C31.25814843 21.53192517 27.97107463 21.52385605 24.68383789 21.51269531 C22.6661172 21.50879304 20.64857049 21.51268077 18.63085938 21.51953125 C14.76684422 21.5318491 10.90308822 21.53039884 7.0390625 21.52441406 C5.83072754 21.52846252 4.62239258 21.53251099 3.37744141 21.53668213 C2.26288574 21.53037781 1.14833008 21.52407349 0 21.51757812 C-0.98436035 21.51598694 -1.9687207 21.51439575 -2.98291016 21.51275635 C-5.3359375 21.25878906 -5.3359375 21.25878906 -7.3359375 19.25878906 C-7.53450722 16.38536845 -7.61422696 13.63016918 -7.5859375 10.75878906 C-7.59367188 9.97375 -7.60140625 9.18871094 -7.609375 8.37988281 C-7.58631239 1.65713322 -6.71555036 0.01085547 0 0 Z " fill="#DA9853" transform="translate(233.3359375,408.7412109375)"/>
<path d="M0 0 C12.21 0 24.42 0 37 0 C37 6.27 37 12.54 37 19 C24.79 19 12.58 19 0 19 C0 12.73 0 6.46 0 0 Z " fill="#B27C44" transform="translate(348,300)"/>
<path d="M0 0 C12.21 0 24.42 0 37 0 C37 6.27 37 12.54 37 19 C24.79 19 12.58 19 0 19 C0 12.73 0 6.46 0 0 Z " fill="#B27C44" transform="translate(127,300)"/>
<path d="M0 0 C2.08867039 2.08867039 2.67672106 3.42297319 3.75 6.125 C7.8614324 15.50749958 13.73022982 21.83309835 23.21484375 25.96484375 C25.12935531 26.68144864 27.06397933 27.34372181 29 28 C30.3465266 28.63960014 31.68922893 29.289999 33 30 C24.36815345 30.62777066 17.49334372 27.74320974 10.62890625 22.53515625 C5.06612525 17.2925353 1.69184498 10.39069125 0 3 C0 2.01 0 1.02 0 0 Z " fill="#B46B24" transform="translate(39,466)"/>
<path d="M0 0 C1.67129035 5.01387104 -0.93962727 9.32151032 -3 14 C-7.05492068 21.60657106 -13.92470048 26.79665601 -22.03515625 29.54296875 C-25.10131057 30.25616966 -27.86458146 30.19596366 -31 30 C-28.34232363 28.22821575 -26.33980212 27.35253376 -23.375 26.3125 C-14.05372989 22.63842273 -6.90371284 16.51425052 -2.8125 7.3359375 C-1.82656731 4.90533956 -0.88872378 2.46757386 0 0 Z " fill="#AC6923" transform="translate(472,466)"/>
<path d="M0 0 C1.58468677 0.45363171 3.16769924 0.91311452 4.75 1.375 C5.63171875 1.63023437 6.5134375 1.88546875 7.421875 2.1484375 C9.76080572 2.9209934 11.83442562 3.83625676 14 5 C8.78020872 5.1799928 4.92737019 4.97094808 0 3 C0 2.01 0 1.02 0 0 Z " fill="#AC6323" transform="translate(58,491)"/>
<path d="M0 0 C0 3 0 3 -2.25 5.5625 C-4.51797524 7.57275078 -6.23189141 8.87225206 -9 10 C-3.9977221 2.51708428 -3.9977221 2.51708428 0 0 Z " fill="#C06D26" transform="translate(466,481)"/>
</svg>
