<svg width="155" height="155" viewBox="0 0 155 155" fill="none" xmlns="http://www.w3.org/2000/svg">
<path d="M77.2102 0C77.2102 8.90581 77.2102 17.8116 77.2102 26.9873C74.5067 27.3054 71.8031 27.6234 69.0177 27.9511C66.9236 28.683 65.1662 29.3544 63.2347 30.3607C62.8203 30.5744 62.406 30.7881 61.9791 31.0083C53.9151 35.5091 48.7258 42.8418 46.2226 51.661C44.5839 60.5687 46.1299 69.1486 51.1322 76.6849C53.4048 79.7767 55.8641 82.4664 58.8974 84.8173C57.4978 85.9818 56.0229 86.7482 54.3771 87.5153C42.4491 93.1029 33.3176 103.321 28.6591 115.647C26.5309 121.648 25.5903 127.635 25.1633 133.973C11.5816 122.992 2.2291 104.254 0.374721 86.9859C0.242813 85.4604 0.162281 83.9376 0.103643 82.4077C0.0857832 81.9606 0.0679232 81.5134 0.0495219 81.0528C-0.720035 57.9432 7.50948 39.2489 22.6389 22.1738C36.6753 7.35955 57.203 0 77.2102 0Z" fill="#FEAA20"/>
<path d="M77.2164 0C95.6582 0 113.413 5.97947 127.336 18.3128C127.579 18.525 127.823 18.7373 128.075 18.9559C134.653 24.7009 139.841 30.9908 144.203 38.5533C144.39 38.8679 144.577 39.1824 144.769 39.5065C151.536 50.96 154.423 63.8047 154.413 77.0162C154.413 77.5676 154.413 78.1191 154.412 78.6872C154.384 82.598 154.085 86.2721 153.359 90.1183C153.306 90.5575 153.254 90.9967 153.199 91.4492C151.137 107.698 141.407 122.084 130.227 133.491C129.909 133.65 129.591 133.809 129.263 133.973C129.217 133.508 129.217 133.508 129.169 133.033C127.53 117.252 122.269 104.015 109.987 93.4918C105.574 89.9845 100.689 87.5094 95.5292 85.2992C97.7553 83.0541 97.7553 83.0541 98.7595 82.1535C104.356 77.0517 108.352 69.138 108.72 61.5648C108.941 51.3031 106.603 43.5346 99.505 35.963C92.9634 29.8341 86.0054 27.7197 77.2164 26.9873C77.2164 18.0815 77.2164 9.17568 77.2164 0Z" fill="#FE8900"/>
<path d="M99.6462 86.5216C100.235 86.8308 100.821 87.1474 101.403 87.4704C101.717 87.643 102.031 87.8157 102.355 87.9935C109.77 92.1656 116.643 98.2205 121.071 105.542C121.391 106.057 121.712 106.571 122.042 107.101C124.357 110.909 126.047 114.754 127.336 119.036C127.484 119.529 127.633 120.022 127.786 120.531C128.205 122.117 128.513 123.682 128.781 125.301C128.844 125.662 128.907 126.024 128.972 126.397C130.069 133.222 130.069 133.222 128.363 135.837C126.966 137.004 125.54 137.887 123.962 138.794C123.4 139.179 122.841 139.571 122.287 139.967C108.807 149.538 93.7202 154.216 77.2164 154.216C77.2164 133.224 77.2164 112.231 77.2164 90.6029C79.8404 90.3643 79.8404 90.3643 82.5174 90.1209C86.3804 89.2793 89.7821 87.8025 93.1911 85.8195C95.5818 84.9189 97.3635 85.5351 99.6462 86.5216Z" fill="#4B5BE5"/>
<path d="M62.0473 86.3055C62.5943 86.613 62.5943 86.613 63.1523 86.9267C67.7543 89.3281 71.9504 89.8488 77.2183 90.6013C77.2183 111.594 77.2183 132.586 77.2183 154.214C58.6918 154.214 41.9146 148.296 27.7145 136.327C26.5913 135.367 26.5913 135.367 25.1713 134.456C23.4763 123.771 29.0815 111.233 35.2057 102.775C39.3641 97.2847 44.3466 92.7285 50.2309 89.1556C50.5353 88.9701 50.8396 88.7847 51.1531 88.5937C52.1032 88.0236 53.0615 87.472 54.026 86.9267C54.3183 86.7553 54.6105 86.584 54.9116 86.4074C57.487 85.016 59.4021 85.1654 62.0473 86.3055Z" fill="#7985EA"/>
<path d="M77.2078 26.9879C77.2078 47.8211 77.2078 68.6544 77.2078 90.1189C78.9572 90.1189 80.7065 90.1189 82.5089 90.1189C82.5089 90.278 82.5089 90.437 82.5089 90.6008C71.3913 90.9412 62.5594 88.8576 54.2472 81.1639C47.9233 74.6723 45.0689 66.2255 45.1409 57.3011C45.4461 48.6389 49.3458 41.1938 55.5216 35.1805C61.9264 29.2813 68.5784 26.9879 77.2078 26.9879Z" fill="#FEDAA8"/>
<path d="M77.2164 26.9873C86.69 26.9873 93.4702 29.8314 100.288 36.2648C106.777 43.1449 109.411 50.7001 109.308 59.992C108.953 69.3632 104.649 76.9848 97.9388 83.3721C96.5596 84.4905 95.1555 85.4081 93.6015 86.2636C93.2151 86.4798 92.8287 86.696 92.4306 86.9187C87.1593 89.7104 83.4791 90.1189 77.2164 90.1189C77.2164 69.2857 77.2164 48.4519 77.2164 26.9873Z" fill="#FEC372"/>
</svg>
