<svg width="83" height="92" viewBox="0 0 83 92" fill="none" xmlns="http://www.w3.org/2000/svg">
<path d="M32.008 0.0541456C32.7097 0.048056 33.4113 0.0380133 34.1129 0.0238664C38.6577 -0.0671049 42.4031 -0.0410133 46.2266 2.83208C49.2609 6.19066 50.2326 8.88059 50.2054 13.4687C50.1277 14.9099 49.8089 16.1446 49.433 17.5319C49.3094 18.9727 49.3452 19.2409 50.1455 20.4848C50.4378 22.5491 50.2254 24.2761 49.0768 26.0216C47.4563 27.7786 46.3429 28.1155 44.0891 28.2363C44.0597 28.556 44.0303 28.8758 44 29.2052C43.5816 31.1558 42.6671 32.4171 41.1721 33.6346C40.1464 34.532 40.0297 34.7111 39.8139 35.9877C40.0173 35.993 40.2208 35.9982 40.4304 36.0036C46.1327 36.3511 51.2546 39.5311 55.1332 43.7392C56.3058 45.2523 57.4991 46.796 58.3396 48.5377C58.3791 48.1881 58.4185 47.8384 58.4591 47.4781C58.6077 46.164 58.7583 44.8501 58.9093 43.5363C58.9741 42.9708 59.0383 42.4052 59.1021 41.8396C60.1942 32.1551 60.1942 32.1551 62.971 29.3436C62.7345 29.1243 62.498 28.9049 62.2543 28.6789C59.3633 25.8672 57.5196 22.9734 57.1985 18.8079C57.1321 14.9319 57.9131 11.9267 60.4772 9.04219C63.1504 6.23816 65.8205 4.64737 69.651 4.54357C73.5211 4.60297 76.5933 5.81071 79.4482 8.55772C82.125 11.4805 83.0445 14.7248 82.9984 18.6738C82.7435 22.2463 81.3048 25.2677 78.758 27.6595C77.5341 28.8566 77.2855 29.8191 77.0226 31.5079C76.5864 33.6955 74.9886 35.1342 73.3027 36.3569C72.1003 36.6568 72.1003 36.6568 71.1651 36.726C71.171 37.0823 71.171 37.0823 71.177 37.4458C71.2021 40.1729 71.0488 42.8584 70.8256 45.5747C70.7713 46.2412 70.7713 46.2412 70.716 46.9211C70.6391 47.8545 70.5612 48.7879 70.4823 49.7212C70.3638 51.1414 70.253 52.5621 70.1422 53.9829C70.0662 54.8945 69.9897 55.806 69.9126 56.7174C69.881 57.1378 69.8494 57.5581 69.8168 57.9912C69.4837 61.7427 68.6566 64.8844 65.913 67.4752C63.6027 69.2725 61.1937 69.8517 58.3271 69.7447C55.5474 69.3045 53.884 67.9139 51.9269 65.8862C51.8093 74.4128 51.6917 82.9395 51.5706 91.7244C39.5206 91.8137 39.5206 91.8137 34.4692 91.8326C30.982 91.8457 27.4949 91.8612 24.0077 91.8915C21.468 91.9136 18.9283 91.9279 16.3885 91.9328C15.044 91.9357 13.6999 91.9425 12.3555 91.9586C11.0889 91.9737 9.82275 91.9783 8.55613 91.9749C7.87198 91.9758 7.18787 91.9877 6.50381 92C3.13723 91.9751 3.13723 91.9751 1.59837 90.6475C0.332763 89.3128 0.219905 88.4222 0.194231 86.5601C0.187359 86.0956 0.180486 85.631 0.173405 85.1524C0.168129 84.6425 0.163223 84.1325 0.158657 83.6226C0.156316 83.3659 0.153975 83.1092 0.151563 82.8447C0.139949 81.4847 0.131239 80.1247 0.124301 78.7647C0.117965 77.6414 0.105578 76.5185 0.0877697 75.3954C0.0662651 74.0375 0.0553652 72.6799 0.0519183 71.3218C0.0488785 70.8057 0.0421923 70.2896 0.0317012 69.7736C-0.0555843 65.2345 -0.0555837 65.2345 1.30669 63.542C2.61797 62.2396 3.49342 62.1521 5.30083 62.172C5.69118 62.1753 6.08154 62.1787 6.48373 62.1821C6.93425 62.1885 6.93425 62.1885 7.39388 62.1951C7.37321 61.784 7.35254 61.3729 7.33125 60.9493C7.09918 54.2647 8.76941 48.3743 13.1609 43.3009C16.8031 39.2666 20.836 37.0701 25.9196 35.6186C25.9196 35.2532 25.9196 34.8878 25.9196 34.5113C25.3246 33.8845 25.3246 33.8845 24.5613 33.2886C23.3213 32.2107 22.5543 31.3259 22.0007 29.7128C22.0007 29.2255 22.0007 28.7383 22.0007 28.2363C21.6921 28.2667 21.3835 28.2972 21.0655 28.3286C19.1747 28.1834 18.1448 27.2411 16.9017 25.8139C16.075 24.5768 15.8892 23.6172 15.8774 22.1458C15.8724 21.8604 15.8673 21.5749 15.8621 21.2807C15.9442 20.4848 15.9442 20.4848 16.6567 19.3775C16.6791 18.5799 16.6791 18.5799 16.5454 17.7395C16.51 17.4583 16.4747 17.1771 16.4382 16.8874C16.3162 16.0698 16.3162 16.0698 16.1126 15.3431C15.3592 11.9242 16.0145 8.6749 17.6365 5.67399C21.7017 0.292146 25.7751 0.093682 32.008 0.0541456ZM20.776 6.22767C19.0002 8.65127 18.521 10.8559 18.7943 13.8407C18.9791 14.8537 19.2236 15.8032 19.5068 16.7936C20.5433 16.8366 21.074 16.858 22.0007 16.4245C22.6205 15.5355 23.0895 14.609 23.5844 13.6403C24.3993 12.306 25.2575 11.8836 26.6321 11.2569C27.3375 12.3532 27.3375 12.3532 28.0572 13.4716C27.7596 13.5858 27.7596 13.5858 27.456 13.7023C26.1377 14.5144 25.1827 15.7367 24.4945 17.1628C24.4108 18.7166 24.4132 20.2719 24.409 21.8279C24.4055 22.5992 24.3945 23.3702 24.3832 24.1414C24.3809 24.6355 24.379 25.1295 24.3776 25.6236C24.3743 26.0712 24.371 26.5189 24.3676 26.9801C24.532 28.6071 25.027 29.8558 26.1103 31.058C28.4055 32.8765 29.9383 32.7448 32.7777 32.758C33.1814 32.7656 33.585 32.7732 34.0009 32.781C36.394 32.7927 38.1944 32.7521 40.0435 31.0047C41.7596 28.7212 41.7026 26.8778 41.7511 24.0837C41.7755 23.5163 41.7755 23.5163 41.8005 22.9374C41.8274 21.0515 41.8035 19.7384 40.6085 18.2514C39.7973 17.4265 38.9496 16.7097 37.988 16.0785C35.647 14.3334 35.0516 11.8546 34.4699 9.04219C35.4105 9.04219 36.351 9.04219 37.32 9.04219C37.3494 9.42284 37.3788 9.80349 37.4091 10.1957C37.9277 12.9719 39.4755 14.3708 41.6606 15.9026C43.258 16.7335 44.8175 16.818 46.5829 16.7936C47.438 13.8034 47.8474 11.1324 46.5606 8.21167C45.1685 5.62356 43.2642 4.03157 40.5264 3.13631C39.3947 2.9762 38.2761 2.96357 37.135 2.96329C36.6547 2.95907 36.6547 2.95907 36.1648 2.95477C35.4902 2.9508 34.8156 2.94972 34.1411 2.95139C33.1182 2.95175 32.0963 2.93638 31.0736 2.92003C26.998 2.8923 23.7473 3.00767 20.776 6.22767ZM63.0392 10.4004C61.7204 11.9338 60.543 13.5331 60.4104 15.6402C60.4324 15.899 60.4545 16.1578 60.4772 16.4245C61.3002 16.4245 62.1231 16.4245 62.971 16.4245C62.971 17.399 62.971 18.3735 62.971 19.3775C62.1481 19.3775 61.3251 19.3775 60.4772 19.3775C60.6269 21.8585 61.4606 23.6702 63.1325 25.4722C64.5401 26.7502 66.0186 27.8083 67.9142 27.9364C68.164 27.9135 68.4139 27.8907 68.6713 27.8672C68.6713 27.0145 68.6713 26.1618 68.6713 25.2833C69.6118 25.2833 70.5523 25.2833 71.5214 25.2833C71.5214 26.136 71.5214 26.9887 71.5214 27.8672C74.131 27.6982 76.1165 26.6231 77.8673 24.5912C79.0216 22.8828 79.7154 21.514 79.7154 19.3775C78.8925 19.3775 78.0695 19.3775 77.2216 19.3775C77.2216 18.403 77.2216 17.4285 77.2216 16.4245C78.0446 16.4245 78.8675 16.4245 79.7154 16.4245C79.6106 13.3821 78.4526 11.7287 76.3532 9.66507C74.7627 8.57986 73.4374 7.93483 71.5214 7.93483C71.5214 8.7875 71.5214 9.64016 71.5214 10.5187C70.5808 10.5187 69.6403 10.5187 68.6713 10.5187C68.6713 9.66599 68.6713 8.81333 68.6713 7.93483C66.4021 7.79848 64.684 8.81777 63.0392 10.4004ZM19.6182 20.1618C18.725 21.1477 18.725 21.1477 18.5717 22.3304C18.8678 23.8031 19.4508 24.3618 20.5756 25.2833C20.9283 25.2833 21.281 25.2833 21.6444 25.2833C21.6444 23.3344 21.6444 21.3855 21.6444 19.3775C20.5119 19.263 20.5119 19.263 19.6182 20.1618ZM44.4453 19.3775C44.4453 21.3264 44.4453 23.2753 44.4453 25.2833C46.1492 25.0981 46.1492 25.0981 46.8724 24.2913C47.4386 23.1489 47.4955 22.4927 47.2954 21.2231C46.5159 20.1384 46.5159 20.1384 45.5141 19.3775C45.1614 19.3775 44.8087 19.3775 44.4453 19.3775ZM69.0498 30.9124C68.7699 30.9176 68.49 30.9229 68.2016 30.9282C66.3244 31.0096 65.1436 31.3305 63.6836 32.6657C63.441 33.4309 63.441 33.4309 63.3273 34.1422C64.4628 34.1746 65.5983 34.1941 66.7341 34.2114C67.053 34.2206 67.372 34.2299 67.7006 34.2395C70.0229 34.2659 71.7496 33.9948 73.6367 32.4811C74.1182 31.8899 74.1182 31.8899 74.0152 30.8201C72.3583 30.8063 70.7054 30.848 69.0498 30.9124ZM29.126 35.6186C29.5064 37.5896 29.763 37.9259 31.1077 39.2406C31.4021 39.5323 31.6964 39.8239 31.9997 40.1245C32.2271 40.3429 32.4544 40.5613 32.6886 40.7863C33.8805 40.2467 34.7016 39.5596 35.6278 38.6177C35.8795 38.3674 36.1311 38.1171 36.3904 37.8593C37.1095 37.0621 37.1095 37.0621 36.9638 35.6186C34.3773 35.6186 31.7908 35.6186 29.126 35.6186ZM15.5782 44.7716C11.4059 49.2022 10.1107 55.1051 10.112 61.0632C10.1104 61.8628 10.0975 62.6616 10.0839 63.461C10.0334 69.9247 11.8534 75.4137 16.1919 80.1737C18.6751 82.7813 18.6751 82.7813 21.6444 84.7112C22.7406 84.4612 22.7406 84.4612 23.1544 83.6313C23.2807 83.3405 23.407 83.0498 23.5371 82.7503C23.668 82.4624 23.7989 82.1745 23.9337 81.878C24.2106 81.0335 24.2106 81.0335 23.9142 80.2688C23.3283 79.3989 22.6645 78.74 21.9116 78.021C17.5031 73.534 16.3045 68.1107 16.1877 61.9182C16.1803 61.5865 16.1729 61.2548 16.1653 60.913C16.1422 59.8639 16.1211 58.8148 16.1001 57.7657C16.0847 57.05 16.0691 56.3344 16.0535 55.6187C16.0155 53.8736 15.9794 52.1285 15.9442 50.3833C16.8847 50.3833 17.8253 50.3833 18.7943 50.3833C18.7943 54.2812 18.7943 58.1791 18.7943 62.1951C21.6159 62.1951 24.4375 62.1951 27.3447 62.1951C27.521 60.3679 27.521 60.3679 27.7009 58.5039C28.4371 57.4167 28.4371 57.4167 29.3264 56.6122C29.6207 56.3371 29.9151 56.0621 30.2184 55.7788C30.4457 55.5818 30.6731 55.3848 30.9073 55.1818C30.4445 53.8894 29.8911 52.7857 29.1705 51.6291C26.8039 47.5504 26.2955 43.5992 25.9196 38.9407C21.972 38.9407 18.371 42.207 15.5782 44.7716ZM62.6148 37.0951C62.3153 39.6287 62.0175 42.1625 61.7211 44.6964C61.6203 45.5563 61.519 46.4161 61.4173 47.2759C60.6168 53.9823 60.6168 53.9823 60.1209 60.7186C59.1804 60.7186 58.2399 60.7186 57.2708 60.7186C57.3264 60.4288 57.382 60.1391 57.4392 59.8405C57.5086 59.4527 57.5779 59.0649 57.6494 58.6654C57.7196 58.2843 57.7899 57.9031 57.8623 57.5104C58.2637 53.4611 56.0746 49.6869 53.775 46.5537C50.5954 42.7041 46.4083 40.0017 41.5952 38.9407C41.1249 38.9407 40.6547 38.9407 40.1702 38.9407C40.1435 39.3561 40.1169 39.7715 40.0894 40.1994C39.6019 46.5153 37.8796 51.8237 33.3371 56.3252C33.1418 56.5193 32.9464 56.7133 32.7451 56.9132C32.3601 57.2883 31.9686 57.6564 31.5702 58.0161C30.4964 59.0426 30.2043 59.5003 30.0723 61.0358C30.1127 61.4184 30.1531 61.8009 30.1948 62.1951C30.6312 62.1973 30.6312 62.1973 31.0766 62.1997C32.4009 62.2118 33.7247 62.2379 35.0489 62.2643C35.7357 62.2675 35.7357 62.2675 36.4363 62.2708C40.2357 62.3625 40.2357 62.3625 41.5368 63.4596C42.6806 64.8694 42.713 65.5789 42.7371 67.4004C42.7478 68.1097 42.7478 68.1097 42.7587 68.8334C42.7647 69.3515 42.7707 69.8696 42.7767 70.3877C42.784 70.9163 42.7915 71.4449 42.7992 71.9735C42.8188 73.3655 42.8364 74.7576 42.8536 76.1497C42.8715 77.5698 42.8913 78.99 42.911 80.4101C42.9493 83.1972 42.9853 85.9844 43.0203 88.7715C44.9013 88.7715 46.7824 88.7715 48.7205 88.7715C48.7205 76.1034 48.7205 63.4353 48.7205 50.3833C49.661 50.3833 50.6016 50.3833 51.5706 50.3833C51.5575 50.6265 51.5445 50.8698 51.531 51.1204C51.1332 58.0309 51.1332 58.0309 54.0644 64.0406C55.2548 65.3871 56.6725 66.4798 58.4454 66.7485C60.8851 66.7887 62.7603 66.3792 64.5868 64.6217C66.0041 62.9649 66.5803 61.3241 66.7781 59.1526C66.8137 58.7754 66.8493 58.3982 66.886 58.0095C66.9213 57.605 66.9566 57.2005 66.9929 56.7837C67.0315 56.3626 67.07 55.9415 67.1097 55.5077C67.1906 54.6164 67.2702 53.725 67.3485 52.8335C67.4677 51.4812 67.5918 50.1295 67.7166 48.7778C67.7948 47.9091 67.8728 47.0404 67.9504 46.1716C67.9871 45.7724 68.0238 45.3731 68.0617 44.9617C68.2896 42.329 68.3463 39.7385 68.315 37.0951C66.4339 37.0951 64.5529 37.0951 62.6148 37.0951ZM32.6886 46.6921C31.5368 48.5743 31.5368 48.5743 31.4417 50.7063C32.0278 51.5665 32.4559 51.8698 33.4011 52.2289C34.2048 51.4501 34.2048 51.4501 34.8262 50.3833C34.5614 49.0391 34.0268 47.8961 33.4011 46.6921C33.166 46.6921 32.9309 46.6921 32.6886 46.6921ZM3.11871 65.8862C2.8009 68.5204 3.65638 70.8715 5.13104 73.0148C6.21229 74.3454 7.26059 75.5039 8.81893 76.2215C9.17163 76.2215 9.52433 76.2215 9.88772 76.2215C9.72487 75.6523 9.56147 75.0833 9.39786 74.5144C9.30693 74.1975 9.216 73.8806 9.12231 73.5541C8.91478 72.8538 8.69026 72.1587 8.45153 71.4691C8.06533 70.1784 7.87631 68.9325 7.70561 67.5934C7.6459 67.1338 7.5862 66.6741 7.52469 66.2006C7.48152 65.8532 7.43835 65.5059 7.39388 65.148C6.81507 65.1281 6.23609 65.1138 5.65709 65.1019C5.3347 65.0933 5.01231 65.0847 4.68015 65.0759C3.76423 65.0582 3.76423 65.0582 3.11871 65.8862ZM19.1506 65.148C19.1444 65.6117 19.1381 66.0754 19.1317 66.5532C19.1282 66.814 19.1247 67.0749 19.1211 67.3436C19.2467 70.5701 21.4394 73.5343 23.4258 75.8524C23.6145 76.0865 23.8032 76.3206 23.9977 76.5618C24.582 77.2722 24.582 77.2722 25.5633 78.0671C26.6019 78.0426 27.1414 77.8033 28.0572 77.3289C28.7172 77.2809 29.3779 77.2441 30.0389 77.2135C33.1394 76.9564 35.4665 75.8846 37.7487 73.681C39.2574 71.8391 40.2535 69.5871 40.326 67.1551C40.2944 65.8644 40.2944 65.8644 39.4576 65.148C38.564 65.0399 38.564 65.0399 37.5126 65.0642C37.1061 65.0642 36.6996 65.0643 36.2808 65.0644C35.8403 65.0682 35.3997 65.072 34.9459 65.0759C34.2713 65.0775 34.2713 65.0775 33.5831 65.0791C32.387 65.0825 31.1911 65.0891 29.9951 65.0973C28.7749 65.1049 27.5546 65.1082 26.3343 65.112C23.9397 65.1201 21.5452 65.1325 19.1506 65.148ZM3.11871 75.1142C3.10112 76.9405 3.08818 78.7668 3.07957 80.5933C3.07598 81.2148 3.07112 81.8364 3.06496 82.4579C3.05633 83.3504 3.05228 84.2427 3.04913 85.1351C3.04545 85.4139 3.04177 85.6927 3.03798 85.9799C3.03784 86.6649 3.07516 87.3497 3.11871 88.0333C3.76247 88.8555 3.76247 88.8555 4.6608 88.8603C5.18057 88.8578 5.18057 88.8578 5.71084 88.8553C6.10308 88.8553 6.49533 88.8552 6.89946 88.8551C7.53685 88.8494 7.53685 88.8494 8.18712 88.8436C8.62103 88.8426 9.05494 88.8415 9.50201 88.8404C10.8924 88.8363 12.2827 88.827 13.673 88.8176C14.6138 88.8139 15.5545 88.8106 16.4953 88.8076C18.8055 88.7994 21.1156 88.787 23.4258 88.7715C22.4356 87.9823 21.5169 87.4059 20.3752 86.8798C17.6836 85.5122 15.236 83.5755 13.4504 81.0662C12.3651 79.6533 11.1154 79.4575 9.46466 79.0764C6.94397 78.3945 5.07305 76.8161 3.11871 75.1142ZM38.5447 76.3138C37.1547 77.5977 35.8092 78.3902 34.1137 79.1745C34.4014 80.7554 35.1474 81.3808 36.2512 82.4965C36.8906 83.5781 37.0535 84.3723 37.0306 85.634C37.0271 86.0508 37.0271 86.0508 37.0236 86.4761C36.9649 87.2802 36.8198 87.9971 36.6075 88.7715C38.0362 88.8374 38.0362 88.8374 39.4576 88.7715C40.3038 88.0569 40.3038 88.0569 40.251 86.7635C40.2509 86.2207 40.2469 85.6779 40.2397 85.1351C40.2382 84.7066 40.2382 84.7066 40.2367 84.2693C40.2327 83.3554 40.2237 82.4415 40.2147 81.5276C40.2111 80.9085 40.2079 80.2895 40.2049 79.6705C40.1971 78.1516 40.1848 76.6329 40.1702 75.1142C39.4986 75.1142 39.0089 75.8658 38.5447 76.3138ZM26.6321 81.3892C25.9222 82.9509 25.3677 84.5478 24.8508 86.1877C25.6947 86.6237 26.5408 87.0533 27.3892 87.4796C27.6262 87.6028 27.8631 87.7261 28.1073 87.853C29.8285 88.7097 31.2444 89.1473 33.1339 88.4947C34.2463 87.6715 34.4237 86.8384 34.6481 85.4725C34.4529 84.2342 34.3207 84.0615 33.4457 83.2809C32.4585 82.4273 32.4585 82.4273 31.6198 82.4965C31.6345 82.2072 31.6492 81.9179 31.6644 81.6199C31.7222 80.5914 31.7222 80.5914 30.9073 79.9127C29.1649 79.6665 27.7728 79.9666 26.6321 81.3892Z" fill="#040403"/>
<path d="M62.6148 37.0951C64.4959 37.0951 66.3769 37.0951 68.315 37.0951C68.3485 40.1334 68.2391 43.1076 67.9754 46.1327C67.9393 46.5536 67.9031 46.9746 67.8659 47.4083C67.7891 48.2906 67.7112 49.1727 67.6322 50.0548C67.5133 51.3995 67.4027 52.7448 67.2921 54.0903C67.2161 54.9521 67.1396 55.8139 67.0625 56.6756C67.0309 57.0744 66.9993 57.4732 66.9667 57.884C66.7005 60.7081 66.1786 63.1581 64.0621 65.1019C61.9771 66.6008 60.1501 67.0144 57.6271 66.6245C54.7788 65.4037 53.2812 63.097 51.9523 60.3205C51.2822 58.4274 51.3834 56.5731 51.4593 54.582C51.4673 54.1762 51.4753 53.7703 51.4836 53.3521C51.5044 52.362 51.5335 51.3729 51.5706 50.3833C50.6301 50.3833 49.6895 50.3833 48.7205 50.3833C48.7205 63.0514 48.7205 75.7195 48.7205 88.7715C46.8394 88.7715 44.9583 88.7715 43.0203 88.7715C43.0188 88.0675 43.0173 87.3634 43.0158 86.6381C43.0089 84.3073 42.9938 81.9766 42.9732 79.6459C42.961 78.2333 42.952 76.8208 42.9506 75.4081C42.9491 74.0438 42.9389 72.6798 42.9228 71.3156C42.9182 70.7961 42.9167 70.2766 42.9183 69.7571C43.0387 66.5451 43.0387 66.5451 41.8021 63.7272C40.4282 62.5408 39.6906 62.5053 37.9184 62.4474C37.4707 62.4319 37.0229 62.4165 36.5616 62.4005C36.0918 62.386 35.622 62.3715 35.1379 62.3566C34.6606 62.3406 34.1832 62.3245 33.7059 62.3083C32.5356 62.269 31.3652 62.2313 30.1948 62.1951C30.0386 60.9807 29.9182 60.0204 30.6222 58.979C31.2374 58.3298 31.8752 57.7227 32.5327 57.1197C37.8174 51.9517 39.636 46.2998 40.1702 38.9407C44.0938 39.3476 47.3617 40.9117 50.5018 43.3701C50.7388 43.5461 50.9757 43.7222 51.2199 43.9036C53.6091 45.843 55.0533 48.4402 56.5583 51.1215C56.7337 51.4284 56.9092 51.7353 57.0899 52.0515C58.1965 54.2458 58.0194 56.1093 57.6271 58.5039C57.5279 59.1776 57.5279 59.1776 57.4267 59.865C57.3752 60.1467 57.3238 60.4284 57.2708 60.7186C58.2114 60.7186 59.1519 60.7186 60.1209 60.7186C60.1458 60.4358 60.1708 60.1529 60.1964 59.8615C60.8724 52.2543 61.6962 44.6748 62.6148 37.0951Z" fill="#F9D56F"/>
<path d="M25.9196 38.9407C25.9462 39.3561 25.9729 39.7714 26.0003 40.1994C26.4161 45.5713 27.6903 50.0822 30.9073 54.4436C30.2977 55.9098 29.4389 56.6468 28.2562 57.6301C27.3895 58.8468 27.3895 58.8468 27.3447 62.1951C24.523 62.1951 21.7014 62.1951 18.7943 62.1951C18.7943 58.2972 18.7943 54.3993 18.7943 50.3833C17.8538 50.3833 16.9132 50.3833 15.9442 50.3833C15.9778 52.4711 16.0156 54.5588 16.0573 56.6464C16.0708 57.3552 16.0833 58.064 16.0945 58.7728C16.111 59.7973 16.1316 60.8217 16.153 61.8461C16.1571 62.1581 16.1612 62.4701 16.1654 62.7915C16.3362 70.0938 19.1226 75.3281 24.1383 80.2818C23.977 80.8131 23.8132 81.3435 23.6484 81.8736C23.512 82.3168 23.512 82.3168 23.3729 82.769C23.0695 83.6039 23.0695 83.6039 22.357 84.7112C18.3583 83.4165 14.8544 79.4365 12.8617 75.7616C10.8225 71.4441 10.1635 67.7749 10.1388 63.0211C10.1348 62.4756 10.1275 61.9302 10.1169 61.3849C9.98993 54.8331 11.6231 49.136 16.0541 44.2655C18.6245 41.8652 22.3486 38.9407 25.9196 38.9407Z" fill="#F9D46E"/>
<path d="M68.6713 7.93483C68.6713 8.7875 68.6713 9.64016 68.6713 10.5187C69.6118 10.5187 70.5523 10.5187 71.5214 10.5187C71.5214 9.66599 71.5214 8.81333 71.5214 7.93483C73.916 8.0899 75.6646 8.95367 77.4039 10.6859C78.6374 12.1443 79.6586 13.6762 79.7822 15.6401C79.7492 16.0284 79.7492 16.0284 79.7154 16.4245C78.8925 16.4245 78.0695 16.4245 77.2216 16.4245C77.2216 17.399 77.2216 18.3735 77.2216 19.3775C78.0446 19.3775 78.8675 19.3775 79.7154 19.3775C79.5523 22.0812 78.5147 24.1384 76.5536 25.9524C74.9046 27.1483 73.5835 27.8672 71.5214 27.8672C71.5214 27.0145 71.5214 26.1618 71.5214 25.2833C70.5808 25.2833 69.6403 25.2833 68.6713 25.2833C68.6713 26.136 68.6713 26.9887 68.6713 27.8672C65.7348 27.7585 64.139 26.5588 62.1472 24.3836C61.0998 22.7357 60.4772 21.3626 60.4772 19.3775C61.3002 19.3775 62.1231 19.3775 62.971 19.3775C62.971 18.403 62.971 17.4285 62.971 16.4245C62.1481 16.4245 61.3251 16.4245 60.4772 16.4245C60.5666 13.8316 61.2856 12.4217 62.971 10.5186C64.6261 8.93245 66.3487 7.72251 68.6713 7.93483ZM68.6713 13.4716C68.6662 13.7433 68.6611 14.015 68.6559 14.2949C68.4999 17.6031 68.4999 17.6031 67.4021 18.7084C66.9722 19.0396 66.9722 19.0396 66.5337 19.3775C67.0294 20.6616 67.4715 21.0313 68.6713 21.5922C69.8267 20.7317 70.737 19.8761 71.5214 18.6392C71.7675 16.8882 71.6928 15.2281 71.5214 13.4716C70.5808 13.4716 69.6403 13.4716 68.6713 13.4716Z" fill="#67D3F1"/>
<path d="M27.7009 11.9951C28.1712 11.9951 28.6414 11.9951 29.126 11.9951C29.2637 12.3106 29.4015 12.6261 29.5435 12.9511C29.729 13.3589 29.9145 13.7666 30.1057 14.1868C30.2876 14.5936 30.4694 15.0004 30.6568 15.4195C31.1645 16.459 31.1645 16.459 32.0039 16.7951C32.7759 16.8769 32.7759 16.8769 33.4011 16.0554C33.2754 14.785 33.0285 14.1845 32.3323 13.1025C32.3323 12.737 32.3323 12.3716 32.3323 11.9951C33.2729 11.9951 34.2134 11.9951 35.1824 11.9951C35.3368 12.4138 35.4911 12.8326 35.65 13.264C36.5529 15.1722 38.0039 16.2439 39.6149 17.503C40.7344 18.4451 41.5038 19.1441 41.7335 20.6584C41.7347 20.9922 41.7359 21.3261 41.7371 21.67C41.7392 22.2225 41.7392 22.2225 41.7413 22.786C41.7372 23.1686 41.7331 23.5511 41.7288 23.9453C41.7329 24.325 41.7371 24.7047 41.7413 25.0959C41.7325 27.456 41.5935 29.2389 39.992 31.058C37.6848 32.9194 35.7576 32.7562 32.9335 32.781C32.5315 32.7917 32.1294 32.8024 31.7151 32.8135C29.4325 32.8316 27.9946 32.8102 26.2759 31.1892C24.1976 28.8032 24.4065 26.6341 24.3894 23.5433C24.3853 23.0289 24.378 22.5145 24.3675 22.0001C24.3522 21.2541 24.3465 20.5086 24.3428 19.7624C24.3376 19.3172 24.3325 18.8719 24.3271 18.4131C24.6074 16.3201 25.8297 14.8319 27.3446 13.4716C27.5798 13.4716 27.8149 13.4716 28.0572 13.4716C27.9396 12.9844 27.822 12.4971 27.7009 11.9951ZM35.895 25.2833C35.5423 25.8315 35.5423 25.8315 35.1824 26.3907C34.5129 26.5503 34.5129 26.5503 33.7101 26.5796C33.423 26.5927 33.136 26.6057 32.8403 26.6192C32.3905 26.6317 32.3905 26.6317 31.9315 26.6445C31.4776 26.6634 31.4776 26.6634 31.0144 26.6827C30.2664 26.7132 29.518 26.7371 28.7697 26.7598C28.7697 27.7343 28.7697 28.7087 28.7697 29.7127C29.905 29.7777 31.0399 29.8166 32.1765 29.8512C32.6549 29.879 32.6549 29.879 33.143 29.9074C35.2629 29.9557 36.3898 29.6175 37.9414 28.0993C38.6041 27.2087 38.7197 26.3887 38.7451 25.2833C38.2895 25.2605 37.8339 25.2377 37.3646 25.2141C37.1083 25.2013 36.852 25.1884 36.588 25.1752C36.3593 25.2109 36.1306 25.2466 35.895 25.2833Z" fill="#E0C2A8"/>
<path d="M28.9548 2.96327C29.2749 2.96046 29.5951 2.95765 29.9249 2.95476C30.5995 2.95079 31.2741 2.94971 31.9487 2.95138C32.9715 2.95174 33.9934 2.93637 35.0162 2.92002C41.8969 2.8732 41.8969 2.8732 44.7573 5.62468C46.4368 7.4447 47.3433 9.4409 47.4068 11.972C47.3591 13.6699 47.0477 15.1684 46.5829 16.7936C43.6777 16.8868 41.8483 16.1809 39.5745 14.3064C38.3885 13.1126 37.866 12.1349 37.32 10.5186C37.32 10.0314 37.32 9.54419 37.32 9.04219C36.3795 9.04219 35.439 9.04219 34.4699 9.04219C34.6463 10.5039 34.6463 10.5039 34.8262 11.9951C34.0032 11.9951 33.1802 11.9951 32.3323 11.9951C32.2148 12.2387 32.0972 12.4823 31.9761 12.7333C31.8585 11.5153 31.7409 10.2972 31.6198 9.04217C30.6793 9.04217 29.7387 9.04217 28.7697 9.04217C28.8873 10.0166 29.0048 10.9911 29.126 11.9951C28.3021 12.2489 28.3021 12.2489 27.3447 12.3642C26.7504 11.8178 26.7504 11.8178 26.2759 11.2569C24.6251 12.2965 23.7291 13.0357 22.8914 14.8558C22.4753 15.7252 22.4752 15.7252 22.0007 16.4245C20.6424 16.8167 20.6424 16.8167 19.5068 16.7936C18.6517 13.8034 18.2424 11.1324 19.5291 8.21166C21.6284 4.30879 24.7977 2.96429 28.9548 2.96327Z" fill="#636B76"/>
<path d="M19.1506 65.148C21.786 65.1309 24.4214 65.1178 27.0568 65.1097C28.2805 65.1059 29.5041 65.1007 30.7278 65.0923C32.1338 65.0828 33.5398 65.0792 34.9459 65.0759C35.3864 65.0721 35.8269 65.0683 36.2808 65.0644C36.6873 65.0643 37.0938 65.0642 37.5126 65.0642C37.8718 65.0626 38.2309 65.0609 38.601 65.0592C39.4576 65.148 39.4576 65.148 40.1701 65.8862C40.5775 68.7354 39.51 70.8976 38.0326 73.2686C36.1801 75.5117 34.0816 76.7659 31.2524 77.0794C30.5128 77.1362 29.7723 77.1821 29.0313 77.215C28.0622 77.2675 28.0622 77.2675 27.3057 77.7311C26.6321 78.0671 26.6321 78.0671 25.9168 78.008C22.7912 76.6428 20.8024 72.6059 19.5514 69.5313C18.9977 68.1004 19.14 66.6675 19.1506 65.148Z" fill="#CD9C75"/>
<path d="M3.11871 75.1142C3.27858 75.2623 3.43845 75.4104 3.60317 75.5629C5.74847 77.5154 7.91065 79.0468 10.8006 79.4282C12.7256 79.7921 13.5634 81.1458 14.7669 82.645C17.0924 85.3607 20.301 86.8838 23.4257 88.4024C23.4257 88.5242 23.4258 88.646 23.4258 88.7715C20.6482 88.7902 17.8708 88.8031 15.0932 88.8121C14.1477 88.8158 13.2022 88.8208 12.2567 88.8272C10.9001 88.8361 9.54367 88.8403 8.18712 88.8436C7.54973 88.8493 7.54973 88.8493 6.89946 88.8551C6.31109 88.8552 6.31109 88.8552 5.71084 88.8553C5.19107 88.8578 5.19107 88.8578 4.6608 88.8603C3.83124 88.7715 3.83124 88.7715 3.11871 88.0333C3.05633 87.054 3.03621 86.1139 3.04913 85.1351C3.05013 84.8494 3.05114 84.5637 3.05218 84.2693C3.05617 83.3554 3.06511 82.4415 3.07417 81.5276C3.07774 80.9085 3.081 80.2895 3.08391 79.6705C3.09178 78.1516 3.10408 76.6329 3.11871 75.1142Z" fill="#D19E6B"/>
<path d="M30.9073 79.9127C31.6198 80.6509 31.6198 80.6509 31.6644 81.6199C31.6497 81.9092 31.635 82.1984 31.6198 82.4965C31.8917 82.5955 32.1636 82.6944 32.4437 82.7964C33.8918 83.4594 33.8918 83.4594 34.4699 84.3421C34.6166 85.7702 34.5748 86.8477 33.7574 88.0333C32.5928 88.8951 31.596 88.8866 30.1948 88.7715C29.2202 88.4198 28.3107 87.9588 27.3892 87.4796C27.1439 87.3564 26.8987 87.2331 26.646 87.1061C26.0458 86.8038 25.448 86.4963 24.8508 86.1877C26.3896 81.306 26.3896 81.306 27.6787 80.351C28.8619 79.8756 29.6509 79.7352 30.9073 79.9127Z" fill="#EACBAF"/>
<path d="M39.8139 75.1142C39.9315 75.1142 40.049 75.1142 40.1702 75.1142C40.1877 76.9405 40.2007 78.7668 40.2093 80.5932C40.2129 81.2148 40.2177 81.8364 40.2239 82.4579C40.2325 83.3503 40.2366 84.2427 40.2397 85.1351C40.2434 85.4139 40.2471 85.6927 40.2509 85.9799C40.251 86.6649 40.2137 87.3497 40.1702 88.0333C39.4576 88.7715 39.4576 88.7715 38.7646 88.8436C38.0456 88.8196 37.3265 88.7955 36.6075 88.7715C36.664 88.5607 36.7205 88.3499 36.7787 88.1328C37.2068 86.1952 37.2702 84.3222 36.3403 82.5426C35.6327 81.5244 35.0761 80.9941 34.1137 80.2818C34.1137 79.9164 34.1137 79.551 34.1137 79.1745C34.3759 79.036 34.6381 78.8975 34.9083 78.7549C36.8182 77.7171 38.3851 76.7919 39.8139 75.1142Z" fill="#CE9C69"/>
<path d="M4.68015 65.0759C5.00254 65.0845 5.32493 65.093 5.65709 65.1019C6.14343 65.1119 6.14343 65.1119 6.6396 65.122C6.88851 65.1306 7.13742 65.1392 7.39388 65.148C7.4545 65.5539 7.51512 65.9597 7.57757 66.3779C8.03047 69.2818 8.5357 72.004 9.61357 74.7436C9.88772 75.4833 9.88772 75.4833 9.88772 76.2215C7.83538 75.8944 6.2125 74.4965 4.95987 72.8375C3.64285 70.6971 2.81203 68.4282 3.11871 65.8862C3.83124 65.148 3.83124 65.148 4.68015 65.0759Z" fill="#C89972"/>
<path d="M35.895 25.2833C36.588 25.1752 36.588 25.1752 37.3646 25.2141C37.8201 25.237 38.2757 25.2598 38.7451 25.2833C38.7197 26.3887 38.6041 27.2087 37.9414 28.0993C36.3898 29.6175 35.2629 29.9557 33.143 29.9074C32.824 29.8888 32.5051 29.8703 32.1765 29.8512C31.8479 29.8412 31.5193 29.8312 31.1807 29.8209C30.3762 29.795 29.5734 29.7587 28.7697 29.7127C28.7697 28.7383 28.7697 27.7638 28.7697 26.7598C29.2244 26.746 29.679 26.7322 30.1474 26.718C30.7422 26.6938 31.3369 26.6692 31.9315 26.6445C32.3814 26.632 32.3814 26.632 32.8403 26.6192C33.1273 26.6061 33.4144 26.5931 33.7101 26.5796C33.975 26.5699 34.2399 26.5602 34.5129 26.5503C35.3276 26.4397 35.3276 26.4397 35.895 25.2833Z" fill="#030202"/>
<path d="M74.0152 30.8201C73.8973 31.9604 73.658 32.2976 72.8351 33.104C71.4659 34.0608 70.3849 34.189 68.7548 34.1782C68.4379 34.177 68.121 34.1758 67.7945 34.1746C67.4666 34.1715 67.1387 34.1684 66.8009 34.1652C66.3008 34.1627 66.3008 34.1627 65.7905 34.1602C64.9694 34.1558 64.1484 34.1498 63.3273 34.1422C63.6463 33.0306 63.9172 32.4055 64.7746 31.6434C66.1988 31.0253 67.4969 30.9805 69.0275 30.9355C69.3104 30.9228 69.5933 30.9102 69.8848 30.8972C71.262 30.839 72.6367 30.8057 74.0152 30.8201Z" fill="#EACBB0"/>
<path d="M29.126 35.6186C31.7124 35.6186 34.2989 35.6186 36.9638 35.6186C36.5833 37.5896 36.3267 37.9259 34.9821 39.2406C34.6877 39.5323 34.3933 39.8239 34.09 40.1244C33.8627 40.3428 33.6354 40.5612 33.4011 40.7863C32.2093 40.2467 31.3882 39.5595 30.462 38.6177C30.2103 38.3674 29.9586 38.1171 29.6993 37.8593C29.126 37.0951 29.126 37.0951 29.126 35.6186Z" fill="#EACAAF"/>
<path d="M68.6713 13.4716C69.6118 13.4716 70.5523 13.4716 71.5214 13.4716C71.9585 17.95 71.9585 17.95 70.8868 19.6399C70.1792 20.3549 69.4734 20.9949 68.6713 21.5922C67.4715 21.0313 67.0294 20.6616 66.5337 19.3775C66.9635 19.0463 66.9635 19.0463 67.4021 18.7084C68.7977 17.3033 68.6359 15.3738 68.6713 13.4716Z" fill="#000101"/>
<path d="M28.7697 9.04217C29.7102 9.04217 30.6508 9.04217 31.6198 9.04217C31.6722 9.40332 31.6722 9.40332 31.7256 9.77176C32.082 12.0121 32.082 12.0121 33.1117 13.9791C33.7574 14.948 33.7574 14.948 33.7129 15.7786C33.4011 16.4245 33.4011 16.4245 32.6886 17.1628C31.7534 17.0913 31.3764 16.9289 30.7598 16.1895C29.3807 13.7696 28.6589 11.9124 28.7697 9.04217Z" fill="#070606"/>
<path d="M44.4453 19.3775C46.2266 19.7466 46.2266 19.7466 46.8724 20.3695C47.4386 21.5119 47.4955 22.1681 47.2954 23.4378C46.4716 24.499 46.4716 24.499 45.5141 25.2833C45.1614 25.2833 44.8087 25.2833 44.4453 25.2833C44.4453 23.3344 44.4453 21.3855 44.4453 19.3775Z" fill="#E5C6AB"/>
<path d="M21.6444 19.3775C21.6444 21.3264 21.6444 23.2753 21.6444 25.2833C19.8631 24.9142 19.8631 24.9142 19.2174 24.2913C18.6511 23.1489 18.5942 22.4927 18.7943 21.223C20.2271 19.3775 20.2271 19.3775 21.6444 19.3775Z" fill="#E5C6AC"/>
<path d="M32.6886 46.6921C32.9237 46.6921 33.1589 46.6921 33.4011 46.6921C34.8905 49.2619 34.8905 49.2619 34.6481 50.7063C34.062 51.5665 33.6339 51.8698 32.6886 52.2289C31.9316 51.4445 31.9316 51.4445 31.2636 50.3833C31.5283 49.0391 32.0629 47.8961 32.6886 46.6921Z" fill="#AAD178"/>
<path d="M32.008 0.0541456C32.7097 0.048056 33.4113 0.0380133 34.1129 0.0238664C38.6577 -0.0671049 42.4031 -0.0410133 46.2266 2.83208C49.2609 6.19066 50.2326 8.88059 50.2054 13.4687C50.1277 14.9099 49.8089 16.1446 49.433 17.5319C49.3094 18.9727 49.3452 19.2409 50.1455 20.4848C50.4378 22.5491 50.2254 24.2761 49.0768 26.0216C47.4563 27.7786 46.3429 28.1155 44.0891 28.2363C44.0597 28.556 44.0303 28.8758 44 29.2052C43.5816 31.1558 42.6671 32.4171 41.1721 33.6346C40.1464 34.532 40.0297 34.7111 39.8139 35.9877C40.0173 35.993 40.2208 35.9982 40.4304 36.0036C46.1327 36.3511 51.2546 39.5311 55.1332 43.7392C56.3058 45.2523 57.4991 46.796 58.3396 48.5377C58.3791 48.1881 58.4185 47.8384 58.4591 47.4781C58.6077 46.164 58.7583 44.8501 58.9093 43.5363C58.9741 42.9708 59.0383 42.4052 59.1021 41.8396C60.1942 32.1551 60.1942 32.1551 62.971 29.3436C62.7345 29.1243 62.498 28.9049 62.2543 28.6789C59.3633 25.8672 57.5196 22.9734 57.1985 18.8079C57.1321 14.9319 57.9131 11.9267 60.4772 9.04219C63.1504 6.23816 65.8205 4.64737 69.651 4.54357C73.5211 4.60297 76.5933 5.81071 79.4482 8.55772C82.125 11.4805 83.0445 14.7248 82.9984 18.6738C82.7435 22.2463 81.3048 25.2677 78.758 27.6595C77.5341 28.8566 77.2855 29.8191 77.0226 31.5079C76.5864 33.6955 74.9886 35.1342 73.3027 36.3569C72.1003 36.6568 72.1003 36.6568 71.1651 36.726C71.171 37.0823 71.171 37.0823 71.177 37.4458C71.2021 40.1729 71.0488 42.8584 70.8256 45.5747C70.7713 46.2412 70.7713 46.2412 70.716 46.9211C70.6391 47.8545 70.5612 48.7879 70.4823 49.7212C70.3638 51.1414 70.253 52.5621 70.1422 53.9829C70.0662 54.8945 69.9897 55.806 69.9126 56.7174C69.881 57.1378 69.8494 57.5581 69.8168 57.9912C69.4837 61.7427 68.6566 64.8844 65.913 67.4752C63.6027 69.2725 61.1937 69.8517 58.3271 69.7447C55.5474 69.3045 53.884 67.9139 51.9269 65.8862C51.8093 74.4128 51.6917 82.9395 51.5706 91.7244C39.5206 91.8137 39.5206 91.8137 34.4692 91.8326C30.982 91.8457 27.4949 91.8612 24.0077 91.8915C21.468 91.9136 18.9283 91.9279 16.3885 91.9328C15.044 91.9357 13.6999 91.9425 12.3555 91.9586C11.0889 91.9737 9.82275 91.9783 8.55613 91.9749C7.87198 91.9758 7.18787 91.9877 6.50381 92C3.13723 91.9751 3.13723 91.9751 1.59837 90.6475C0.332763 89.3128 0.219905 88.4222 0.194231 86.5601C0.187359 86.0956 0.180486 85.631 0.173405 85.1524C0.168129 84.6425 0.163223 84.1325 0.158657 83.6226C0.156316 83.3659 0.153975 83.1092 0.151563 82.8447C0.139949 81.4847 0.131239 80.1247 0.124301 78.7647C0.117965 77.6414 0.105578 76.5185 0.0877697 75.3954C0.0662651 74.0375 0.0553652 72.6799 0.0519183 71.3218C0.0488785 70.8057 0.0421923 70.2896 0.0317012 69.7736C-0.0555843 65.2345 -0.0555837 65.2345 1.30669 63.542C2.61797 62.2396 3.49342 62.1521 5.30083 62.172C5.69118 62.1753 6.08154 62.1787 6.48373 62.1821C6.93425 62.1885 6.93425 62.1885 7.39388 62.1951C7.37321 61.784 7.35254 61.3729 7.33125 60.9493C7.09918 54.2647 8.76941 48.3743 13.1609 43.3009C16.8031 39.2666 20.836 37.0701 25.9196 35.6186C25.9196 35.2532 25.9196 34.8878 25.9196 34.5113C25.3246 33.8845 25.3246 33.8845 24.5613 33.2886C23.3213 32.2107 22.5543 31.3259 22.0007 29.7128C22.0007 29.2255 22.0007 28.7383 22.0007 28.2363C21.6921 28.2667 21.3835 28.2972 21.0655 28.3286C19.1747 28.1834 18.1448 27.2411 16.9017 25.8139C16.075 24.5768 15.8892 23.6172 15.8774 22.1458C15.8724 21.8604 15.8673 21.5749 15.8621 21.2807C15.9442 20.4848 15.9442 20.4848 16.6567 19.3775C16.6791 18.5799 16.6791 18.5799 16.5454 17.7395C16.51 17.4583 16.4747 17.1771 16.4382 16.8874C16.3162 16.0698 16.3162 16.0698 16.1126 15.3431C15.3592 11.9242 16.0145 8.6749 17.6365 5.67399C21.7017 0.292146 25.7751 0.093682 32.008 0.0541456ZM20.776 6.22767C19.0002 8.65127 18.521 10.8559 18.7943 13.8407C18.9791 14.8537 19.2236 15.8032 19.5068 16.7936C20.5433 16.8366 21.074 16.858 22.0007 16.4245C22.6205 15.5355 23.0895 14.609 23.5844 13.6403C24.3993 12.306 25.2575 11.8836 26.6321 11.2569C27.3375 12.3532 27.3375 12.3532 28.0572 13.4716C27.7596 13.5858 27.7596 13.5858 27.456 13.7023C26.1377 14.5144 25.1827 15.7367 24.4945 17.1628C24.4108 18.7166 24.4132 20.2719 24.409 21.8279C24.4055 22.5992 24.3945 23.3702 24.3832 24.1414C24.3809 24.6355 24.379 25.1295 24.3776 25.6236C24.3743 26.0712 24.371 26.5189 24.3676 26.9801C24.532 28.6071 25.027 29.8558 26.1103 31.058C28.4055 32.8765 29.9383 32.7448 32.7777 32.758C33.1814 32.7656 33.585 32.7732 34.0009 32.781C36.394 32.7927 38.1944 32.7521 40.0435 31.0047C41.7596 28.7212 41.7026 26.8778 41.7511 24.0837C41.7755 23.5163 41.7755 23.5163 41.8005 22.9374C41.8274 21.0515 41.8035 19.7384 40.6085 18.2514C39.7973 17.4265 38.9496 16.7097 37.988 16.0785C35.647 14.3334 35.0516 11.8546 34.4699 9.04219C35.4105 9.04219 36.351 9.04219 37.32 9.04219C37.3494 9.42284 37.3788 9.80349 37.4091 10.1957C37.9277 12.9719 39.4755 14.3708 41.6606 15.9026C43.258 16.7335 44.8175 16.818 46.5829 16.7936C47.438 13.8034 47.8474 11.1324 46.5606 8.21167C45.1685 5.62356 43.2642 4.03157 40.5264 3.13631C39.3947 2.9762 38.2761 2.96357 37.135 2.96329C36.6547 2.95907 36.6547 2.95907 36.1648 2.95477C35.4902 2.9508 34.8156 2.94972 34.1411 2.95139C33.1182 2.95175 32.0963 2.93638 31.0736 2.92003C26.998 2.8923 23.7473 3.00767 20.776 6.22767ZM63.0392 10.4004C61.7204 11.9338 60.543 13.5331 60.4104 15.6402C60.4324 15.899 60.4545 16.1578 60.4772 16.4245C61.3002 16.4245 62.1231 16.4245 62.971 16.4245C62.971 17.399 62.971 18.3735 62.971 19.3775C62.1481 19.3775 61.3251 19.3775 60.4772 19.3775C60.6269 21.8585 61.4606 23.6702 63.1325 25.4722C64.5401 26.7502 66.0186 27.8083 67.9142 27.9364C68.164 27.9135 68.4139 27.8907 68.6713 27.8672C68.6713 27.0145 68.6713 26.1618 68.6713 25.2833C69.6118 25.2833 70.5523 25.2833 71.5214 25.2833C71.5214 26.136 71.5214 26.9887 71.5214 27.8672C74.131 27.6982 76.1165 26.6231 77.8673 24.5912C79.0216 22.8828 79.7154 21.514 79.7154 19.3775C78.8925 19.3775 78.0695 19.3775 77.2216 19.3775C77.2216 18.403 77.2216 17.4285 77.2216 16.4245C78.0446 16.4245 78.8675 16.4245 79.7154 16.4245C79.6106 13.3821 78.4526 11.7287 76.3532 9.66507C74.7627 8.57986 73.4374 7.93483 71.5214 7.93483C71.5214 8.7875 71.5214 9.64016 71.5214 10.5187C70.5808 10.5187 69.6403 10.5187 68.6713 10.5187C68.6713 9.66599 68.6713 8.81333 68.6713 7.93483C66.4021 7.79848 64.684 8.81777 63.0392 10.4004ZM19.6182 20.1618C18.725 21.1477 18.725 21.1477 18.5717 22.3304C18.8678 23.8031 19.4508 24.3618 20.5756 25.2833C20.9283 25.2833 21.281 25.2833 21.6444 25.2833C21.6444 23.3344 21.6444 21.3855 21.6444 19.3775C20.5119 19.263 20.5119 19.263 19.6182 20.1618ZM44.4453 19.3775C44.4453 21.3264 44.4453 23.2753 44.4453 25.2833C46.1492 25.0981 46.1492 25.0981 46.8724 24.2913C47.4386 23.1489 47.4955 22.4927 47.2954 21.2231C46.5159 20.1384 46.5159 20.1384 45.5141 19.3775C45.1614 19.3775 44.8087 19.3775 44.4453 19.3775ZM69.0498 30.9124C68.7699 30.9176 68.49 30.9229 68.2016 30.9282C66.3244 31.0096 65.1436 31.3305 63.6836 32.6657C63.441 33.4309 63.441 33.4309 63.3273 34.1422C64.4628 34.1746 65.5983 34.1941 66.7341 34.2114C67.053 34.2206 67.372 34.2299 67.7006 34.2395C70.0229 34.2659 71.7496 33.9948 73.6367 32.4811C74.1182 31.8899 74.1182 31.8899 74.0152 30.8201C72.3583 30.8063 70.7054 30.848 69.0498 30.9124ZM29.126 35.6186C29.5064 37.5896 29.763 37.9259 31.1077 39.2406C31.4021 39.5323 31.6964 39.8239 31.9997 40.1245C32.2271 40.3429 32.4544 40.5613 32.6886 40.7863C33.8805 40.2467 34.7016 39.5596 35.6278 38.6177C35.8795 38.3674 36.1311 38.1171 36.3904 37.8593C37.1095 37.0621 37.1095 37.0621 36.9638 35.6186C34.3773 35.6186 31.7908 35.6186 29.126 35.6186ZM15.5782 44.7716C11.4059 49.2022 10.1107 55.1051 10.112 61.0632C10.1104 61.8628 10.0975 62.6616 10.0839 63.461C10.0334 69.9247 11.8534 75.4137 16.1919 80.1737C18.6751 82.7813 18.6751 82.7813 21.6444 84.7112C22.7406 84.4612 22.7406 84.4612 23.1544 83.6313C23.2807 83.3405 23.407 83.0498 23.5371 82.7503C23.668 82.4624 23.7989 82.1745 23.9337 81.878C24.2106 81.0335 24.2106 81.0335 23.9142 80.2688C23.3283 79.3989 22.6645 78.74 21.9116 78.021C17.5031 73.534 16.3045 68.1107 16.1877 61.9182C16.1803 61.5865 16.1729 61.2548 16.1653 60.913C16.1422 59.8639 16.1211 58.8148 16.1001 57.7657C16.0847 57.05 16.0691 56.3344 16.0535 55.6187C16.0155 53.8736 15.9794 52.1285 15.9442 50.3833C16.8847 50.3833 17.8253 50.3833 18.7943 50.3833C18.7943 54.2812 18.7943 58.1791 18.7943 62.1951C21.6159 62.1951 24.4375 62.1951 27.3447 62.1951C27.521 60.3679 27.521 60.3679 27.7009 58.5039C28.4371 57.4167 28.4371 57.4167 29.3264 56.6122C29.6207 56.3371 29.9151 56.0621 30.2184 55.7788C30.4457 55.5818 30.6731 55.3848 30.9073 55.1818C30.4445 53.8894 29.8911 52.7857 29.1705 51.6291C26.8039 47.5504 26.2955 43.5992 25.9196 38.9407C21.972 38.9407 18.371 42.207 15.5782 44.7716ZM62.6148 37.0951C62.3153 39.6287 62.0175 42.1625 61.7211 44.6964C61.6203 45.5563 61.519 46.4161 61.4173 47.2759C60.6168 53.9823 60.6168 53.9823 60.1209 60.7186C59.1804 60.7186 58.2399 60.7186 57.2708 60.7186C57.3264 60.4288 57.382 60.1391 57.4392 59.8405C57.5086 59.4527 57.5779 59.0649 57.6494 58.6654C57.7196 58.2843 57.7899 57.9031 57.8623 57.5104C58.2637 53.4611 56.0746 49.6869 53.775 46.5537C50.5954 42.7041 46.4083 40.0017 41.5952 38.9407C41.1249 38.9407 40.6547 38.9407 40.1702 38.9407C40.1435 39.3561 40.1169 39.7715 40.0894 40.1994C39.6019 46.5153 37.8796 51.8237 33.3371 56.3252C33.1418 56.5193 32.9464 56.7133 32.7451 56.9132C32.3601 57.2883 31.9686 57.6564 31.5702 58.0161C30.4964 59.0426 30.2043 59.5003 30.0723 61.0358C30.1127 61.4184 30.1531 61.8009 30.1948 62.1951C30.6312 62.1973 30.6312 62.1973 31.0766 62.1997C32.4009 62.2118 33.7247 62.2379 35.0489 62.2643C35.7357 62.2675 35.7357 62.2675 36.4363 62.2708C40.2357 62.3625 40.2357 62.3625 41.5368 63.4596C42.6806 64.8694 42.713 65.5789 42.7371 67.4004C42.7478 68.1097 42.7478 68.1097 42.7587 68.8334C42.7647 69.3515 42.7707 69.8696 42.7767 70.3877C42.784 70.9163 42.7915 71.4449 42.7992 71.9735C42.8188 73.3655 42.8364 74.7576 42.8536 76.1497C42.8715 77.5698 42.8913 78.99 42.911 80.4101C42.9493 83.1972 42.9853 85.9844 43.0203 88.7715C44.9013 88.7715 46.7824 88.7715 48.7205 88.7715C48.7205 76.1034 48.7205 63.4353 48.7205 50.3833C49.661 50.3833 50.6016 50.3833 51.5706 50.3833C51.5575 50.6265 51.5445 50.8698 51.531 51.1204C51.1332 58.0309 51.1332 58.0309 54.0644 64.0406C55.2548 65.3871 56.6725 66.4798 58.4454 66.7485C60.8851 66.7887 62.7603 66.3792 64.5868 64.6217C66.0041 62.9649 66.5803 61.3241 66.7781 59.1526C66.8137 58.7754 66.8493 58.3982 66.886 58.0095C66.9213 57.605 66.9566 57.2005 66.9929 56.7837C67.0315 56.3626 67.07 55.9415 67.1097 55.5077C67.1906 54.6164 67.2702 53.725 67.3485 52.8335C67.4677 51.4812 67.5918 50.1295 67.7166 48.7778C67.7948 47.9091 67.8728 47.0404 67.9504 46.1716C67.9871 45.7724 68.0238 45.3731 68.0617 44.9617C68.2896 42.329 68.3463 39.7385 68.315 37.0951C66.4339 37.0951 64.5529 37.0951 62.6148 37.0951ZM32.6886 46.6921C31.5368 48.5743 31.5368 48.5743 31.4417 50.7063C32.0278 51.5665 32.4559 51.8698 33.4011 52.2289C34.2048 51.4501 34.2048 51.4501 34.8262 50.3833C34.5614 49.0391 34.0268 47.8961 33.4011 46.6921C33.166 46.6921 32.9309 46.6921 32.6886 46.6921ZM3.11871 65.8862C2.8009 68.5204 3.65638 70.8715 5.13104 73.0148C6.21229 74.3454 7.26059 75.5039 8.81893 76.2215C9.17163 76.2215 9.52433 76.2215 9.88772 76.2215C9.72487 75.6523 9.56147 75.0833 9.39786 74.5144C9.30693 74.1975 9.216 73.8806 9.12231 73.5541C8.91478 72.8538 8.69026 72.1587 8.45153 71.4691C8.06533 70.1784 7.87631 68.9325 7.70561 67.5934C7.6459 67.1338 7.5862 66.6741 7.52469 66.2006C7.48152 65.8532 7.43835 65.5059 7.39388 65.148C6.81507 65.1281 6.23609 65.1138 5.65709 65.1019C5.3347 65.0933 5.01231 65.0847 4.68015 65.0759C3.76423 65.0582 3.76423 65.0582 3.11871 65.8862ZM19.1506 65.148C19.1444 65.6117 19.1381 66.0754 19.1317 66.5532C19.1282 66.814 19.1247 67.0749 19.1211 67.3436C19.2467 70.5701 21.4394 73.5343 23.4258 75.8524C23.6145 76.0865 23.8032 76.3206 23.9977 76.5618C24.582 77.2722 24.582 77.2722 25.5633 78.0671C26.6019 78.0426 27.1414 77.8033 28.0572 77.3289C28.7172 77.2809 29.3779 77.2441 30.0389 77.2135C33.1394 76.9564 35.4665 75.8846 37.7487 73.681C39.2574 71.8391 40.2535 69.5871 40.326 67.1551C40.2944 65.8644 40.2944 65.8644 39.4576 65.148C38.564 65.0399 38.564 65.0399 37.5126 65.0642C37.1061 65.0642 36.6996 65.0643 36.2808 65.0644C35.8403 65.0682 35.3997 65.072 34.9459 65.0759C34.2713 65.0775 34.2713 65.0775 33.5831 65.0791C32.387 65.0825 31.1911 65.0891 29.9951 65.0973C28.7749 65.1049 27.5546 65.1082 26.3343 65.112C23.9397 65.1201 21.5452 65.1325 19.1506 65.148ZM3.11871 75.1142C3.10112 76.9405 3.08818 78.7668 3.07957 80.5933C3.07598 81.2148 3.07112 81.8364 3.06496 82.4579C3.05633 83.3504 3.05228 84.2427 3.04913 85.1351C3.04545 85.4139 3.04177 85.6927 3.03798 85.9799C3.03784 86.6649 3.07516 87.3497 3.11871 88.0333C3.76247 88.8555 3.76247 88.8555 4.6608 88.8603C5.18057 88.8578 5.18057 88.8578 5.71084 88.8553C6.10308 88.8553 6.49533 88.8552 6.89946 88.8551C7.53685 88.8494 7.53685 88.8494 8.18712 88.8436C8.62103 88.8426 9.05494 88.8415 9.50201 88.8404C10.8924 88.8363 12.2827 88.827 13.673 88.8176C14.6138 88.8139 15.5545 88.8106 16.4953 88.8076C18.8055 88.7994 21.1156 88.787 23.4258 88.7715C22.4356 87.9823 21.5169 87.4059 20.3752 86.8798C17.6836 85.5122 15.236 83.5755 13.4504 81.0662C12.3651 79.6533 11.1154 79.4575 9.46466 79.0764C6.94397 78.3945 5.07305 76.8161 3.11871 75.1142ZM38.5447 76.3138C37.1547 77.5977 35.8092 78.3902 34.1137 79.1745C34.4014 80.7554 35.1474 81.3808 36.2512 82.4965C36.8906 83.5781 37.0535 84.3723 37.0306 85.634C37.0271 86.0508 37.0271 86.0508 37.0236 86.4761C36.9649 87.2802 36.8198 87.9971 36.6075 88.7715C38.0362 88.8374 38.0362 88.8374 39.4576 88.7715C40.3038 88.0569 40.3038 88.0569 40.251 86.7635C40.2509 86.2207 40.2469 85.6779 40.2397 85.1351C40.2382 84.7066 40.2382 84.7066 40.2367 84.2693C40.2327 83.3554 40.2237 82.4415 40.2147 81.5276C40.2111 80.9085 40.2079 80.2895 40.2049 79.6705C40.1971 78.1516 40.1848 76.6329 40.1702 75.1142C39.4986 75.1142 39.0089 75.8658 38.5447 76.3138ZM26.6321 81.3892C25.9222 82.9509 25.3677 84.5478 24.8508 86.1877C25.6947 86.6237 26.5408 87.0533 27.3892 87.4796C27.6262 87.6028 27.8631 87.7261 28.1073 87.853C29.8285 88.7097 31.2444 89.1473 33.1339 88.4947C34.2463 87.6715 34.4237 86.8384 34.6481 85.4725C34.4529 84.2342 34.3207 84.0615 33.4457 83.2809C32.4585 82.4273 32.4585 82.4273 31.6198 82.4965C31.6345 82.2072 31.6492 81.9179 31.6644 81.6199C31.7222 80.5914 31.7222 80.5914 30.9073 79.9127C29.1649 79.6665 27.7728 79.9666 26.6321 81.3892Z" fill="#040403"/>
<path d="M62.6148 37.0951C64.4959 37.0951 66.3769 37.0951 68.315 37.0951C68.3485 40.1334 68.2391 43.1076 67.9754 46.1327C67.9393 46.5536 67.9031 46.9746 67.8659 47.4083C67.7891 48.2906 67.7112 49.1727 67.6322 50.0548C67.5133 51.3995 67.4027 52.7448 67.2921 54.0903C67.2161 54.9521 67.1396 55.8139 67.0625 56.6756C67.0309 57.0744 66.9993 57.4732 66.9667 57.884C66.7005 60.7081 66.1786 63.1581 64.0621 65.1019C61.9771 66.6008 60.1501 67.0144 57.6271 66.6245C54.7788 65.4037 53.2812 63.097 51.9523 60.3205C51.2822 58.4274 51.3834 56.5731 51.4593 54.582C51.4673 54.1762 51.4753 53.7703 51.4836 53.3521C51.5044 52.362 51.5335 51.3729 51.5706 50.3833C50.6301 50.3833 49.6895 50.3833 48.7205 50.3833C48.7205 63.0514 48.7205 75.7195 48.7205 88.7715C46.8394 88.7715 44.9583 88.7715 43.0203 88.7715C43.0188 88.0675 43.0173 87.3634 43.0158 86.6381C43.0089 84.3073 42.9938 81.9766 42.9732 79.6459C42.961 78.2333 42.952 76.8208 42.9506 75.4081C42.9491 74.0438 42.9389 72.6798 42.9228 71.3156C42.9182 70.7961 42.9167 70.2766 42.9183 69.7571C43.0387 66.5451 43.0387 66.5451 41.8021 63.7272C40.4282 62.5408 39.6906 62.5053 37.9184 62.4474C37.4707 62.4319 37.0229 62.4165 36.5616 62.4005C36.0918 62.386 35.622 62.3715 35.1379 62.3566C34.6606 62.3406 34.1832 62.3245 33.7059 62.3083C32.5356 62.269 31.3652 62.2313 30.1948 62.1951C30.0386 60.9807 29.9182 60.0204 30.6222 58.979C31.2374 58.3298 31.8752 57.7227 32.5327 57.1197C37.8174 51.9517 39.636 46.2998 40.1702 38.9407C44.0938 39.3476 47.3617 40.9117 50.5018 43.3701C50.7388 43.5461 50.9757 43.7222 51.2199 43.9036C53.6091 45.843 55.0533 48.4402 56.5583 51.1215C56.7337 51.4284 56.9092 51.7353 57.0899 52.0515C58.1965 54.2458 58.0194 56.1093 57.6271 58.5039C57.5279 59.1776 57.5279 59.1776 57.4267 59.865C57.3752 60.1467 57.3238 60.4284 57.2708 60.7186C58.2114 60.7186 59.1519 60.7186 60.1209 60.7186C60.1458 60.4358 60.1708 60.1529 60.1964 59.8615C60.8724 52.2543 61.6962 44.6748 62.6148 37.0951Z" fill="#F9D56F"/>
<path d="M25.9196 38.9407C25.9462 39.3561 25.9729 39.7714 26.0003 40.1994C26.4161 45.5713 27.6903 50.0822 30.9073 54.4436C30.2977 55.9098 29.4389 56.6468 28.2562 57.6301C27.3895 58.8468 27.3895 58.8468 27.3447 62.1951C24.523 62.1951 21.7014 62.1951 18.7943 62.1951C18.7943 58.2972 18.7943 54.3993 18.7943 50.3833C17.8538 50.3833 16.9132 50.3833 15.9442 50.3833C15.9778 52.4711 16.0156 54.5588 16.0573 56.6464C16.0708 57.3552 16.0833 58.064 16.0945 58.7728C16.111 59.7973 16.1316 60.8217 16.153 61.8461C16.1571 62.1581 16.1612 62.4701 16.1654 62.7915C16.3362 70.0938 19.1226 75.3281 24.1383 80.2818C23.977 80.8131 23.8132 81.3435 23.6484 81.8736C23.512 82.3168 23.512 82.3168 23.3729 82.769C23.0695 83.6039 23.0695 83.6039 22.357 84.7112C18.3583 83.4165 14.8544 79.4365 12.8617 75.7616C10.8225 71.4441 10.1635 67.7749 10.1388 63.0211C10.1348 62.4756 10.1275 61.9302 10.1169 61.3849C9.98993 54.8331 11.6231 49.136 16.0541 44.2655C18.6245 41.8652 22.3486 38.9407 25.9196 38.9407Z" fill="#F9D46E"/>
<path d="M68.6713 7.93483C68.6713 8.7875 68.6713 9.64016 68.6713 10.5187C69.6118 10.5187 70.5523 10.5187 71.5214 10.5187C71.5214 9.66599 71.5214 8.81333 71.5214 7.93483C73.916 8.0899 75.6646 8.95367 77.4039 10.6859C78.6374 12.1443 79.6586 13.6762 79.7822 15.6401C79.7492 16.0284 79.7492 16.0284 79.7154 16.4245C78.8925 16.4245 78.0695 16.4245 77.2216 16.4245C77.2216 17.399 77.2216 18.3735 77.2216 19.3775C78.0446 19.3775 78.8675 19.3775 79.7154 19.3775C79.5523 22.0812 78.5147 24.1384 76.5536 25.9524C74.9046 27.1483 73.5835 27.8672 71.5214 27.8672C71.5214 27.0145 71.5214 26.1618 71.5214 25.2833C70.5808 25.2833 69.6403 25.2833 68.6713 25.2833C68.6713 26.136 68.6713 26.9887 68.6713 27.8672C65.7348 27.7585 64.139 26.5588 62.1472 24.3836C61.0998 22.7357 60.4772 21.3626 60.4772 19.3775C61.3002 19.3775 62.1231 19.3775 62.971 19.3775C62.971 18.403 62.971 17.4285 62.971 16.4245C62.1481 16.4245 61.3251 16.4245 60.4772 16.4245C60.5666 13.8316 61.2856 12.4217 62.971 10.5186C64.6261 8.93245 66.3487 7.72251 68.6713 7.93483ZM68.6713 13.4716C68.6662 13.7433 68.6611 14.015 68.6559 14.2949C68.4999 17.6031 68.4999 17.6031 67.4021 18.7084C66.9722 19.0396 66.9722 19.0396 66.5337 19.3775C67.0294 20.6616 67.4715 21.0313 68.6713 21.5922C69.8267 20.7317 70.737 19.8761 71.5214 18.6392C71.7675 16.8882 71.6928 15.2281 71.5214 13.4716C70.5808 13.4716 69.6403 13.4716 68.6713 13.4716Z" fill="#67D3F1"/>
<path d="M27.7009 11.9951C28.1712 11.9951 28.6414 11.9951 29.126 11.9951C29.2637 12.3106 29.4015 12.6261 29.5435 12.9511C29.729 13.3589 29.9145 13.7666 30.1057 14.1868C30.2876 14.5936 30.4694 15.0004 30.6568 15.4195C31.1645 16.459 31.1645 16.459 32.0039 16.7951C32.7759 16.8769 32.7759 16.8769 33.4011 16.0554C33.2754 14.785 33.0285 14.1845 32.3323 13.1025C32.3323 12.737 32.3323 12.3716 32.3323 11.9951C33.2729 11.9951 34.2134 11.9951 35.1824 11.9951C35.3368 12.4138 35.4911 12.8326 35.65 13.264C36.5529 15.1722 38.0039 16.2439 39.6149 17.503C40.7344 18.4451 41.5038 19.1441 41.7335 20.6584C41.7347 20.9922 41.7359 21.3261 41.7371 21.67C41.7392 22.2225 41.7392 22.2225 41.7413 22.786C41.7372 23.1686 41.7331 23.5511 41.7288 23.9453C41.7329 24.325 41.7371 24.7047 41.7413 25.0959C41.7325 27.456 41.5935 29.2389 39.992 31.058C37.6848 32.9194 35.7576 32.7562 32.9335 32.781C32.5315 32.7917 32.1294 32.8024 31.7151 32.8135C29.4325 32.8316 27.9946 32.8102 26.2759 31.1892C24.1976 28.8032 24.4065 26.6341 24.3894 23.5433C24.3853 23.0289 24.378 22.5145 24.3675 22.0001C24.3522 21.2541 24.3465 20.5086 24.3428 19.7624C24.3376 19.3172 24.3325 18.8719 24.3271 18.4131C24.6074 16.3201 25.8297 14.8319 27.3446 13.4716C27.5798 13.4716 27.8149 13.4716 28.0572 13.4716C27.9396 12.9844 27.822 12.4971 27.7009 11.9951ZM35.895 25.2833C35.5423 25.8315 35.5423 25.8315 35.1824 26.3907C34.5129 26.5503 34.5129 26.5503 33.7101 26.5796C33.423 26.5927 33.136 26.6057 32.8403 26.6192C32.3905 26.6317 32.3905 26.6317 31.9315 26.6445C31.4776 26.6634 31.4776 26.6634 31.0144 26.6827C30.2664 26.7132 29.518 26.7371 28.7697 26.7598C28.7697 27.7343 28.7697 28.7087 28.7697 29.7127C29.905 29.7777 31.0399 29.8166 32.1765 29.8512C32.6549 29.879 32.6549 29.879 33.143 29.9074C35.2629 29.9557 36.3898 29.6175 37.9414 28.0993C38.6041 27.2087 38.7197 26.3887 38.7451 25.2833C38.2895 25.2605 37.8339 25.2377 37.3646 25.2141C37.1083 25.2013 36.852 25.1884 36.588 25.1752C36.3593 25.2109 36.1306 25.2466 35.895 25.2833Z" fill="#E0C2A8"/>
<path d="M28.9548 2.96327C29.2749 2.96046 29.5951 2.95765 29.9249 2.95476C30.5995 2.95079 31.2741 2.94971 31.9487 2.95138C32.9715 2.95174 33.9934 2.93637 35.0162 2.92002C41.8969 2.8732 41.8969 2.8732 44.7573 5.62468C46.4368 7.4447 47.3433 9.4409 47.4068 11.972C47.3591 13.6699 47.0477 15.1684 46.5829 16.7936C43.6777 16.8868 41.8483 16.1809 39.5745 14.3064C38.3885 13.1126 37.866 12.1349 37.32 10.5186C37.32 10.0314 37.32 9.54419 37.32 9.04219C36.3795 9.04219 35.439 9.04219 34.4699 9.04219C34.6463 10.5039 34.6463 10.5039 34.8262 11.9951C34.0032 11.9951 33.1802 11.9951 32.3323 11.9951C32.2148 12.2387 32.0972 12.4823 31.9761 12.7333C31.8585 11.5153 31.7409 10.2972 31.6198 9.04217C30.6793 9.04217 29.7387 9.04217 28.7697 9.04217C28.8873 10.0166 29.0048 10.9911 29.126 11.9951C28.3021 12.2489 28.3021 12.2489 27.3447 12.3642C26.7504 11.8178 26.7504 11.8178 26.2759 11.2569C24.6251 12.2965 23.7291 13.0357 22.8914 14.8558C22.4753 15.7252 22.4752 15.7252 22.0007 16.4245C20.6424 16.8167 20.6424 16.8167 19.5068 16.7936C18.6517 13.8034 18.2424 11.1324 19.5291 8.21166C21.6284 4.30879 24.7977 2.96429 28.9548 2.96327Z" fill="#636B76"/>
<path d="M19.1506 65.148C21.786 65.1309 24.4214 65.1178 27.0568 65.1097C28.2805 65.1059 29.5041 65.1007 30.7278 65.0923C32.1338 65.0828 33.5398 65.0792 34.9459 65.0759C35.3864 65.0721 35.8269 65.0683 36.2808 65.0644C36.6873 65.0643 37.0938 65.0642 37.5126 65.0642C37.8718 65.0626 38.2309 65.0609 38.601 65.0592C39.4576 65.148 39.4576 65.148 40.1701 65.8862C40.5775 68.7354 39.51 70.8976 38.0326 73.2686C36.1801 75.5117 34.0816 76.7659 31.2524 77.0794C30.5128 77.1362 29.7723 77.1821 29.0313 77.215C28.0622 77.2675 28.0622 77.2675 27.3057 77.7311C26.6321 78.0671 26.6321 78.0671 25.9168 78.008C22.7912 76.6428 20.8024 72.6059 19.5514 69.5313C18.9977 68.1004 19.14 66.6675 19.1506 65.148Z" fill="#CD9C75"/>
<path d="M3.11871 75.1142C3.27858 75.2623 3.43845 75.4104 3.60317 75.5629C5.74847 77.5154 7.91065 79.0468 10.8006 79.4282C12.7256 79.7921 13.5634 81.1458 14.7669 82.645C17.0924 85.3607 20.301 86.8838 23.4257 88.4024C23.4257 88.5242 23.4258 88.646 23.4258 88.7715C20.6482 88.7902 17.8708 88.8031 15.0932 88.8121C14.1477 88.8158 13.2022 88.8208 12.2567 88.8272C10.9001 88.8361 9.54367 88.8403 8.18712 88.8436C7.54973 88.8493 7.54973 88.8493 6.89946 88.8551C6.31109 88.8552 6.31109 88.8552 5.71084 88.8553C5.19107 88.8578 5.19107 88.8578 4.6608 88.8603C3.83124 88.7715 3.83124 88.7715 3.11871 88.0333C3.05633 87.054 3.03621 86.1139 3.04913 85.1351C3.05013 84.8494 3.05114 84.5637 3.05218 84.2693C3.05617 83.3554 3.06511 82.4415 3.07417 81.5276C3.07774 80.9085 3.081 80.2895 3.08391 79.6705C3.09178 78.1516 3.10408 76.6329 3.11871 75.1142Z" fill="#D19E6B"/>
<path d="M30.9073 79.9127C31.6198 80.6509 31.6198 80.6509 31.6644 81.6199C31.6497 81.9092 31.635 82.1984 31.6198 82.4965C31.8917 82.5955 32.1636 82.6944 32.4437 82.7964C33.8918 83.4594 33.8918 83.4594 34.4699 84.3421C34.6166 85.7702 34.5748 86.8477 33.7574 88.0333C32.5928 88.8951 31.596 88.8866 30.1948 88.7715C29.2202 88.4198 28.3107 87.9588 27.3892 87.4796C27.1439 87.3564 26.8987 87.2331 26.646 87.1061C26.0458 86.8038 25.448 86.4963 24.8508 86.1877C26.3896 81.306 26.3896 81.306 27.6787 80.351C28.8619 79.8756 29.6509 79.7352 30.9073 79.9127Z" fill="#EACBAF"/>
<path d="M39.8139 75.1142C39.9315 75.1142 40.049 75.1142 40.1702 75.1142C40.1877 76.9405 40.2007 78.7668 40.2093 80.5932C40.2129 81.2148 40.2177 81.8364 40.2239 82.4579C40.2325 83.3503 40.2366 84.2427 40.2397 85.1351C40.2434 85.4139 40.2471 85.6927 40.2509 85.9799C40.251 86.6649 40.2137 87.3497 40.1702 88.0333C39.4576 88.7715 39.4576 88.7715 38.7646 88.8436C38.0456 88.8196 37.3265 88.7955 36.6075 88.7715C36.664 88.5607 36.7205 88.3499 36.7787 88.1328C37.2068 86.1952 37.2702 84.3222 36.3403 82.5426C35.6327 81.5244 35.0761 80.9941 34.1137 80.2818C34.1137 79.9164 34.1137 79.551 34.1137 79.1745C34.3759 79.036 34.6381 78.8975 34.9083 78.7549C36.8182 77.7171 38.3851 76.7919 39.8139 75.1142Z" fill="#CE9C69"/>
<path d="M4.68015 65.0759C5.00254 65.0845 5.32493 65.093 5.65709 65.1019C6.14343 65.1119 6.14343 65.1119 6.6396 65.122C6.88851 65.1306 7.13742 65.1392 7.39388 65.148C7.4545 65.5539 7.51512 65.9597 7.57757 66.3779C8.03047 69.2818 8.5357 72.004 9.61357 74.7436C9.88772 75.4833 9.88772 75.4833 9.88772 76.2215C7.83538 75.8944 6.2125 74.4965 4.95987 72.8375C3.64285 70.6971 2.81203 68.4282 3.11871 65.8862C3.83124 65.148 3.83124 65.148 4.68015 65.0759Z" fill="#C89972"/>
<path d="M35.895 25.2833C36.588 25.1752 36.588 25.1752 37.3646 25.2141C37.8201 25.237 38.2757 25.2598 38.7451 25.2833C38.7197 26.3887 38.6041 27.2087 37.9414 28.0993C36.3898 29.6175 35.2629 29.9557 33.143 29.9074C32.824 29.8888 32.5051 29.8703 32.1765 29.8512C31.8479 29.8412 31.5193 29.8312 31.1807 29.8209C30.3762 29.795 29.5734 29.7587 28.7697 29.7127C28.7697 28.7383 28.7697 27.7638 28.7697 26.7598C29.2244 26.746 29.679 26.7322 30.1474 26.718C30.7422 26.6938 31.3369 26.6692 31.9315 26.6445C32.3814 26.632 32.3814 26.632 32.8403 26.6192C33.1273 26.6061 33.4144 26.5931 33.7101 26.5796C33.975 26.5699 34.2399 26.5602 34.5129 26.5503C35.3276 26.4397 35.3276 26.4397 35.895 25.2833Z" fill="#030202"/>
<path d="M74.0152 30.8201C73.8973 31.9604 73.658 32.2976 72.8351 33.104C71.4659 34.0608 70.3849 34.189 68.7548 34.1782C68.4379 34.177 68.121 34.1758 67.7945 34.1746C67.4666 34.1715 67.1387 34.1684 66.8009 34.1652C66.3008 34.1627 66.3008 34.1627 65.7905 34.1602C64.9694 34.1558 64.1484 34.1498 63.3273 34.1422C63.6463 33.0306 63.9172 32.4055 64.7746 31.6434C66.1988 31.0253 67.4969 30.9805 69.0275 30.9355C69.3104 30.9228 69.5933 30.9102 69.8848 30.8972C71.262 30.839 72.6367 30.8057 74.0152 30.8201Z" fill="#EACBB0"/>
<path d="M29.126 35.6186C31.7124 35.6186 34.2989 35.6186 36.9638 35.6186C36.5833 37.5896 36.3267 37.9259 34.9821 39.2406C34.6877 39.5323 34.3933 39.8239 34.09 40.1244C33.8627 40.3428 33.6354 40.5612 33.4011 40.7863C32.2093 40.2467 31.3882 39.5595 30.462 38.6177C30.2103 38.3674 29.9586 38.1171 29.6993 37.8593C29.126 37.0951 29.126 37.0951 29.126 35.6186Z" fill="#EACAAF"/>
<path d="M68.6713 13.4716C69.6118 13.4716 70.5523 13.4716 71.5214 13.4716C71.9585 17.95 71.9585 17.95 70.8868 19.6399C70.1792 20.3549 69.4734 20.9949 68.6713 21.5922C67.4715 21.0313 67.0294 20.6616 66.5337 19.3775C66.9635 19.0463 66.9635 19.0463 67.4021 18.7084C68.7977 17.3033 68.6359 15.3738 68.6713 13.4716Z" fill="#000101"/>
<path d="M28.7697 9.04217C29.7102 9.04217 30.6508 9.04217 31.6198 9.04217C31.6722 9.40332 31.6722 9.40332 31.7256 9.77176C32.082 12.0121 32.082 12.0121 33.1117 13.9791C33.7574 14.948 33.7574 14.948 33.7129 15.7786C33.4011 16.4245 33.4011 16.4245 32.6886 17.1628C31.7534 17.0913 31.3764 16.9289 30.7598 16.1895C29.3807 13.7696 28.6589 11.9124 28.7697 9.04217Z" fill="#070606"/>
<path d="M44.4453 19.3775C46.2266 19.7466 46.2266 19.7466 46.8724 20.3695C47.4386 21.5119 47.4955 22.1681 47.2954 23.4378C46.4716 24.499 46.4716 24.499 45.5141 25.2833C45.1614 25.2833 44.8087 25.2833 44.4453 25.2833C44.4453 23.3344 44.4453 21.3855 44.4453 19.3775Z" fill="#E5C6AB"/>
<path d="M21.6444 19.3775C21.6444 21.3264 21.6444 23.2753 21.6444 25.2833C19.8631 24.9142 19.8631 24.9142 19.2174 24.2913C18.6511 23.1489 18.5942 22.4927 18.7943 21.223C20.2271 19.3775 20.2271 19.3775 21.6444 19.3775Z" fill="#E5C6AC"/>
<path d="M32.6886 46.6921C32.9237 46.6921 33.1589 46.6921 33.4011 46.6921C34.8905 49.2619 34.8905 49.2619 34.6481 50.7063C34.062 51.5665 33.6339 51.8698 32.6886 52.2289C31.9316 51.4445 31.9316 51.4445 31.2636 50.3833C31.5283 49.0391 32.0629 47.8961 32.6886 46.6921Z" fill="#AAD178"/>
<path d="M29.9695 19.9681C29.9695 20.785 29.315 21.4472 28.5076 21.4472C27.7002 21.4472 27.0457 20.785 27.0457 19.9681C27.0457 19.1512 27.7002 18.489 28.5076 18.489C29.315 18.489 29.9695 19.1512 29.9695 19.9681Z" fill="black"/>
<path d="M37.6446 19.9681C37.6446 20.785 36.9901 21.4472 36.1827 21.4472C35.3753 21.4472 34.7208 20.785 34.7208 19.9681C34.7208 19.1512 35.3753 18.489 36.1827 18.489C36.9901 18.489 37.6446 19.1512 37.6446 19.9681Z" fill="black"/>
</svg>
