<svg width="453" height="428" viewBox="0 0 453 428" fill="none" xmlns="http://www.w3.org/2000/svg">
<path d="M257.005 0.11452C257.862 5.28172 258.14 10.2223 258.103 15.4544C258.101 16.6048 258.101 16.6048 258.098 17.7785C258.093 20.203 258.08 22.6275 258.068 25.052C258.062 26.7063 258.058 28.3606 258.054 30.0149C258.043 34.0481 258.026 38.0813 258.005 42.1145C258.885 42.1127 259.764 42.1108 260.671 42.1089C282.114 42.0647 303.557 42.0316 325.001 42.0109C335.371 42.0006 345.741 41.9866 356.111 41.9636C365.154 41.9437 374.196 41.9308 383.239 41.9263C388.023 41.9237 392.807 41.9177 397.592 41.9031C402.103 41.8894 406.615 41.8853 411.127 41.8883C412.775 41.8878 414.422 41.8838 416.069 41.8761C441.697 41.7619 441.697 41.7619 447.765 46.6404C450.961 50.6247 450.87 54.7706 450.845 59.7005C450.864 60.7236 450.882 61.7467 450.902 62.8009C450.952 65.8632 450.974 68.9247 450.989 71.9874C451.019 75.9185 451.092 79.8489 451.158 83.7796C451.327 94.3781 451.438 104.977 451.538 115.576C451.568 118.782 451.599 121.988 451.631 125.193C452.214 185.231 452.202 245.255 451.599 305.293C451.568 308.38 451.538 311.467 451.508 314.554C451.408 324.724 451.286 334.893 451.111 345.062C451.048 348.813 450.997 352.563 450.995 356.315C450.993 359.868 450.955 363.418 450.907 366.97C450.927 368.433 450.927 368.433 450.947 369.925C450.866 373.572 450.798 376.086 448.527 379.031C444.252 382.901 440.589 384.195 434.853 384.319C434.028 384.339 433.203 384.358 432.353 384.379C431.001 384.403 431.001 384.403 429.621 384.429C428.658 384.449 427.695 384.47 426.703 384.491C423.466 384.558 420.227 384.616 416.989 384.673C415.857 384.694 414.725 384.715 413.558 384.737C384.308 385.271 355.059 385.233 325.805 385.187C318.382 385.175 310.959 385.17 303.536 385.165C288.359 385.155 273.182 385.137 258.005 385.115C258.015 386.032 258.026 386.949 258.037 387.893C258.071 391.341 258.096 394.789 258.115 398.237C258.125 399.721 258.138 401.205 258.156 402.688C258.251 411.018 258.197 419.003 256.005 427.115C246.949 426.81 238.375 425.54 229.513 423.766C222.616 422.393 215.705 421.246 208.755 420.177C199.199 418.693 189.733 416.918 180.26 414.975C171.284 413.142 162.277 411.559 153.247 410.017C146.149 408.804 139.078 407.461 132.005 406.115C128.78 405.511 125.555 404.907 122.328 404.307C118.652 403.621 114.981 402.913 111.314 402.177C101.326 400.192 91.3448 398.554 81.255 397.177C71.1409 395.793 61.1713 394.053 51.1781 391.975C43.9562 390.479 36.7214 389.176 29.4425 387.99C28.4521 387.827 27.4617 387.665 26.4413 387.498C24.5312 387.185 22.6212 386.872 20.7111 386.56C16.6589 385.893 12.6106 385.209 8.5675 384.49C7.31067 384.27 6.05383 384.051 4.75891 383.825C3.85012 383.591 2.94133 383.356 2.005 383.115C0.697765 380.5 0.878411 378.587 0.876373 375.658C0.871537 373.909 0.871542 373.909 0.866608 372.124C0.868156 370.831 0.869681 369.539 0.871277 368.208C0.86941 366.83 0.867139 365.452 0.864441 364.074C0.8583 360.274 0.858443 356.474 0.859619 352.674C0.859823 348.582 0.854327 344.489 0.849579 340.396C0.841259 332.373 0.838509 324.35 0.837952 316.327C0.837477 309.81 0.83542 303.292 0.832245 296.774C0.823435 278.313 0.818831 259.852 0.81958 241.391C0.81962 240.395 0.819661 239.399 0.819702 238.373C0.819743 237.376 0.819782 236.379 0.819824 235.351C0.820231 219.18 0.810664 203.009 0.79657 186.838C0.782227 170.251 0.775288 153.665 0.776154 137.078C0.776486 127.759 0.773703 118.44 0.76297 109.12C0.753893 101.187 0.751671 93.2546 0.758484 85.3218C0.761763 81.271 0.761769 77.2202 0.753143 73.1694C0.745339 69.466 0.746652 65.7628 0.755432 62.0594C0.757718 60.0746 0.750086 58.0899 0.742188 56.1052C0.746786 54.939 0.751365 53.7728 0.756104 52.5712C0.755886 51.5585 0.755687 50.5457 0.755463 49.5022C1.00501 47.1145 1.005 47.1145 3.005 45.1145C5.08948 44.3843 5.08948 44.3843 7.66907 43.7122C8.61758 43.4632 9.56608 43.2143 10.5433 42.9578C12.0712 42.5713 12.0712 42.5713 13.63 42.177C14.6789 41.9091 15.7278 41.6411 16.8085 41.365C30.3709 37.9528 44.0389 35.7629 57.8563 33.6692C68.3299 32.0813 78.7774 30.3516 89.2218 28.5828C91.1547 28.2576 93.0884 27.9366 95.0226 27.6189C101.288 26.5889 107.524 25.4618 113.755 24.2395C121.487 22.7427 129.233 21.385 137.005 20.1145C148.045 18.3074 159.025 16.2506 170.005 14.1145C180.504 12.0791 191.022 10.2488 201.582 8.55983C205.881 7.86063 210.129 7.13745 214.349 6.05202C217.581 5.22324 220.705 4.63784 224.005 4.17702C228.408 3.53772 232.76 2.78193 237.12 1.90456C243.797 0.567333 250.174 -0.328861 257.005 0.11452ZM257.005 57.1145C257.005 67.0145 257.005 76.9145 257.005 87.1145C277.135 87.1145 297.265 87.1145 318.005 87.1145C318.005 99.9845 318.005 112.855 318.005 126.115C297.875 126.115 277.745 126.115 257.005 126.115C257.005 130.735 257.005 135.355 257.005 140.115C277.135 140.115 297.265 140.115 318.005 140.115C318.005 152.985 318.005 165.855 318.005 179.115C297.875 179.115 277.745 179.115 257.005 179.115C257.005 184.065 257.005 189.015 257.005 194.115C277.135 194.115 297.265 194.115 318.005 194.115C318.005 206.985 318.005 219.855 318.005 233.115C297.875 233.115 277.745 233.115 257.005 233.115C257.005 237.735 257.005 242.355 257.005 247.115C277.135 247.115 297.265 247.115 318.005 247.115C318.005 259.985 318.005 272.855 318.005 286.115C297.875 286.115 277.745 286.115 257.005 286.115C257.005 291.065 257.005 296.015 257.005 301.115C277.135 301.115 297.265 301.115 318.005 301.115C318.005 313.325 318.005 325.535 318.005 338.115C297.875 338.115 277.745 338.115 257.005 338.115C257.005 348.345 257.005 358.575 257.005 369.115C316.075 369.115 375.145 369.115 436.005 369.115C436.005 266.155 436.005 163.195 436.005 57.1145C376.935 57.1145 317.865 57.1145 257.005 57.1145ZM146.071 137.931C142.317 139.38 142.102 140.247 140.446 143.806C139.618 145.903 138.805 148.006 138.005 150.115C137.024 152.378 136.033 154.637 135.032 156.892C134.001 159.278 132.971 161.665 131.943 164.052C131.426 165.237 130.91 166.423 130.378 167.644C124.513 179.96 124.513 179.96 122.005 193.115C121.345 193.115 120.685 193.115 120.005 193.115C119.823 192.485 119.641 191.856 119.454 191.208C119.077 189.924 119.077 189.924 118.693 188.615C118.449 187.779 118.205 186.944 117.954 186.083C115.979 179.906 113.536 173.913 111.099 167.907C108.046 160.382 105.115 152.89 102.696 145.134C102.18 143.143 102.18 143.143 101.005 142.115C99.1869 142.015 97.3649 141.984 95.5441 141.982C94.4329 141.98 93.3217 141.979 92.1769 141.978C90.4212 141.984 90.4212 141.984 88.63 141.99C87.4673 141.986 86.3045 141.982 85.1066 141.978C83.9928 141.979 82.8791 141.98 81.7316 141.982C80.1936 141.983 80.1936 141.983 78.6246 141.985C75.8933 142.002 75.8933 142.002 73.005 143.115C74.1647 156.103 80.7554 167.408 86.1417 179.107C86.5099 179.906 86.8781 180.706 87.2574 181.53C88.7928 184.865 90.3283 188.2 91.8656 191.533C93.0004 193.995 94.1337 196.457 95.2667 198.919C95.6126 199.668 95.9584 200.417 96.3147 201.189C96.9476 202.566 97.5754 203.945 98.1967 205.326C98.8773 206.832 99.586 208.325 100.301 209.814C101.833 214.822 99.2011 219.078 96.954 223.51C96.6417 224.13 96.3295 224.75 96.0077 225.389C95.3322 226.729 94.6538 228.067 93.973 229.404C92.8961 231.52 91.8267 233.639 90.7593 235.759C88.4937 240.256 86.2188 244.748 83.9425 249.24C81.301 254.452 78.6634 259.666 76.0359 264.885C74.9815 266.974 73.9201 269.06 72.8583 271.145C72.214 272.423 71.5701 273.7 70.9266 274.978C70.0784 276.651 70.0784 276.651 69.2131 278.358C67.8043 281.071 67.8043 281.071 68.005 284.115C69.1884 284.175 70.3717 284.236 71.5909 284.298C79.7537 284.727 87.8794 285.197 96.005 286.115C104.601 271.411 111.124 255.454 116.642 239.361C117.317 237.754 117.317 237.754 118.005 236.115C118.995 235.785 119.985 235.455 121.005 235.115C121.266 236.262 121.527 237.409 121.797 238.591C122.921 243.077 124.541 247.237 126.341 251.49C126.662 252.258 126.982 253.027 127.313 253.819C127.987 255.434 128.665 257.047 129.345 258.659C130.376 261.105 131.398 263.555 132.419 266.005C133.08 267.583 133.741 269.162 134.403 270.74C134.705 271.461 135.006 272.182 135.316 272.925C136.192 274.997 137.091 277.058 138.005 279.115C138.332 279.857 138.659 280.599 138.996 281.364C139.331 282.085 139.666 282.805 140.011 283.548C140.309 284.198 140.608 284.849 140.915 285.519C142.063 287.513 142.063 287.513 145.505 288.552C146.998 288.787 148.5 288.969 150.005 289.115C151.357 289.275 151.357 289.275 152.735 289.439C160.156 290.194 167.553 290.223 175.005 290.115C174.386 285.612 172.59 281.943 170.521 277.958C169.791 276.526 169.061 275.094 168.331 273.661C167.949 272.916 167.567 272.171 167.174 271.404C165.232 267.601 163.332 263.779 161.427 259.958C160.651 258.406 159.875 256.854 159.099 255.302C149.984 237.074 149.984 237.074 149.001 235.107C148.305 233.714 147.607 232.321 146.91 230.928C146.555 230.219 146.199 229.51 145.833 228.779C145.514 228.141 145.194 227.503 144.865 226.846C143.751 224.603 142.686 222.351 141.693 220.052C141.346 219.277 140.999 218.503 140.642 217.704C138.789 210.168 142.863 203.661 146.13 197.115C147.145 195.039 148.159 192.964 149.173 190.888C149.665 189.889 150.156 188.889 150.663 187.86C152.302 184.506 153.879 181.129 155.443 177.74C158.677 170.774 161.994 163.85 165.318 156.927C165.846 155.826 166.374 154.726 166.919 153.592C170.908 145.295 170.908 145.295 172.166 142.969C173.211 140.998 173.211 140.998 173.005 138.115C169.318 138.085 165.63 138.068 161.943 138.052C160.385 138.039 160.385 138.039 158.796 138.027C156.77 138.02 154.745 138.036 152.719 138.075C150.503 138.107 148.286 138.034 146.071 137.931Z" fill="#016F3E"/>
<path d="M258 58.1143C316.41 58.1143 374.82 58.1143 435 58.1143C435 160.414 435 262.714 435 368.114C376.92 368.114 318.84 368.114 259 368.114C259 358.874 259 349.634 259 340.114C287.71 339.619 287.71 339.619 317 339.114C317.33 326.574 317.66 314.034 318 301.114C297.87 301.114 277.74 301.114 257 301.114C257 296.164 257 291.214 257 286.114C277.13 286.114 297.26 286.114 318 286.114C318 273.244 318 260.374 318 247.114C297.87 247.114 277.74 247.114 257 247.114C257 242.494 257 237.874 257 233.114C277.13 233.114 297.26 233.114 318 233.114C318 220.244 318 207.374 318 194.114C297.87 194.114 277.74 194.114 257 194.114C257 189.164 257 184.214 257 179.114C277.13 179.114 297.26 179.114 318 179.114C318 166.244 318 153.374 318 140.114C297.87 140.114 277.74 140.114 257 140.114C257 135.494 257 130.874 257 126.114C277.13 126.114 297.26 126.114 318 126.114C318 112.584 318 99.0543 318 85.1143C313.753 85.1259 309.505 85.1375 305.129 85.1494C301.751 85.1558 298.373 85.1613 294.995 85.166C291.424 85.1713 287.854 85.1784 284.283 85.1897C280.19 85.2026 276.097 85.2075 272.004 85.2119C270.076 85.2197 270.076 85.2197 268.109 85.2276C266.337 85.2277 266.337 85.2277 264.53 85.2278C262.961 85.2311 262.961 85.2311 261.36 85.2345C255.5 86 258 85.5 258 84.1143C258 75.5343 258 66.9543 258 58.1143ZM332 87.1143C332 99.9843 332 112.854 332 126.114C356.09 126.114 380.18 126.114 405 126.114C405 113.244 405 100.374 405 87.1143C380.91 87.1143 356.82 87.1143 332 87.1143ZM332 140.114C332 152.984 332 165.854 332 179.114C356.09 179.114 380.18 179.114 405 179.114C405 166.244 405 153.374 405 140.114C380.91 140.114 356.82 140.114 332 140.114ZM333 194.114C333 206.984 333 219.854 333 233.114C356.76 233.114 380.52 233.114 405 233.114C405 220.244 405 207.374 405 194.114C381.24 194.114 357.48 194.114 333 194.114ZM332 247.114C332 259.984 332 272.854 332 286.114C356.75 286.114 381.5 286.114 407 286.114C408.587 282.941 408.021 279.553 407.914 276.079C407.893 275.285 407.872 274.491 407.85 273.673C407.803 271.995 407.754 270.316 407.703 268.637C407.625 266.059 407.558 263.48 407.492 260.901C407.446 259.273 407.399 257.645 407.352 256.017C407.332 255.241 407.312 254.465 407.291 253.665C407.496 250.091 407.496 250.091 406 247.114C403.699 247.02 401.396 246.997 399.094 247.001C398.011 247.001 398.011 247.001 396.906 247C394.509 247.001 392.112 247.009 389.715 247.017C388.057 247.018 386.4 247.02 384.742 247.021C380.37 247.025 375.999 247.035 371.628 247.046C366.387 247.058 361.147 247.062 355.906 247.068C347.938 247.078 339.969 247.097 332 247.114ZM333 301.114C333 313.984 333 326.854 333 340.114C345.595 340.321 345.595 340.321 358.189 340.519C363.323 340.597 368.457 340.676 373.59 340.762C377.727 340.832 381.863 340.896 386 340.957C387.582 340.981 389.164 341.007 390.745 341.035C392.953 341.073 395.161 341.105 397.369 341.136C398.628 341.156 399.887 341.176 401.184 341.197C403.904 341.439 403.904 341.439 405 340.114C405.089 337.23 405.115 334.369 405.098 331.485C405.097 330.72 405.096 329.954 405.095 329.165C405.089 326.294 405.075 323.423 405.062 320.552C405.042 314.137 405.021 307.723 405 301.114C381.24 301.114 357.48 301.114 333 301.114Z" fill="#FAFDFC"/>
<path d="M161.938 138.052C163.536 138.059 163.536 138.059 165.166 138.065C167.777 138.077 170.389 138.094 173 138.114C172.454 143.117 170.761 147.034 168.438 151.427C167.705 152.849 166.975 154.272 166.246 155.696C165.872 156.425 165.498 157.155 165.113 157.906C163.332 161.44 161.666 165.025 160 168.614C157.426 174.144 154.76 179.613 152 185.052C149.058 190.906 146.19 196.793 143.438 202.739C143.078 203.486 142.719 204.232 142.35 205.001C139.901 210.387 139.731 213.699 141.832 219.353C142.156 220.037 142.479 220.722 142.812 221.427C144.177 224.351 145.513 227.28 146.808 230.235C148.847 234.828 151.041 239.326 153.301 243.814C153.7 244.611 154.1 245.409 154.511 246.23C155.776 248.755 157.044 251.278 158.312 253.802C159.151 255.473 159.988 257.144 160.826 258.815C161.237 259.634 161.647 260.453 162.07 261.296C162.885 262.923 163.7 264.549 164.514 266.176C166.382 269.904 168.259 273.627 170.166 277.335C170.495 277.981 170.825 278.627 171.164 279.292C172.042 281.009 172.925 282.724 173.809 284.438C175 287.114 175 287.114 175 290.114C167.561 290.347 160.326 290.079 152.938 289.239C152.212 289.161 151.486 289.082 150.739 289.001C143.958 288.175 143.958 288.175 141 286.114C139.448 283.264 139.448 283.264 137.977 279.63C137.708 278.978 137.439 278.326 137.162 277.654C136.304 275.562 135.464 273.464 134.625 271.364C134.069 269.998 133.512 268.632 132.953 267.267C132.12 265.23 131.289 263.193 130.466 261.152C129.116 257.81 127.738 254.485 126.284 251.187C126.009 250.561 125.734 249.935 125.451 249.29C124.699 247.588 123.938 245.889 123.177 244.191C122.011 241.143 121.415 238.344 121 235.114C117.868 235.776 117.868 235.776 116.868 238.237C116.516 239.165 116.164 240.092 115.801 241.048C115.4 242.081 114.999 243.115 114.586 244.179C113.956 245.849 113.956 245.849 113.312 247.552C112.423 249.841 111.531 252.128 110.637 254.415C110.194 255.55 109.751 256.685 109.294 257.855C107.504 262.362 105.598 266.81 103.625 271.239C103.316 271.941 103.007 272.643 102.689 273.366C100.708 277.782 98.4582 281.945 96 286.114C94.7213 285.97 93.4425 285.826 92.125 285.677C84.1048 284.866 76.0485 284.526 68 284.114C68.6234 279.862 70.1078 276.579 72.0669 272.767C72.5377 271.844 72.5377 271.844 73.018 270.902C73.697 269.572 74.3786 268.244 75.0626 266.917C76.1449 264.814 77.2178 262.706 78.2881 260.597C81.3309 254.603 84.3846 248.614 87.4585 242.636C89.3407 238.974 91.2072 235.304 93.064 231.629C93.7734 230.232 94.4887 228.839 95.21 227.448C96.2188 225.503 97.2073 223.549 98.1919 221.591C98.7596 220.483 99.3273 219.374 99.9121 218.232C101.82 212.766 100.025 208.726 97.6268 203.661C97.1425 202.667 97.1425 202.667 96.6484 201.653C96.3113 200.945 95.9742 200.237 95.6269 199.507C94.55 197.248 93.4631 194.993 92.375 192.739C90.9624 189.796 89.5543 186.85 88.1484 183.903C87.8017 183.178 87.455 182.453 87.0978 181.706C84.3569 175.941 81.7624 170.121 79.2386 164.258C78.163 161.76 77.0937 159.292 75.8218 156.886C74.4639 153.958 72.7738 151.28 73 148.114C73.66 146.794 72.32 143.974 73 142.614C80.5 141.114 93.52 141.614 101 141.614C101.66 142.934 102.32 144.254 103 145.614C101.25 142.114 103 145.614 104 149.114C105.195 151.424 105.195 151.424 106.34 154.478C106.763 155.593 107.187 156.709 107.623 157.858C108.057 159.036 108.491 160.214 108.938 161.427C109.367 162.562 109.797 163.697 110.24 164.866C113.007 172.226 115.557 179.642 118 187.114C118.666 189.115 119.332 191.115 120 193.114C120.66 193.114 121.32 193.114 122 193.114C122.077 192.56 122.154 192.006 122.233 191.434C123.578 183.376 126.628 176.143 129.812 168.677C130.34 167.419 130.867 166.16 131.393 164.901C134.463 157.58 137.629 150.303 141 143.114C141.317 142.37 141.634 141.625 141.96 140.858C143 139.114 143 139.114 145.879 138.368C151.213 137.894 156.588 138.009 161.938 138.052Z" fill="#F7FCFA"/>
<path d="M332.008 247.114C356.098 247.114 380.188 247.114 405.008 247.114C405.008 259.984 405.008 272.854 405.008 286.114C380.918 286.114 356.828 286.114 332.008 286.114C332.008 273.244 332.008 260.374 332.008 247.114Z" fill="#077241"/>
<path d="M332.008 140.114C356.098 140.114 380.188 140.114 405.008 140.114C405.008 152.984 405.008 165.854 405.008 179.114C380.918 179.114 356.828 179.114 332.008 179.114C332.008 166.244 332.008 153.374 332.008 140.114Z" fill="#067141"/>
<path d="M332.008 87.1143C356.098 87.1143 380.188 87.1143 405.008 87.1143C405.008 99.9843 405.008 112.854 405.008 126.114C380.918 126.114 356.828 126.114 332.008 126.114C332.008 113.244 332.008 100.374 332.008 87.1143Z" fill="#067242"/>
<path d="M333 194.114C356.76 194.114 380.52 194.114 405 194.114C405 206.984 405 219.854 405 233.114C381.24 233.114 357.48 233.114 333 233.114C333 220.244 333 207.374 333 194.114Z" fill="#047040"/>
<path d="M333 301.114C356.76 301.114 380.52 301.114 405 301.114C405 313.324 405 325.534 405 338.114C381.24 338.114 357.48 338.114 333 338.114C333 325.904 333 313.694 333 301.114Z" fill="#03703F"/>
<path d="M14 43.1144C13.2175 43.3193 12.4351 43.5243 11.6289 43.7355C10.617 44.0049 9.60508 44.2743 8.5625 44.5519C7.55316 44.8187 6.54383 45.0855 5.50391 45.3605C3.08248 45.8742 3.08248 45.8742 2 47.1144C1.90256 48.8971 1.87629 50.6838 1.87695 52.4692C1.87496 53.6382 1.87297 54.8071 1.87092 56.0114C1.87383 57.312 1.87674 58.6126 1.87975 59.9525C1.87931 61.3352 1.87844 62.7179 1.87716 64.1005C1.87491 67.9178 1.87894 71.7351 1.88393 75.5523C1.88823 79.6621 1.88679 83.7719 1.88603 87.8816C1.88551 95.008 1.88866 102.134 1.89427 109.261C1.90238 119.564 1.905 129.868 1.90626 140.172C1.90845 156.887 1.91511 173.602 1.92456 190.317C1.93373 206.559 1.94082 222.8 1.94507 239.042C1.94533 240.042 1.94559 241.043 1.94586 242.073C1.94717 247.092 1.94843 252.11 1.94968 257.129C1.96005 298.79 1.97767 340.452 2 382.114C1.34 382.114 0.68 382.114 0 382.114C0 270.574 0 159.034 0 44.1144C10 42.1144 10 42.1144 14 43.1144Z" fill="#0E603D"/>
<path d="M257 338.114C277.13 338.114 297.26 338.114 318 338.114C317.67 338.774 317.34 339.434 317 340.114C297.86 340.114 278.72 340.114 259 340.114C259 349.354 259 358.594 259 368.114C316.75 368.114 374.5 368.114 434 368.114C434 368.444 434 368.774 434 369.114C375.59 369.114 317.18 369.114 257 369.114C257 358.884 257 348.654 257 338.114Z" fill="#DBF7EB"/>
<path d="M435 58.1143C435.33 58.1143 435.66 58.1143 436 58.1143C436 160.744 436 263.374 436 369.114C435.34 368.784 434.68 368.454 434 368.114C434.33 265.814 434.66 163.514 435 58.1143Z" fill="#DBF7EB"/>
<path d="M257 57.1143C316.07 57.1143 375.14 57.1143 436 57.1143C436 57.4443 436 57.7743 436 58.1143C376.93 58.1143 317.86 58.1143 257 58.1143C257 57.7843 257 57.4543 257 57.1143Z" fill="#96C7B0"/>
<path d="M257 58.1143C257.33 58.1143 257.66 58.1143 258 58.1143C258 81 258 76.5 258 85.2345C261.924 85.2229 265.957 85.1262 270 85.1143C273.796 85.1065 276.937 85.205 280.733 85.1991C283.374 85.194 282.36 85.1229 285 85.1143C281.207 85.1187 288.793 85.1021 285 85.1143C286.774 85.1065 287.691 85.1838 289.5 85.1759C290.601 85.1758 289.366 85.1739 290.5 85.1738C291.468 85.1716 310.502 85.1343 311.5 85.132C313.845 85.2418 315.758 84.4469 318 85.1143C318 85.7743 318 86.4343 318 87.1143C297.87 87.1143 277.74 87.1143 257 87.1143C257 77.5443 257 67.9743 257 58.1143Z" fill="#BFE6D6"/>
<path d="M333 338.114C356.76 338.114 380.52 338.114 405 338.114C404.67 339.104 404.34 340.094 404 341.114C380.57 340.784 357.14 340.454 333 340.114C333 339.454 333 338.794 333 338.114Z" fill="#E0FCF2"/>
<path d="M405 247.114C405.99 247.609 405.99 247.609 407 248.114C407.33 260.324 407.66 272.534 408 285.114C406.515 285.609 406.515 285.609 405 286.114C405 273.244 405 260.374 405 247.114Z" fill="#E6FEF2"/>
<path d="M258 58.1143C316.41 58.1143 374.82 58.1143 435 58.1143C435 160.414 435 262.714 435 368.114C376.92 368.114 318.84 368.114 259 368.114C259 358.874 259 349.634 259 340.114C287.71 339.619 287.71 339.619 317 339.114C317.33 326.574 317.66 314.034 318 301.114C297.87 301.114 277.74 301.114 257 301.114C257 296.164 257 291.214 257 286.114C277.13 286.114 297.26 286.114 318 286.114C318 273.244 318 260.374 318 247.114C297.87 247.114 277.74 247.114 257 247.114C257 242.494 257 237.874 257 233.114C277.13 233.114 297.26 233.114 318 233.114C318 220.244 318 207.374 318 194.114C297.87 194.114 277.74 194.114 257 194.114C257 189.164 257 184.214 257 179.114C277.13 179.114 297.26 179.114 318 179.114C318 166.244 318 153.374 318 140.114C297.87 140.114 277.74 140.114 257 140.114C257 135.494 257 130.874 257 126.114C277.13 126.114 297.26 126.114 318 126.114C318 112.584 318 99.0543 318 85.1143C313.753 85.1259 309.505 85.1375 305.129 85.1494C301.751 85.1558 298.373 85.1613 294.995 85.166C291.424 85.1713 287.854 85.1784 284.283 85.1897C280.19 85.2026 276.097 85.2075 272.004 85.2119C270.076 85.2197 270.076 85.2197 268.109 85.2276C266.337 85.2277 266.337 85.2277 264.53 85.2278C262.961 85.2311 262.961 85.2311 261.36 85.2345C255.5 86 258 85.5 258 84.1143C258 75.5343 258 66.9543 258 58.1143ZM332 87.1143C332 99.9843 332 112.854 332 126.114C356.09 126.114 380.18 126.114 405 126.114C405 113.244 405 100.374 405 87.1143C380.91 87.1143 356.82 87.1143 332 87.1143ZM332 140.114C332 152.984 332 165.854 332 179.114C356.09 179.114 380.18 179.114 405 179.114C405 166.244 405 153.374 405 140.114C380.91 140.114 356.82 140.114 332 140.114ZM333 194.114C333 206.984 333 219.854 333 233.114C356.76 233.114 380.52 233.114 405 233.114C405 220.244 405 207.374 405 194.114C381.24 194.114 357.48 194.114 333 194.114ZM332 247.114C332 259.984 332 272.854 332 286.114C356.75 286.114 381.5 286.114 407 286.114C408.587 282.941 408.021 279.553 407.914 276.079C407.893 275.285 407.872 274.491 407.85 273.673C407.803 271.995 407.754 270.316 407.703 268.637C407.625 266.059 407.558 263.48 407.492 260.901C407.446 259.273 407.399 257.645 407.352 256.017C407.332 255.241 407.312 254.465 407.291 253.665C407.496 250.091 407.496 250.091 406 247.114C403.699 247.02 401.396 246.997 399.094 247.001C398.011 247.001 398.011 247.001 396.906 247C394.509 247.001 392.112 247.009 389.715 247.017C388.057 247.018 386.4 247.02 384.742 247.021C380.37 247.025 375.999 247.035 371.628 247.046C366.387 247.058 361.147 247.062 355.906 247.068C347.938 247.078 339.969 247.097 332 247.114ZM333 301.114C333 313.984 333 326.854 333 340.114C345.595 340.321 345.595 340.321 358.189 340.519C363.323 340.597 368.457 340.676 373.59 340.762C377.727 340.832 381.863 340.896 386 340.957C387.582 340.981 389.164 341.007 390.745 341.035C392.953 341.073 395.161 341.105 397.369 341.136C398.628 341.156 399.887 341.176 401.184 341.197C403.904 341.439 403.904 341.439 405 340.114C405.089 337.23 405.115 334.369 405.098 331.485C405.097 330.72 405.096 329.954 405.095 329.165C405.089 326.294 405.075 323.423 405.062 320.552C405.042 314.137 405.021 307.723 405 301.114C381.24 301.114 357.48 301.114 333 301.114Z" fill="#FAFDFC"/>
<path d="M332.008 247.114C356.098 247.114 380.188 247.114 405.008 247.114C405.008 259.984 405.008 272.854 405.008 286.114C380.918 286.114 356.828 286.114 332.008 286.114C332.008 273.244 332.008 260.374 332.008 247.114Z" fill="#077241"/>
<path d="M332.008 140.114C356.098 140.114 380.188 140.114 405.008 140.114C405.008 152.984 405.008 165.854 405.008 179.114C380.918 179.114 356.828 179.114 332.008 179.114C332.008 166.244 332.008 153.374 332.008 140.114Z" fill="#067141"/>
<path d="M332.008 87.1143C356.098 87.1143 380.188 87.1143 405.008 87.1143C405.008 99.9843 405.008 112.854 405.008 126.114C380.918 126.114 356.828 126.114 332.008 126.114C332.008 113.244 332.008 100.374 332.008 87.1143Z" fill="#067242"/>
<path d="M333 194.114C356.76 194.114 380.52 194.114 405 194.114C405 206.984 405 219.854 405 233.114C381.24 233.114 357.48 233.114 333 233.114C333 220.244 333 207.374 333 194.114Z" fill="#047040"/>
<path d="M333 301.114C356.76 301.114 380.52 301.114 405 301.114C405 313.324 405 325.534 405 338.114C381.24 338.114 357.48 338.114 333 338.114C333 325.904 333 313.694 333 301.114Z" fill="#03703F"/>
<path d="M14 43.1144C13.2175 43.3193 12.4351 43.5243 11.6289 43.7355C10.617 44.0049 9.60508 44.2743 8.5625 44.5519C7.55316 44.8187 6.54383 45.0855 5.50391 45.3605C3.08248 45.8742 3.08248 45.8742 2 47.1144C1.90256 48.8971 1.87629 50.6838 1.87695 52.4692C1.87496 53.6382 1.87297 54.8071 1.87092 56.0114C1.87383 57.312 1.87674 58.6126 1.87975 59.9525C1.87931 61.3352 1.87844 62.7179 1.87716 64.1005C1.87491 67.9178 1.87894 71.7351 1.88393 75.5523C1.88823 79.6621 1.88679 83.7719 1.88603 87.8816C1.88551 95.008 1.88866 102.134 1.89427 109.261C1.90238 119.564 1.905 129.868 1.90626 140.172C1.90845 156.887 1.91511 173.602 1.92456 190.317C1.93373 206.559 1.94082 222.8 1.94507 239.042C1.94533 240.042 1.94559 241.043 1.94586 242.073C1.94717 247.092 1.94843 252.11 1.94968 257.129C1.96005 298.79 1.97767 340.452 2 382.114C1.34 382.114 0.68 382.114 0 382.114C0 270.574 0 159.034 0 44.1144C10 42.1144 10 42.1144 14 43.1144Z" fill="#0E603D"/>
<path d="M257 338.114C277.13 338.114 297.26 338.114 318 338.114C317.67 338.774 317.34 339.434 317 340.114C297.86 340.114 278.72 340.114 259 340.114C259 349.354 259 358.594 259 368.114C316.75 368.114 374.5 368.114 434 368.114C434 368.444 434 368.774 434 369.114C375.59 369.114 317.18 369.114 257 369.114C257 358.884 257 348.654 257 338.114Z" fill="#DBF7EB"/>
<path d="M435 58.1143C435.33 58.1143 435.66 58.1143 436 58.1143C436 160.744 436 263.374 436 369.114C435.34 368.784 434.68 368.454 434 368.114C434.33 265.814 434.66 163.514 435 58.1143Z" fill="#DBF7EB"/>
<path d="M257 57.1143C316.07 57.1143 375.14 57.1143 436 57.1143C436 57.4443 436 57.7743 436 58.1143C376.93 58.1143 317.86 58.1143 257 58.1143C257 57.7843 257 57.4543 257 57.1143Z" fill="#96C7B0"/>
<path d="M257 58.1143C257.33 58.1143 257.66 58.1143 258 58.1143C258 81 258 76.5 258 85.2345C261.924 85.2229 265.957 85.1262 270 85.1143C273.796 85.1065 276.937 85.205 280.733 85.1991C283.374 85.194 282.36 85.1229 285 85.1143C281.207 85.1187 288.793 85.1021 285 85.1143C286.774 85.1065 287.691 85.1838 289.5 85.1759C290.601 85.1758 289.366 85.1739 290.5 85.1738C291.468 85.1716 310.502 85.1343 311.5 85.132C313.845 85.2418 315.758 84.4469 318 85.1143C318 85.7743 318 86.4343 318 87.1143C297.87 87.1143 277.74 87.1143 257 87.1143C257 77.5443 257 67.9743 257 58.1143Z" fill="#BFE6D6"/>
<path d="M333 338.114C356.76 338.114 380.52 338.114 405 338.114C404.67 339.104 404.34 340.094 404 341.114C380.57 340.784 357.14 340.454 333 340.114C333 339.454 333 338.794 333 338.114Z" fill="#E0FCF2"/>
<path d="M405 247.114C405.99 247.609 405.99 247.609 407 248.114C407.33 260.324 407.66 272.534 408 285.114C406.515 285.609 406.515 285.609 405 286.114C405 273.244 405 260.374 405 247.114Z" fill="#E6FEF2"/>
</svg>
