<svg width="63" height="63" viewBox="0 0 63 63" fill="none" xmlns="http://www.w3.org/2000/svg">
<path d="M51.2695 24.0607C51.2695 24.083 51.3589 24.1724 51.4706 24.2505C51.6381 24.3958 51.6493 24.3846 51.5041 24.2059C51.3589 24.0271 51.2695 23.9713 51.2695 24.0607Z" fill="#0095FF"/>
<path d="M28.595 4.02121C26.7296 4.11057 24.2721 4.37866 22.8423 4.63557C21.0439 4.95951 17.0003 5.8978 16.8104 6.03185C16.7546 6.07653 16.52 6.16589 16.3078 6.23291C14.6881 6.71323 13.2248 7.19355 13.1801 7.26057C13.1466 7.30525 12.778 7.4728 12.3423 7.62919C10.745 8.22121 10.3652 8.36642 10.2423 8.46695C10.1641 8.5228 9.58329 8.80206 8.93542 9.09249C8.29872 9.38291 7.74021 9.66217 7.7067 9.69568C7.67319 9.74036 7.1817 10.0196 6.60085 10.3212C6.02 10.6228 5.495 10.9132 5.42798 10.9691C5.36095 11.0249 4.90298 11.3042 4.41149 11.5834C3.92 11.8739 3.49553 12.142 3.46202 12.1755C3.31681 12.3318 2.5684 12.8457 2.47904 12.8457C2.43436 12.8457 2.18861 13.0132 1.94287 13.2143C1.70829 13.4154 1.21681 13.7728 0.870529 14.0074C0.513082 14.2531 0.222656 14.4654 0.222656 14.4877C0.222656 14.5212 0.591273 15.0239 1.03808 15.6159C1.48489 16.2079 1.94287 16.8446 2.05457 17.0345C2.17744 17.2132 2.41202 17.5148 2.59074 17.6935C2.75829 17.8834 2.90351 18.0733 2.90351 18.1292C2.90351 18.2185 3.49553 19.034 3.68542 19.2127C3.71893 19.2462 3.88649 19.4808 4.06521 19.7377C4.24393 20.0058 4.40032 20.218 4.41149 20.218C4.53436 20.218 5.14872 19.8271 5.41681 19.5813C5.6067 19.4138 6.10936 19.0451 6.53383 18.7771C6.96946 18.4978 7.41627 18.1962 7.53915 18.0845C7.66202 17.984 8.06415 17.7382 8.43276 17.5372C8.80138 17.3361 9.18117 17.1127 9.27053 17.0345C9.35989 16.9451 9.9184 16.6435 10.4993 16.3531C11.0801 16.0627 11.6386 15.7723 11.728 15.6941C11.8173 15.6159 12.3982 15.3478 13.0126 15.1021C13.6269 14.8451 14.3865 14.5212 14.6881 14.376C15.0008 14.2308 15.7716 13.9404 16.4195 13.7393C17.0673 13.5382 17.6482 13.3372 17.7152 13.2813C17.8604 13.1584 21.0663 12.3318 21.8147 12.2313C22.1051 12.1866 22.3397 12.1084 22.3397 12.0638C22.3397 11.9744 22.3508 11.9744 24.7413 11.6281C26.4838 11.3824 29.12 11.1701 30.4828 11.1701H31.3876V7.53983V3.90951L30.8626 3.93185C30.561 3.93185 29.5445 3.97653 28.595 4.02121Z" fill="#0095FF"/>
<path d="M30.2687 18.7324C28.2357 18.7994 24.8288 19.2015 24.2926 19.4361C24.1698 19.492 23.4884 19.6595 22.7847 19.8159C21.2767 20.151 20.5059 20.3744 18.7634 21C18.0597 21.2569 17.3113 21.5138 17.1214 21.5808C16.9203 21.6478 16.7527 21.7484 16.7527 21.793C16.7527 21.8377 16.4847 21.9829 16.1719 22.0946C15.0437 22.5303 14.0831 23.0106 13.9714 23.2005C13.9043 23.3122 13.8485 23.368 13.8485 23.3122C13.8485 23.1223 10.6873 24.9989 10.3299 25.4122C10.274 25.4792 9.92774 25.725 9.58147 25.9595L8.93359 26.384L9.13466 26.7191C9.23519 26.8978 9.42508 27.1659 9.54796 27.3C9.67083 27.434 10.0283 27.9143 10.3299 28.3723C10.6426 28.8303 10.9777 29.2883 11.0894 29.4C11.2011 29.5117 11.4581 29.8803 11.6703 30.2154C11.8825 30.5393 12.1059 30.8521 12.173 30.8856C12.24 30.9191 12.4634 31.2319 12.6756 31.567C12.8878 31.9021 13.1224 32.1702 13.1894 32.1702C13.3235 32.1702 14.0719 31.6563 14.1836 31.4888C14.273 31.3659 15.5687 30.4946 15.6581 30.4946C15.7027 30.4946 15.9597 30.3271 16.2277 30.126C16.4847 29.9361 17.032 29.6122 17.423 29.4335C17.8251 29.2436 18.2049 29.0425 18.2719 28.9867C18.4171 28.8526 18.9309 28.6292 20.1038 28.1936C20.5618 28.0148 20.9639 27.8361 20.9974 27.7914C21.0533 27.7244 22.6618 27.2441 24.8511 26.6409C26.2474 26.2611 28.9394 25.9148 30.548 25.9148H31.3857V22.2845C31.3857 19.4473 31.3522 18.6542 31.2517 18.6765C31.1735 18.6877 30.7267 18.7101 30.2687 18.7324Z" fill="#0095FF"/>
<path d="M29.7696 33.5106C28.4404 33.6111 26.9101 33.8345 26.7537 33.9574C26.6978 34.0021 26.3627 34.1026 26.0276 34.1808C23.9053 34.65 21.6936 35.5771 20.0851 36.6606C19.7388 36.8952 19.4037 37.0851 19.3478 37.0851C19.3031 37.0851 19.0015 37.2973 18.6776 37.5542C18.3648 37.8223 17.9962 38.1127 17.8622 38.2133C17.6164 38.3808 17.6164 38.392 17.8175 38.7159C17.9404 38.8947 18.1191 39.1292 18.2308 39.2409C18.3425 39.3526 18.5994 39.6989 18.8005 40.0228C19.0127 40.3468 19.2696 40.6931 19.3813 40.8048C19.493 40.9165 19.7835 41.3298 20.0404 41.7095C20.2973 42.0893 20.6883 42.6255 20.9228 42.9048C21.1462 43.1952 21.3361 43.4633 21.3361 43.5191C21.3473 43.6643 21.7494 44.1223 21.8723 44.1223C21.9281 44.1223 22.1404 43.9548 22.3526 43.7537C22.7547 43.3627 24.017 42.5585 24.2292 42.5585C24.2962 42.5585 24.3521 42.5138 24.3521 42.458C24.3521 42.3351 25.4468 41.8436 26.4186 41.5532C26.8542 41.4191 27.2787 41.2627 27.3792 41.2181C27.7255 41.0393 29.2893 40.7601 30.3393 40.6931L31.3893 40.626V37.0069V33.3989L31.1436 33.4101C30.9984 33.4213 30.384 33.4659 29.7696 33.5106Z" fill="#0095FF"/>
<path d="M30.494 48.3335C30.4046 48.3559 30.1812 48.4564 29.9913 48.5346C29.8126 48.6128 29.377 48.8027 29.0419 48.9591C28.3158 49.2718 27.2435 50.2995 26.9642 50.9474C26.8525 51.182 26.7296 51.383 26.6738 51.383C26.6291 51.383 26.5062 51.6734 26.3945 52.0197C26.0483 53.1702 26.2158 55.4266 26.6961 55.9851C26.7631 56.0633 27.0089 56.4431 27.2546 56.8229C27.4892 57.2027 27.8355 57.5937 28.0142 57.683C28.1818 57.7724 28.4052 57.9288 28.4834 58.0293C28.8296 58.4426 30.2483 58.9788 31.0302 58.9788H31.3876V53.6171V48.2554L31.0302 48.2665C30.8291 48.2665 30.5834 48.3 30.494 48.3335Z" fill="#0095FF"/>
<path d="M31.4336 7.54001C31.4336 9.56182 31.4559 10.4108 31.4671 9.41661C31.4894 8.42246 31.4894 6.76927 31.4671 5.73044C31.4559 4.70278 31.4336 5.50703 31.4336 7.54001Z" fill="#0095FF"/>
<path d="M31.4336 22.2846C31.4336 24.3064 31.4559 25.1554 31.4671 24.1612C31.4894 23.1671 31.4894 21.5139 31.4671 20.4751C31.4559 19.4474 31.4336 20.2517 31.4336 22.2846Z" fill="#0095FF"/>
<path d="M31.4336 37.0293C31.4336 39.0511 31.4559 39.9 31.4671 38.9059C31.4894 37.9117 31.4894 36.2585 31.4671 35.2197C31.4559 34.192 31.4336 34.9963 31.4336 37.0293Z" fill="#0095FF"/>
<path d="M31.4453 53.6729C31.4453 56.6777 31.4565 57.8953 31.4677 56.3761C31.49 54.8458 31.49 52.3884 31.4677 50.9027C31.4565 49.4171 31.4453 50.657 31.4453 53.6729Z" fill="#0095FF"/>
<path d="M31.543 7.54001C31.543 9.56182 31.5653 10.4108 31.5765 9.41661C31.5988 8.42246 31.5988 6.76927 31.5765 5.73044C31.5653 4.70278 31.543 5.50703 31.543 7.54001Z" fill="#0095FF"/>
<path d="M31.543 22.2846C31.543 24.3064 31.5653 25.1554 31.5765 24.1612C31.5988 23.1671 31.5988 21.5139 31.5765 20.4751C31.5653 19.4474 31.543 20.2517 31.543 22.2846Z" fill="#0095FF"/>
<path d="M31.543 37.0293C31.543 39.0511 31.5653 39.9 31.5765 38.9059C31.5988 37.9117 31.5988 36.2585 31.5765 35.2197C31.5653 34.192 31.543 34.9963 31.543 37.0293Z" fill="#0095FF"/>
<path d="M31.5547 53.6729C31.5547 56.6777 31.5659 57.8953 31.577 56.3761C31.5994 54.8458 31.5994 52.3884 31.577 50.9027C31.5659 49.4171 31.5547 50.657 31.5547 53.6729Z" fill="#0095FF"/>
<path d="M31.6562 7.54001C31.6562 9.56182 31.6786 10.4108 31.6898 9.41661C31.7121 8.42246 31.7121 6.76927 31.6898 5.73044C31.6786 4.70278 31.6562 5.50703 31.6562 7.54001Z" fill="#0095FF"/>
<path d="M31.6562 22.2846C31.6562 24.3064 31.6786 25.1554 31.6898 24.1612C31.7121 23.1671 31.7121 21.5139 31.6898 20.4751C31.6786 19.4474 31.6562 20.2517 31.6562 22.2846Z" fill="#0095FF"/>
<path d="M31.6562 37.0293C31.6562 39.0511 31.6786 39.9 31.6898 38.9059C31.7121 37.9117 31.7121 36.2585 31.6898 35.2197C31.6786 34.192 31.6562 34.9963 31.6562 37.0293Z" fill="#0095FF"/>
<path d="M31.668 53.6729C31.668 56.6777 31.6791 57.8953 31.6903 56.3761C31.7126 54.8458 31.7126 52.3884 31.6903 50.9027C31.6791 49.4171 31.668 50.657 31.668 53.6729Z" fill="#0095FF"/>
<path d="M31.7227 7.51748V11.1366L33.4875 11.2148C36.0902 11.3265 40.1673 11.818 40.4913 12.0638C40.5583 12.1084 40.804 12.1755 41.0498 12.2201C41.8987 12.3654 44.736 13.0914 45.0711 13.2366C45.261 13.326 46.0317 13.6052 46.8024 13.8622C47.5732 14.1079 48.3216 14.3872 48.478 14.4765C48.6344 14.5547 49.3046 14.8563 49.9636 15.1356C50.6338 15.4148 51.3599 15.7611 51.5833 15.8951C51.8067 16.0404 52.153 16.2191 52.3317 16.2973C53.2365 16.6771 56.286 18.5983 57.7381 19.693L58.5647 20.3074L58.978 19.7824C59.2126 19.4919 59.637 18.8999 59.9274 18.4755C60.2179 18.051 60.4971 17.6824 60.5418 17.6489C60.5865 17.6154 60.8099 17.3026 61.0445 16.9451C61.2679 16.5877 61.536 16.1967 61.6365 16.0962C61.8487 15.8728 62.7758 14.5547 62.7758 14.4765C62.7758 14.4542 62.3961 14.1861 61.9381 13.9068C61.4801 13.6164 61.1003 13.3483 61.1003 13.3036C61.1003 13.259 60.9663 13.1473 60.7987 13.0691C60.62 12.9797 60.0727 12.6446 59.5588 12.3095C59.045 11.9856 58.386 11.5946 58.0844 11.4382C57.7828 11.2818 57.47 11.1031 57.3918 11.0249C57.3136 10.9467 56.7551 10.634 56.1519 10.3324C55.5599 10.0196 54.8562 9.66216 54.5881 9.52812C54.3312 9.39407 53.7391 9.12599 53.2812 8.92493C52.8232 8.73503 52.4211 8.54514 52.3876 8.50046C52.3317 8.43344 51.2705 7.9978 49.986 7.52865C49.6844 7.41695 49.3269 7.27173 49.204 7.19354C49.0812 7.12652 48.2769 6.85844 47.4168 6.60152C46.5567 6.34461 45.7636 6.08769 45.6631 6.03184C45.5626 5.97599 44.5796 5.71907 43.4849 5.47333C42.3902 5.22759 41.2173 4.94833 40.8822 4.87014C39.5418 4.51269 36.2801 4.15524 32.8732 3.96535L31.7227 3.9095V7.51748Z" fill="#0095FF"/>
<path d="M31.7227 22.2957V25.9149H32.6498C33.7891 25.9149 36.9168 26.2946 37.7546 26.5292C38.0897 26.6297 38.4918 26.7414 38.6482 26.775C39.5306 26.9649 41.7535 27.6351 41.9657 27.7691C42.111 27.8585 42.5913 28.0595 43.0269 28.2159C43.8535 28.5175 46.6907 29.9585 46.9477 30.2042C47.0258 30.2824 47.3386 30.4835 47.6625 30.651C47.9865 30.8297 48.5338 31.2207 48.8913 31.5223C49.8743 32.3601 49.8631 32.3601 50.2317 31.8239C50.3993 31.567 50.6785 31.2095 50.8349 31.0085C50.9913 30.8186 51.304 30.3829 51.5274 30.0478C51.9743 29.3888 53.0466 27.9031 53.3482 27.5345C53.4487 27.4117 53.6498 27.1212 53.8062 26.8978C54.1301 26.4175 54.0854 26.3058 53.404 25.9037C53.1806 25.7696 52.9572 25.6021 52.8902 25.5239C52.8344 25.4457 52.3987 25.1441 51.9407 24.8537C51.4828 24.5633 51.0806 24.284 51.0471 24.2393C50.9801 24.1388 49.2152 23.1893 47.9195 22.5526C45.8195 21.5361 45.3727 21.3351 44.4567 21.0446C43.9317 20.8883 43.362 20.676 43.1945 20.5867C42.8258 20.3968 39.486 19.5478 39.1285 19.5478C38.9833 19.5478 38.8716 19.5031 38.8716 19.4585C38.8716 19.2686 35.0626 18.8218 32.8173 18.7324L31.7227 18.6877V22.2957Z" fill="#0095FF"/>
<path d="M31.7227 37.0292V40.626L32.6833 40.7042C33.6998 40.7824 35.2748 41.0728 35.4647 41.2069C35.5317 41.2515 35.9003 41.3856 36.3024 41.4973C37.6094 41.8436 39.5753 42.8936 40.6477 43.7984C40.9604 44.0553 41.2397 44.2452 41.262 44.2228C41.2844 44.2005 41.4407 43.9547 41.6083 43.6755C41.7758 43.3962 42.0328 43.05 42.1668 42.8936C42.312 42.7372 42.6583 42.2569 42.9487 41.8324C43.2503 41.3968 43.5184 41.0281 43.5631 40.9946C43.6078 40.9611 43.8535 40.6148 44.1216 40.2127C44.3897 39.8106 44.7248 39.3638 44.87 39.2186C45.004 39.0734 45.1939 38.8164 45.2721 38.6489C45.4285 38.3585 45.4173 38.3361 45.0822 38.1462C44.8923 38.0345 44.479 37.7553 44.1663 37.5207C43.8535 37.275 43.5631 37.0851 43.5184 37.0851C43.4737 37.0851 43.0493 36.8617 42.5801 36.5936C42.111 36.3143 41.2955 35.9122 40.7705 35.6888C40.2455 35.4654 39.62 35.1861 39.3743 35.0744C38.8828 34.8398 36.8386 34.2367 36.1349 34.1138C35.8891 34.0803 35.6322 34.0021 35.5764 33.9462C35.4535 33.8569 33.3758 33.5441 32.3705 33.4771L31.7227 33.4324V37.0292Z" fill="#0095FF"/>
<path d="M31.7227 53.6505V59.0569L32.3929 58.9675C33.0966 58.867 34.3812 58.3978 34.5711 58.1633C34.6381 58.0962 34.8727 57.884 35.1072 57.7165C35.6211 57.3255 36.4923 56.0298 36.7046 55.326C37.2966 53.3489 36.8051 51.3494 35.3418 49.8638C34.7945 49.2941 34.5264 49.1377 32.8732 48.4117C32.6833 48.3223 32.3482 48.2553 32.1248 48.2553H31.7227V53.6505Z" fill="#0095FF"/>
<path d="M31.9254 11.3602C32.0595 11.3825 32.2605 11.3825 32.3722 11.3602C32.4727 11.3267 32.361 11.3043 32.1153 11.3155C31.8696 11.3155 31.7802 11.3379 31.9254 11.3602Z" fill="#0095FF"/>
<path d="M31.9254 11.2484C32.0595 11.2707 32.2605 11.2707 32.3722 11.2484C32.4727 11.2149 32.361 11.1925 32.1153 11.2037C31.8696 11.2037 31.7802 11.226 31.9254 11.2484Z" fill="#0095FF"/>
</svg>
