<svg width="95" height="95" viewBox="0 0 95 95" fill="none" xmlns="http://www.w3.org/2000/svg">
<path d="M47.4011 0.000753256C47.5802 0.00109106 47.7593 0.00142886 47.9438 0.00177689C50.5977 0.0101955 53.1799 0.104501 55.791 0.614619C56.0401 0.659365 56.0401 0.659365 56.2943 0.705015C67.3686 2.71063 78.0178 9.02215 84.8607 18.0345C84.9379 18.1346 85.015 18.2347 85.0945 18.3379C86.5171 20.1902 87.7656 22.1286 88.9342 24.15C89.0072 24.2755 89.0802 24.401 89.1554 24.5303C92.8058 30.8824 95.0721 38.6545 94.8592 46.0175C93.9569 45.4849 93.2758 44.8295 92.552 44.0738C92.0494 43.5763 91.5236 43.1163 90.9896 42.653C90.3675 42.1063 89.7672 41.5368 89.1656 40.9676C88.1034 39.9667 87.0351 38.9735 85.9579 37.9887C85.3745 37.4547 84.7933 36.9181 84.2127 36.381C83.25 35.4909 82.2864 34.6018 81.3189 33.717C80.9615 33.39 80.6052 33.0618 80.2499 32.7325C80.0835 32.5796 79.9172 32.4267 79.7458 32.2692C79.5982 32.1328 79.4507 31.9964 79.2988 31.8559C78.9654 31.5239 78.9654 31.5239 78.5654 31.5627C78.4852 31.3639 78.405 31.1652 78.3223 30.9604C77.7752 29.8747 76.9379 29.0413 76.0994 28.1775C75.8824 27.9537 75.6667 27.7286 75.452 27.5026C72.7697 24.654 72.7697 24.654 69.0992 23.7099C66.0396 23.708 64.158 26.1366 62.1349 28.1552C61.8256 28.4649 61.5167 28.7751 61.2078 29.0853C60.9813 29.312 60.7547 29.5387 60.5282 29.7654C59.9204 30.3736 59.3132 30.9824 58.7061 31.5913C58.0689 32.2303 57.4312 32.8687 56.7935 33.5071C55.5892 34.713 54.3854 35.9194 53.1818 37.1259C51.8102 38.5008 50.438 39.8752 49.0658 41.2495C46.2459 44.0737 43.4268 46.8986 40.6081 49.7239C39.8693 49.3825 39.3706 48.8982 38.81 48.3192C38.7063 48.2137 38.6026 48.1082 38.4958 47.9995C38.271 47.7706 38.0466 47.5414 37.8226 47.3118C37.467 46.9477 37.1099 46.585 36.7523 46.2228C35.7357 45.193 34.7206 44.1617 33.7095 43.1264C33.0904 42.4928 32.4686 41.8619 31.8449 41.2327C31.6087 40.9933 31.3735 40.7529 31.1394 40.5114C29.6827 39.0095 28.5152 37.8848 26.3683 37.5732C23.765 37.5761 22.4215 38.4955 20.6111 40.2726C20.4878 40.3915 20.3645 40.5104 20.2375 40.6329C19.8161 41.0397 19.3974 41.4491 18.9794 41.8594C18.8443 41.9906 18.7092 42.1218 18.57 42.257C17.2369 43.5834 16.182 44.9565 16.1095 46.8978C16.1626 49.251 17.2804 50.7138 18.91 52.2951C19.1662 52.5451 19.422 52.7956 19.6773 53.0465C19.79 53.1559 19.9026 53.2653 20.0186 53.378C20.3611 53.7336 20.6819 54.0959 21.0032 54.4703C21.7249 55.2977 22.4871 56.0779 23.2623 56.8548C23.4106 57.0042 23.5589 57.1535 23.7117 57.3074C24.1977 57.7965 24.6844 58.285 25.1713 58.7733C25.3383 58.9409 25.5053 59.1086 25.6773 59.2813C26.4688 60.076 27.2606 60.8703 28.0529 61.6641C28.9644 62.5771 29.8745 63.4913 30.7837 64.4066C31.5744 65.2026 32.3667 65.997 33.1596 66.7908C33.4956 67.1277 33.8311 67.465 34.1662 67.8027C34.6341 68.2742 35.1037 68.7439 35.5738 69.2132C35.7115 69.3527 35.8492 69.4922 35.991 69.6359C36.6954 70.3353 37.3009 70.7862 38.201 71.2207C38.2545 71.3293 38.308 71.4379 38.3631 71.5498C38.6352 72.0884 38.9974 72.4339 39.4243 72.8602C39.5115 72.9479 39.5988 73.0355 39.6887 73.1258C39.9809 73.4189 40.2745 73.7107 40.568 74.0025C40.778 74.2125 40.9878 74.4226 41.1976 74.6327C41.7671 75.2028 42.3377 75.7718 42.9086 76.3406C43.5051 76.9352 44.1005 77.5309 44.696 78.1265C45.8238 79.2542 46.9525 80.3808 48.0816 81.5072C49.367 82.7896 50.6514 84.073 51.9356 85.3565C54.5774 87.9967 57.2205 90.6356 59.8645 93.2736C59.0571 93.8123 58.203 93.9143 57.2607 94.1075C56.9884 94.1666 56.9884 94.1666 56.7106 94.2269C53.6572 94.8619 50.6278 95.0116 47.5168 94.9993C47.3377 94.999 47.1585 94.9987 46.974 94.9983C44.3201 94.9899 41.738 94.8956 39.1268 94.3855C38.9607 94.3556 38.7947 94.3258 38.6235 94.2951C27.5492 92.2894 16.9001 85.9779 10.0571 76.9656C9.97996 76.8655 9.90281 76.7653 9.82332 76.6622C8.4007 74.8099 7.15229 72.8715 5.98365 70.8501C5.91065 70.7246 5.83764 70.5991 5.76242 70.4698C3.32162 66.2225 1.72825 61.4831 0.741382 56.6964C0.714083 56.5647 0.686784 56.433 0.658658 56.2973C0.105896 53.3985 -0.0107845 50.5009 0.000752604 47.558C0.00109011 47.3787 0.00142762 47.1994 0.00177535 47.0147C0.0101867 44.3585 0.104411 41.7741 0.614087 39.1607C0.658794 38.9114 0.658794 38.9114 0.704405 38.657C2.70829 27.5731 9.01434 16.9147 18.0189 10.0658C18.1189 9.98861 18.219 9.91139 18.322 9.83183C20.1727 8.40798 22.1094 7.15848 24.1291 5.98884C24.2545 5.91577 24.3799 5.8427 24.5091 5.76741C28.7526 3.3245 33.488 1.72975 38.2705 0.742025C38.4021 0.714702 38.5337 0.687379 38.6692 0.659229C41.5656 0.105988 44.4606 -0.0107939 47.4011 0.000753256Z" fill="#32BA7C"/>
<path d="M78.7503 31.3774C79.7787 32.0765 80.647 32.8814 81.5165 33.7692C82.0944 34.3581 82.689 34.9077 83.3156 35.4436C83.9198 35.9748 84.5051 36.5255 85.0919 37.076C86.1227 38.0425 87.1588 39.0024 88.2012 39.9564C88.7827 40.4886 89.3619 41.0233 89.9407 41.5583C90.0399 41.65 90.1392 41.7417 90.2414 41.8361C90.7607 42.316 91.2793 42.7964 91.7974 43.2776C91.9031 43.3757 92.0089 43.4738 92.1178 43.5748C92.3172 43.7598 92.5165 43.9449 92.7155 44.1303C92.8075 44.2156 92.8996 44.3009 92.9944 44.3888C93.0852 44.4756 93.1759 44.5623 93.2695 44.6517C93.5602 44.9172 93.5602 44.9172 93.9177 45.1234C94.3277 45.3939 94.5813 45.6095 94.859 46.0176C95.037 46.913 95.0081 47.7968 94.9747 48.7047C94.9693 48.9647 94.9642 49.2247 94.9593 49.4847C94.9075 51.6301 94.6974 53.7302 94.3035 55.8394C94.2737 56.0062 94.2439 56.1731 94.2132 56.345C92.1904 67.4323 85.9125 78.0784 76.8987 84.9343C76.7987 85.0115 76.6986 85.0887 76.5955 85.1683C74.7449 86.5922 72.8082 87.8417 70.7885 89.0113C70.6631 89.0844 70.5377 89.1574 70.4085 89.2327C68.7704 90.1757 67.0774 90.9425 65.3263 91.6521C65.1442 91.7263 64.9621 91.8005 64.7744 91.8769C63.1523 92.5167 61.557 92.9606 59.8642 93.4589C52.6542 86.2427 45.4441 79.0264 38.0156 71.5914C38.7563 71.4061 38.7563 71.4061 39.1266 71.5914C39.4879 71.6292 39.8512 71.6496 40.2144 71.6609C40.5058 71.6745 40.5058 71.6745 40.8031 71.6884C43.6194 71.3144 45.2113 69.3926 47.1205 67.4648C47.4547 67.1321 47.7892 66.7996 48.1239 66.4674C48.9351 65.6608 49.7433 64.8512 50.55 64.04C51.2061 63.3803 51.8635 62.722 52.5218 62.0645C52.6158 61.9706 52.7098 61.8767 52.8067 61.78C52.9976 61.5893 53.1886 61.3986 53.3796 61.2078C55.1669 59.4226 56.9503 57.6335 58.7323 55.843C60.2587 54.3094 61.7885 52.7793 63.3209 51.2517C65.1038 49.4741 66.8846 47.6945 68.6621 45.9115C68.8519 45.7211 69.0417 45.5307 69.2316 45.3403C69.325 45.2466 69.4183 45.1529 69.5146 45.0564C70.1702 44.3991 70.8273 43.7433 71.4851 43.088C72.3716 42.2048 73.2546 41.3181 74.1354 40.4291C74.4585 40.104 74.7826 39.7801 75.1079 39.4573C77.7731 36.9086 77.7731 36.9086 78.8407 33.4767C78.8347 33.2247 78.824 32.9726 78.8081 32.721C78.8039 32.5896 78.7998 32.4582 78.7955 32.3229C78.7848 32.0075 78.7682 31.6924 78.7503 31.3774Z" fill="#0AA06E"/>
<path d="M71.8185 24.0465C72.6961 24.609 73.4317 25.3203 74.1673 26.0526C74.5254 26.408 74.8885 26.7578 75.2519 27.1078C75.5154 27.3648 75.7787 27.622 76.0417 27.8795C76.165 27.9989 76.2883 28.1183 76.4153 28.2413C77.8443 29.6625 78.9117 31.102 79.0158 33.1611C78.8956 36.24 76.8545 37.9077 74.7947 39.9512C74.4604 40.2875 74.1264 40.6241 73.7927 40.961C72.9823 41.7773 72.1689 42.5906 71.354 43.4025C70.6913 44.0628 70.0299 44.7244 69.3694 45.3869C69.2751 45.4815 69.1808 45.5761 69.0836 45.6736C68.892 45.8658 68.7004 46.0579 68.5088 46.2501C66.7153 48.0488 64.918 49.8436 63.1192 51.6369C61.5785 53.1731 60.0413 54.7127 58.5066 56.2547C56.7208 58.049 54.933 59.8411 53.1417 61.6299C52.9505 61.8209 52.7592 62.012 52.5679 62.203C52.4738 62.297 52.3797 62.391 52.2827 62.4878C51.6224 63.1476 50.9635 63.8089 50.3052 64.4709C49.4178 65.3631 48.527 66.2517 47.6339 67.1381C47.3074 67.4632 46.9819 67.7894 46.6577 68.1168C43.3882 71.4154 43.3882 71.4154 40.8676 71.9063C38.713 71.8976 37.1094 70.9913 35.5962 69.4962C35.4521 69.3483 35.3081 69.2004 35.1596 69.048C35.0007 68.8894 34.8417 68.7307 34.6779 68.5673C34.2478 68.137 33.8203 67.7043 33.3938 67.2704C32.9439 66.8138 32.4909 66.3603 32.0383 65.9065C31.2793 65.1447 30.5225 64.3809 29.767 63.6156C28.7055 62.5403 27.6403 61.4688 26.5743 60.3979C25.7416 59.561 24.9098 58.7231 24.0783 57.8851C23.99 57.7962 23.9018 57.7073 23.8109 57.6157C23.223 57.0233 22.6361 56.4299 22.0496 55.8362C21.9037 55.689 21.7577 55.5419 21.6074 55.3903C20.8474 54.6193 20.115 53.8346 19.4126 53.0106C19.0507 52.6002 18.6603 52.2274 18.2623 51.8525C17.2895 50.9325 16.5427 50.1167 16.1664 48.7973C16.1206 48.6482 16.0747 48.4991 16.0275 48.3455C15.852 46.5449 15.9623 45.1335 17.1139 43.6641C17.5416 43.1873 17.9783 42.7273 18.4297 42.2732C18.7998 41.8988 19.1631 41.5184 19.5267 41.1377C19.7989 40.8568 20.0713 40.5762 20.344 40.2958C20.4706 40.1636 20.5971 40.0313 20.7275 39.8951C22.1416 38.4646 23.5737 37.4746 25.621 37.435C25.8523 37.428 26.0836 37.4211 26.3218 37.414C28.6861 37.568 30.0393 39.1853 31.5938 40.7794C31.8441 41.032 32.0947 41.2844 32.3455 41.5365C33.0012 42.197 33.6535 42.8608 34.3051 43.5253C34.9722 44.2044 35.6424 44.8802 36.3124 45.5564C37.6237 46.8807 38.9314 48.2085 40.2369 49.5385C40.9539 49.2459 41.4354 48.7591 41.9691 48.2162C42.0669 48.1183 42.1646 48.0204 42.2654 47.9195C42.5927 47.5912 42.9187 47.2616 43.2447 46.932C43.4792 46.6963 43.7137 46.4607 43.9484 46.2252C44.4536 45.7176 44.9583 45.2096 45.4626 44.7011C46.2608 43.8963 47.0605 43.093 47.8605 42.29C49.848 40.2945 51.8337 38.2973 53.8186 36.2991C55.3598 34.7475 56.9017 33.1965 58.4455 31.6475C59.24 30.8502 60.0332 30.0516 60.8254 29.2521C61.32 28.7535 61.8158 28.256 62.3119 27.7589C62.5407 27.5292 62.769 27.2989 62.9968 27.0682C65.4179 24.6169 68.2118 22.3334 71.8185 24.0465Z" fill="#FEFEFE"/>
<path d="M47.4011 0.000753256C47.5802 0.00109106 47.7593 0.00142886 47.9438 0.00177689C50.5977 0.0101955 53.1799 0.104501 55.791 0.614619C56.0401 0.659365 56.0401 0.659365 56.2943 0.705015C67.3686 2.71063 78.0178 9.02215 84.8607 18.0345C84.9379 18.1346 85.015 18.2347 85.0945 18.3379C86.5171 20.1902 87.7656 22.1286 88.9342 24.15C89.0072 24.2755 89.0802 24.401 89.1554 24.5303C92.8058 30.8824 95.0721 38.6545 94.8592 46.0175C93.9569 45.4849 93.2758 44.8295 92.552 44.0738C92.0494 43.5763 91.5236 43.1163 90.9896 42.653C90.3675 42.1063 89.7672 41.5368 89.1656 40.9676C88.1034 39.9667 87.0351 38.9735 85.9579 37.9887C85.3745 37.4547 84.7933 36.9181 84.2127 36.381C83.25 35.4909 82.2864 34.6018 81.3189 33.717C80.9615 33.39 80.6052 33.0618 80.2499 32.7325C80.0835 32.5796 79.9172 32.4267 79.7458 32.2692C79.5982 32.1328 79.4507 31.9964 79.2988 31.8559C78.9654 31.5239 78.9654 31.5239 78.5654 31.5627C78.4852 31.3639 78.405 31.1652 78.3223 30.9604C77.7752 29.8747 76.9379 29.0413 76.0994 28.1775C75.8824 27.9537 75.6667 27.7286 75.452 27.5026C72.7697 24.654 72.7697 24.654 69.0992 23.7099C66.0396 23.708 64.158 26.1366 62.1349 28.1552C61.8256 28.4649 61.5167 28.7751 61.2078 29.0853C60.9813 29.312 60.7547 29.5387 60.5282 29.7654C59.9204 30.3736 59.3132 30.9824 58.7061 31.5913C58.0689 32.2303 57.4312 32.8687 56.7935 33.5071C55.5892 34.713 54.3854 35.9194 53.1818 37.1259C51.8102 38.5008 50.438 39.8752 49.0658 41.2495C46.2459 44.0737 43.4268 46.8986 40.6081 49.7239C39.8693 49.3825 39.3706 48.8982 38.81 48.3192C38.7063 48.2137 38.6026 48.1082 38.4958 47.9995C38.271 47.7706 38.0466 47.5414 37.8226 47.3118C37.467 46.9477 37.1099 46.585 36.7523 46.2228C35.7357 45.193 34.7206 44.1617 33.7095 43.1264C33.0904 42.4928 32.4686 41.8619 31.8449 41.2327C31.6087 40.9933 31.3735 40.7529 31.1394 40.5114C29.6827 39.0095 28.5152 37.8848 26.3683 37.5732C23.765 37.5761 22.4215 38.4955 20.6111 40.2726C20.4878 40.3915 20.3645 40.5104 20.2375 40.6329C19.8161 41.0397 19.3974 41.4491 18.9794 41.8594C18.8443 41.9906 18.7092 42.1218 18.57 42.257C17.2369 43.5834 16.182 44.9565 16.1095 46.8978C16.1626 49.251 17.2804 50.7138 18.91 52.2951C19.1662 52.5451 19.422 52.7956 19.6773 53.0465C19.79 53.1559 19.9026 53.2653 20.0186 53.378C20.3611 53.7336 20.6819 54.0959 21.0032 54.4703C21.7249 55.2977 22.4871 56.0779 23.2623 56.8548C23.4106 57.0042 23.5589 57.1535 23.7117 57.3074C24.1977 57.7965 24.6844 58.285 25.1713 58.7733C25.3383 58.9409 25.5053 59.1086 25.6773 59.2813C26.4688 60.076 27.2606 60.8703 28.0529 61.6641C28.9644 62.5771 29.8745 63.4913 30.7837 64.4066C31.5744 65.2026 32.3667 65.997 33.1596 66.7908C33.4956 67.1277 33.8311 67.465 34.1662 67.8027C34.6341 68.2742 35.1037 68.7439 35.5738 69.2132C35.7115 69.3527 35.8492 69.4922 35.991 69.6359C36.6954 70.3353 37.3009 70.7862 38.201 71.2207C38.2545 71.3293 38.308 71.4379 38.3631 71.5498C38.6352 72.0884 38.9974 72.4339 39.4243 72.8602C39.5115 72.9479 39.5988 73.0355 39.6887 73.1258C39.9809 73.4189 40.2745 73.7107 40.568 74.0025C40.778 74.2125 40.9878 74.4226 41.1976 74.6327C41.7671 75.2028 42.3377 75.7718 42.9086 76.3406C43.5051 76.9352 44.1005 77.5309 44.696 78.1265C45.8238 79.2542 46.9525 80.3808 48.0816 81.5072C49.367 82.7896 50.6514 84.073 51.9356 85.3565C54.5774 87.9967 57.2205 90.6356 59.8645 93.2736C59.0571 93.8123 58.203 93.9143 57.2607 94.1075C56.9884 94.1666 56.9884 94.1666 56.7106 94.2269C53.6572 94.8619 50.6278 95.0116 47.5168 94.9993C47.3377 94.999 47.1585 94.9987 46.974 94.9983C44.3201 94.9899 41.738 94.8956 39.1268 94.3855C38.9607 94.3556 38.7947 94.3258 38.6235 94.2951C27.5492 92.2894 16.9001 85.9779 10.0571 76.9656C9.97996 76.8655 9.90281 76.7653 9.82332 76.6622C8.4007 74.8099 7.15229 72.8715 5.98365 70.8501C5.91065 70.7246 5.83764 70.5991 5.76242 70.4698C3.32162 66.2225 1.72825 61.4831 0.741382 56.6964C0.714083 56.5647 0.686784 56.433 0.658658 56.2973C0.105896 53.3985 -0.0107845 50.5009 0.000752604 47.558C0.00109011 47.3787 0.00142762 47.1994 0.00177535 47.0147C0.0101867 44.3585 0.104411 41.7741 0.614087 39.1607C0.658794 38.9114 0.658794 38.9114 0.704405 38.657C2.70829 27.5731 9.01434 16.9147 18.0189 10.0658C18.1189 9.98861 18.219 9.91139 18.322 9.83183C20.1727 8.40798 22.1094 7.15848 24.1291 5.98884C24.2545 5.91577 24.3799 5.8427 24.5091 5.76741C28.7526 3.3245 33.488 1.72975 38.2705 0.742025C38.4021 0.714702 38.5337 0.687379 38.6692 0.659229C41.5656 0.105988 44.4606 -0.0107939 47.4011 0.000753256Z" fill="#32BA7C"/>
<path d="M71.8185 24.0465C72.6961 24.609 73.4317 25.3203 74.1673 26.0526C74.5254 26.408 74.8885 26.7578 75.2519 27.1078C75.5154 27.3648 75.7787 27.622 76.0417 27.8795C76.165 27.9989 76.2883 28.1183 76.4153 28.2413C77.8443 29.6625 78.9117 31.102 79.0158 33.1611C78.8956 36.24 76.8545 37.9077 74.7947 39.9512C74.4604 40.2875 74.1264 40.6241 73.7927 40.961C72.9823 41.7773 72.1689 42.5906 71.354 43.4025C70.6913 44.0628 70.0299 44.7244 69.3694 45.3869C69.2751 45.4815 69.1808 45.5761 69.0836 45.6736C68.892 45.8658 68.7004 46.0579 68.5088 46.2501C66.7153 48.0488 64.918 49.8436 63.1192 51.6369C61.5785 53.1731 60.0413 54.7127 58.5066 56.2547C56.7208 58.049 54.933 59.8411 53.1417 61.6299C52.9505 61.8209 52.7592 62.012 52.5679 62.203C52.4738 62.297 52.3797 62.391 52.2827 62.4878C51.6224 63.1476 50.9635 63.8089 50.3052 64.4709C49.4178 65.3631 48.527 66.2517 47.6339 67.1381C47.3074 67.4632 46.9819 67.7894 46.6577 68.1168C43.3882 71.4154 43.3882 71.4154 40.8676 71.9063C38.713 71.8976 37.1094 70.9913 35.5962 69.4962C35.4521 69.3483 35.3081 69.2004 35.1596 69.048C35.0007 68.8894 34.8417 68.7307 34.6779 68.5673C34.2478 68.137 33.8203 67.7043 33.3938 67.2704C32.9439 66.8138 32.4909 66.3603 32.0383 65.9065C31.2793 65.1447 30.5225 64.3809 29.767 63.6156C28.7055 62.5403 27.6403 61.4688 26.5743 60.3979C25.7416 59.561 24.9098 58.7231 24.0783 57.8851C23.99 57.7962 23.9018 57.7073 23.8109 57.6157C23.223 57.0233 22.6361 56.4299 22.0496 55.8362C21.9037 55.689 21.7577 55.5419 21.6074 55.3903C20.8474 54.6193 20.115 53.8346 19.4126 53.0106C19.0507 52.6002 18.6603 52.2274 18.2623 51.8525C17.2895 50.9325 16.5427 50.1167 16.1664 48.7973C16.1206 48.6482 16.0747 48.4991 16.0275 48.3455C15.852 46.5449 15.9623 45.1335 17.1139 43.6641C17.5416 43.1873 17.9783 42.7273 18.4297 42.2732C18.7998 41.8988 19.1631 41.5184 19.5267 41.1377C19.7989 40.8568 20.0713 40.5762 20.344 40.2958C20.4706 40.1636 20.5971 40.0313 20.7275 39.8951C22.1416 38.4646 23.5737 37.4746 25.621 37.435C25.8523 37.428 26.0836 37.4211 26.3218 37.414C28.6861 37.568 30.0393 39.1853 31.5938 40.7794C31.8441 41.032 32.0947 41.2844 32.3455 41.5365C33.0012 42.197 33.6535 42.8608 34.3051 43.5253C34.9722 44.2044 35.6424 44.8802 36.3124 45.5564C37.6237 46.8807 38.9314 48.2085 40.2369 49.5385C40.9539 49.2459 41.4354 48.7591 41.9691 48.2162C42.0669 48.1183 42.1646 48.0204 42.2654 47.9195C42.5927 47.5912 42.9187 47.2616 43.2447 46.932C43.4792 46.6963 43.7137 46.4607 43.9484 46.2252C44.4536 45.7176 44.9583 45.2096 45.4626 44.7011C46.2608 43.8963 47.0605 43.093 47.8605 42.29C49.848 40.2945 51.8337 38.2973 53.8186 36.2991C55.3598 34.7475 56.9017 33.1965 58.4455 31.6475C59.24 30.8502 60.0332 30.0516 60.8254 29.2521C61.32 28.7535 61.8158 28.256 62.3119 27.7589C62.5407 27.5292 62.769 27.2989 62.9968 27.0682C65.4179 24.6169 68.2118 22.3334 71.8185 24.0465Z" fill="#FEFEFE"/>
</svg>
