<svg width="65" height="61" viewBox="0 0 65 61" fill="none" xmlns="http://www.w3.org/2000/svg">
<path d="M30.0124 0.252918C28.3332 0.753487 26.7291 1.83366 25.5261 3.25633C24.5235 4.46823 2.94372 43.3544 1.41484 46.7267C-0.865955 51.7587 1.26445 57.7655 6.17693 60.1893L7.60555 60.9007L31.8922 60.9797C53.5723 61.0324 56.3293 61.0061 57.5824 60.6109C60.4146 59.7678 62.4448 57.8446 63.7982 54.8148C64.3997 53.4712 64.5 52.9179 64.5 50.8893C64.4749 48.9924 64.3747 48.2547 63.9235 47.2009C63.5977 46.4896 58.2592 36.61 52.0183 25.255C44.2987 11.1337 40.3136 4.12574 39.4865 3.17729C37.7571 1.17502 35.7019 0.173882 33.1454 0.0158081C31.9674 -0.0368843 30.7142 0.0421562 30.0124 0.252918ZM34.5239 18.5632C34.8748 18.8266 35.4011 19.4853 35.6518 19.9858C36.153 20.9079 36.153 21.066 35.7019 29.8391C35.4763 34.7658 35.1755 39.2182 35.0252 39.7451C34.7244 41.0097 33.7469 41.8001 32.5188 41.8001C31.3158 41.8001 30.1127 40.7726 29.9373 39.6134C29.8621 39.1391 29.6114 35.2663 29.4109 30.9983C29.1853 26.7303 28.9598 22.9629 28.8846 22.6204C28.7342 21.7773 29.1853 20.1439 29.837 19.2745C30.9398 17.7991 33.1203 17.4566 34.5239 18.5632ZM34.5239 45.146C36.6042 46.753 36.4538 50.257 34.2482 51.4426C31.8421 52.7335 29.035 50.9947 29.035 48.2284C29.035 45.304 32.3434 43.4598 34.5239 45.146Z" fill="#FFC300"/>
</svg>
