<svg width="242" height="258" viewBox="0 0 242 258" fill="none" xmlns="http://www.w3.org/2000/svg">
<path d="M97 29C103.93 29 110.86 29 118 29C118.99 30.98 119.98 32.96 121 35C125.594 39.1461 128.067 40.1246 134.19 40.177C135.492 40.1898 136.794 40.2027 138.135 40.2159C139.564 40.2241 140.993 40.2315 142.422 40.2383C143.141 40.2424 143.86 40.2464 144.6 40.2506C148.407 40.2715 152.213 40.2858 156.02 40.2952C159.945 40.3062 163.87 40.3406 167.795 40.3803C170.818 40.4065 173.841 40.4149 176.865 40.4184C178.311 40.4233 179.757 40.4349 181.204 40.4535C183.233 40.4779 185.263 40.4745 187.292 40.47C188.445 40.4758 189.598 40.4817 190.786 40.4877C195.534 39.7672 198.674 37.5086 201.812 33.9375C203.156 31.9099 203.156 31.9099 204 29C213.57 29 223.14 29 233 29C233 93.68 233 158.36 233 225C188.12 225 143.24 225 97 225C97 222.36 97 219.72 97 217C99.64 217 102.28 217 105 217C105 214.36 105 211.72 105 209C102.36 209 99.72 209 97 209C97 187.22 97 165.44 97 143C98.32 143.33 99.64 143.66 101 144C104.954 144.298 108.911 144.323 112.875 144.375C114.49 144.431 114.49 144.431 116.137 144.488C122.895 144.65 122.895 144.65 128.695 141.602C133.125 136.601 132.292 131.691 132.375 125.25C132.412 124.165 132.45 123.079 132.488 121.961C132.66 115.148 132.66 115.148 129.602 109.297C124.564 104.849 119.659 105.816 113.188 105.812C112.094 105.8 111 105.788 109.873 105.775C108.815 105.773 107.758 105.772 106.668 105.77C105.218 105.763 105.218 105.763 103.739 105.757C100.821 106.016 98.6498 106.783 96 108C96.33 105.36 96.66 102.72 97 100C98.2787 99.7577 99.5575 99.5153 100.875 99.2656C102.583 98.9277 104.292 98.5891 106 98.25C106.839 98.0927 107.678 97.9355 108.543 97.7734C118.446 95.7775 125.136 92.299 131.188 84C134.179 79.0489 135.289 75.032 135.688 69.25C135.774 68.1002 135.86 66.9503 135.949 65.7656C135.966 64.853 135.983 63.9403 136 63C135.67 62.67 135.34 62.34 135 62C126.783 62.2254 118.495 63.8794 110.375 65.0625C105.961 65.7019 101.548 66.3413 97 67C97 54.46 97 41.92 97 29ZM142 63C139.962 67.0767 140.639 72.2063 140.562 76.6875C140.517 77.7645 140.471 78.8415 140.424 79.9512C140.348 85.2959 140.37 89.002 143.902 93.207C148.836 98.1148 154.037 97.3241 160.688 97.4375C161.765 97.4833 162.842 97.529 163.951 97.5762C169.296 97.6515 173.002 97.6303 177.207 94.0977C182.115 89.1644 181.324 83.9633 181.438 77.3125C181.483 76.2355 181.529 75.1585 181.576 74.0488C181.652 68.7041 181.63 64.998 178.098 60.793C173.164 55.8852 167.963 56.6759 161.312 56.5625C160.235 56.5167 159.158 56.471 158.049 56.4238C150.869 56.3226 146.602 57.2578 142 63ZM190 63C187.962 67.0767 188.639 72.2063 188.562 76.6875C188.517 77.7645 188.471 78.8415 188.424 79.9512C188.348 85.2959 188.37 89.002 191.902 93.207C196.836 98.1148 202.037 97.3241 208.688 97.4375C209.765 97.4833 210.842 97.529 211.951 97.5762C217.296 97.6515 221.002 97.6303 225.207 94.0977C230.115 89.1644 229.324 83.9633 229.438 77.3125C229.483 76.2355 229.529 75.1585 229.576 74.0488C229.652 68.7041 229.63 64.998 226.098 60.793C221.164 55.8852 215.963 56.6759 209.312 56.5625C208.235 56.5167 207.158 56.471 206.049 56.4238C198.869 56.3226 194.602 57.2578 190 63ZM142 111C139.962 115.077 140.639 120.206 140.562 124.688C140.517 125.765 140.471 126.842 140.424 127.951C140.348 133.296 140.37 137.002 143.902 141.207C148.836 146.115 154.037 145.324 160.688 145.438C161.765 145.483 162.842 145.529 163.951 145.576C169.296 145.652 173.002 145.63 177.207 142.098C182.115 137.164 181.324 131.963 181.438 125.312C181.483 124.235 181.529 123.158 181.576 122.049C181.652 116.704 181.63 112.998 178.098 108.793C173.164 103.885 167.963 104.676 161.312 104.562C160.235 104.517 159.158 104.471 158.049 104.424C150.869 104.323 146.602 105.258 142 111ZM190 111C187.962 115.077 188.639 120.206 188.562 124.688C188.517 125.765 188.471 126.842 188.424 127.951C188.348 133.296 188.37 137.002 191.902 141.207C196.836 146.115 202.037 145.324 208.688 145.438C209.765 145.483 210.842 145.529 211.951 145.576C217.296 145.652 221.002 145.63 225.207 142.098C230.115 137.164 229.324 131.963 229.438 125.312C229.483 124.235 229.529 123.158 229.576 122.049C229.652 116.704 229.63 112.998 226.098 108.793C221.164 103.885 215.963 104.676 209.312 104.562C208.235 104.517 207.158 104.471 206.049 104.424C198.869 104.323 194.602 105.258 190 111ZM113 209C113 211.64 113 214.28 113 217C149.96 217 186.92 217 225 217C225 214.36 225 211.72 225 209C188.04 209 151.08 209 113 209Z" fill="#B4EEFE"/>
<path d="M101.198 0.852829C102.275 0.845674 103.351 0.838518 104.461 0.831146C105.642 0.828457 106.823 0.825768 108.04 0.822998C109.284 0.816427 110.529 0.809856 111.811 0.803085C115.939 0.783332 120.068 0.771682 124.196 0.761719C125.62 0.75767 127.043 0.753553 128.466 0.749369C135.157 0.730317 141.848 0.716088 148.539 0.707757C156.249 0.697996 163.959 0.671706 171.67 0.631256C177.637 0.601031 183.604 0.586282 189.571 0.582976C193.131 0.580632 196.691 0.571756 200.251 0.546515C204.229 0.518764 208.207 0.523084 212.185 0.530029C213.939 0.510814 213.939 0.510814 215.728 0.491211C223.509 0.540624 230.315 1.52104 236.157 7.03516C236.6 7.70418 237.044 8.3732 237.501 9.0625C237.965 9.7341 238.429 10.4057 238.907 11.0977C241.454 15.527 241.149 19.8943 241.148 24.8421C241.152 25.7571 241.155 26.6721 241.159 27.6148C241.17 30.6939 241.174 33.773 241.178 36.8521C241.184 39.0546 241.191 41.2572 241.198 43.4597C241.215 49.4538 241.226 55.4478 241.234 61.4418C241.239 65.1863 241.245 68.9307 241.251 72.6751C241.268 83.0465 241.283 93.4178 241.29 103.789C241.292 106.48 241.294 109.171 241.296 111.862C241.296 112.531 241.297 113.2 241.297 113.889C241.306 124.718 241.331 135.546 241.363 146.374C241.397 157.497 241.414 168.62 241.418 179.743C241.42 185.986 241.429 192.228 241.454 198.471C241.478 204.346 241.482 210.221 241.471 216.097C241.471 218.25 241.477 220.404 241.491 222.558C241.509 225.504 241.502 228.45 241.488 231.396C241.499 232.243 241.51 233.09 241.522 233.963C241.452 240.451 239.958 246.573 235.624 251.595C228.805 257.704 221.23 257.297 212.605 257.291C210.735 257.301 210.735 257.301 208.828 257.311C205.421 257.327 202.014 257.333 198.607 257.335C196.475 257.336 194.343 257.34 192.212 257.346C184.765 257.364 177.319 257.372 169.873 257.371C162.946 257.369 156.02 257.391 149.093 257.422C143.134 257.448 137.174 257.459 131.215 257.458C127.661 257.457 124.107 257.463 120.553 257.484C116.587 257.507 112.622 257.498 108.656 257.486C107.487 257.497 106.319 257.508 105.116 257.52C97.8436 257.464 92.0157 256.644 86.4843 251.623C80.8001 245.354 80.7169 238.779 80.8054 230.789C80.8083 229.821 80.8111 228.853 80.814 227.855C80.8252 224.778 80.8502 221.702 80.8757 218.625C80.8858 216.533 80.8949 214.44 80.9031 212.348C80.9251 207.232 80.9596 202.116 81.0007 197C79.1299 197.021 79.1299 197.021 77.2212 197.042C66.3003 197.161 56.0704 192.69 48.1921 185.305C44.5979 181.461 43.0496 178.139 42.0007 173C40.3507 173 38.7007 173 37.0007 173C37.0239 173.699 37.0471 174.397 37.0711 175.117C37.0891 176.027 37.1071 176.937 37.1257 177.875C37.1489 178.78 37.1721 179.685 37.1961 180.617C37.0007 183 37.0007 183 35.0007 185C31.8679 185.259 31.8679 185.259 27.8757 185.266C27.173 185.268 26.4703 185.269 25.7463 185.271C24.2602 185.273 22.774 185.269 21.2878 185.261C19.0096 185.25 16.7321 185.261 14.4539 185.273C13.0112 185.272 11.5684 185.27 10.1257 185.266C8.80832 185.263 7.4909 185.261 6.13355 185.259C3.00074 185 3.00074 185 1.00074 183C0.802264 180.33 0.728002 177.764 0.741951 175.094C0.738447 174.277 0.734942 173.461 0.731331 172.62C0.722507 169.913 0.728365 167.207 0.735115 164.5C0.733769 162.624 0.731828 160.749 0.729317 158.873C0.726365 154.939 0.730666 151.005 0.739998 147.07C0.751393 142.019 0.74483 136.968 0.732849 131.917C0.725633 128.043 0.727921 124.169 0.733109 120.295C0.734446 118.432 0.732795 116.57 0.72815 114.707C0.723089 112.106 0.730788 109.507 0.741951 106.906C0.737903 106.131 0.733854 105.356 0.729683 104.557C0.772212 99.2285 0.772212 99.2285 3.00074 97C6.13355 96.7412 6.13355 96.7412 10.1257 96.7344C10.8284 96.7325 11.5311 96.7305 12.2551 96.7286C13.7413 96.7272 15.2275 96.7309 16.7136 96.7393C18.9919 96.75 21.2694 96.7394 23.5476 96.7266C24.9903 96.7279 26.433 96.7304 27.8757 96.7344C29.1932 96.7366 30.5106 96.7389 31.8679 96.7412C35.0007 97 35.0007 97 37.0007 99C37.1257 102.125 37.1257 102.125 37.0007 105C38.6507 105 40.3007 105 42.0007 105C42.0033 104.394 42.0059 103.788 42.0086 103.164C42.4278 94.0804 46.1132 87.4689 52.6257 81.1875C60.1804 75.0394 71.2341 70.8182 81.0007 71C80.9919 70.3287 80.983 69.6574 80.9738 68.9658C80.8851 61.9576 80.8249 54.9496 80.781 47.9409C80.7609 45.3279 80.7337 42.7149 80.699 40.1021C80.6503 36.3388 80.6277 32.5761 80.6101 28.8125C80.5895 27.6507 80.5688 26.489 80.5476 25.292C80.5454 17.5289 81.347 11.6958 87.0359 5.94141C88.0394 5.25885 88.0394 5.25885 89.0632 4.5625C90.0706 3.85287 90.0706 3.85287 91.0984 3.12891C94.5131 1.10253 97.3166 0.870536 101.198 0.852829ZM91.1925 13.1289C89.5169 15.4904 89.5169 15.4904 89.0007 21C100.221 21.33 111.441 21.66 123.001 22C124.321 24.97 125.641 27.94 127.001 31C129.706 33.7055 131.146 33.2698 134.932 33.3064C136.177 33.3224 137.422 33.3384 138.704 33.3548C140.07 33.3612 141.436 33.3666 142.802 33.3711C144.199 33.3801 145.597 33.3892 146.994 33.3985C149.927 33.415 152.86 33.4226 155.793 33.4255C159.547 33.4309 163.298 33.4686 167.051 33.5143C169.94 33.5441 172.828 33.5513 175.717 33.5523C177.1 33.5565 178.483 33.5689 179.866 33.5898C181.804 33.6167 183.743 33.6088 185.682 33.5994C186.784 33.6044 187.886 33.6095 189.021 33.6147C193.058 32.7819 194.477 31.2107 197.001 28C197.661 26.02 198.321 24.04 199.001 22C210.221 21.67 221.441 21.34 233.001 21C231.885 14.275 231.885 14.275 227.287 10.1765C222.649 7.78988 217.675 8.17018 212.567 8.22363C211.329 8.21312 210.091 8.2026 208.815 8.19177C205.434 8.16995 202.055 8.17497 198.675 8.19405C195.128 8.2093 191.581 8.19513 188.034 8.18573C182.079 8.17483 176.125 8.18915 170.17 8.21777C163.297 8.25042 156.425 8.23985 149.552 8.20681C143.638 8.17954 137.725 8.17577 131.811 8.19145C128.284 8.20077 124.758 8.20212 121.232 8.18223C117.299 8.16159 113.367 8.19024 109.434 8.22363C107.693 8.20541 107.693 8.20541 105.917 8.18683C99.7252 8.28414 95.8343 8.88984 91.1925 13.1289ZM89.0007 29C89.0007 41.87 89.0007 54.74 89.0007 68C94.2333 68 97.8646 67.7705 102.813 66.6875C108.711 65.4425 114.62 64.3211 120.563 63.3125C121.313 63.1813 122.062 63.05 122.834 62.9148C126.928 62.2282 130.832 61.7623 135.001 62C136.001 63 136.001 63 136.055 65.5898C135.553 74.9503 133.659 81.8063 127.438 88.9375C118.576 96.4367 108.206 97.7235 97.0007 100C96.6707 102.64 96.3407 105.28 96.0007 108C96.7117 107.678 97.4227 107.355 98.1553 107.023C102.98 105.288 107.857 105.59 112.938 105.562C114.01 105.53 115.082 105.497 116.186 105.463C124.998 105.403 124.998 105.403 128.692 108.402C133.13 113.396 132.293 118.311 132.376 124.75C132.432 126.378 132.432 126.378 132.489 128.039C132.588 137.031 132.588 137.031 129.602 140.703C124.598 145.121 119.688 144.292 113.251 144.375C111.623 144.431 111.623 144.431 109.962 144.488C100.97 144.587 100.97 144.587 97.2976 141.602C94.5066 138.44 93.8856 136.951 93.6843 132.867C93.6424 132.062 93.6005 131.256 93.5574 130.426C93.4984 129.163 93.4984 129.163 93.4382 127.875C93.3951 127.026 93.3519 126.176 93.3074 125.301C93.2012 123.201 93.1005 121.1 93.0007 119C90.2936 122.531 88.8749 124.561 88.8805 129.037C88.8791 129.879 88.8777 130.722 88.8763 131.59C88.8799 132.519 88.8835 133.449 88.8872 134.407C88.8871 135.398 88.887 136.39 88.8868 137.411C88.8876 140.631 88.8952 143.851 88.9031 147.07C88.9046 149.054 88.9056 151.038 88.9061 153.021C88.9114 160.389 88.9253 167.757 88.9382 175.125C88.9589 191.584 88.9795 208.042 89.0007 225C136.521 225 184.041 225 233.001 225C233.001 160.32 233.001 95.64 233.001 29C223.431 29 213.861 29 204.001 29C203.011 30.98 202.021 32.96 201.001 35C196.406 39.1461 193.933 40.1246 187.81 40.177C186.508 40.1898 185.207 40.2027 183.865 40.2159C182.437 40.2241 181.008 40.2315 179.579 40.2383C178.86 40.2424 178.141 40.2464 177.401 40.2506C173.594 40.2715 169.788 40.2858 165.981 40.2952C162.056 40.3062 158.131 40.3406 154.206 40.3803C151.183 40.4065 148.16 40.4149 145.136 40.4184C143.69 40.4233 142.243 40.4349 140.797 40.4535C138.768 40.4779 136.738 40.4745 134.709 40.47C132.979 40.4788 132.979 40.4788 131.214 40.4877C126.467 39.7672 123.327 37.5086 120.188 33.9375C119.001 32 119.001 32 118.001 29C108.431 29 98.8607 29 89.0007 29ZM116.501 70.918C115.459 71.1178 114.418 71.3176 113.345 71.5234C112.242 71.7426 111.138 71.9617 110.001 72.1875C108.854 72.4131 107.707 72.6387 106.525 72.8711C103.015 73.5691 99.5071 74.2808 96.0007 75C94.9597 75.2135 93.9186 75.427 92.846 75.647C72.1368 79.1368 72.1368 79.1368 55.0007 90C51.1344 95.9841 49.3449 101.826 48.3601 108.848C48.0007 111 48.0007 111 47.0007 112C42.0507 112.495 42.0507 112.495 37.0007 113C37.0007 130.16 37.0007 147.32 37.0007 165C40.3007 165.33 43.6007 165.66 47.0007 166C47.2805 166.797 47.5602 167.593 47.8484 168.414C51.3274 177.609 54.7377 182.253 63.6882 186.312C69.9877 188.53 69.9877 188.53 81.0007 189C81.0007 171.18 81.0007 153.36 81.0007 135C76.3807 136.65 71.7607 138.3 67.0007 140C64.0307 140.495 64.0307 140.495 61.0007 141C61.0007 138.36 61.0007 135.72 61.0007 133C61.5576 132.986 62.1145 132.972 62.6882 132.957C70.423 132.474 75.1369 129.731 80.6882 124.438C87.187 115.809 88.9612 105.489 90.0007 95C94.4091 93.3673 98.7028 92.019 103.325 91.1562C115.769 89.0709 115.769 89.0709 125.001 81C126.915 77.3961 128.001 74.1325 128.001 70C124.027 69.9142 120.4 70.1632 116.501 70.918ZM9.00074 105C9.00074 128.76 9.00074 152.52 9.00074 177C15.6007 177 22.2007 177 29.0007 177C29.0007 153.24 29.0007 129.48 29.0007 105C22.4007 105 15.8007 105 9.00074 105ZM101.001 115C100.691 117.098 100.691 117.098 100.735 119.5C100.733 120.387 100.73 121.274 100.727 122.188C100.735 123.116 100.743 124.044 100.751 125C100.743 125.928 100.735 126.856 100.727 127.812C100.73 128.699 100.732 129.586 100.735 130.5C100.737 131.315 100.74 132.129 100.742 132.969C100.819 135.226 100.819 135.226 103.001 137C105.099 137.31 105.099 137.31 107.501 137.266C108.831 137.269 108.831 137.269 110.188 137.273C111.58 137.262 111.58 137.262 113.001 137.25C113.929 137.258 114.857 137.265 115.813 137.273C116.7 137.271 117.587 137.268 118.501 137.266C119.723 137.262 119.723 137.262 120.969 137.259C123.227 137.182 123.227 137.182 125.001 135C125.311 132.902 125.311 132.902 125.266 130.5C125.269 129.613 125.272 128.726 125.274 127.812C125.266 126.884 125.259 125.956 125.251 125C125.258 124.072 125.266 123.144 125.274 122.188C125.27 120.857 125.27 120.857 125.266 119.5C125.264 118.685 125.262 117.871 125.26 117.031C125.182 114.774 125.182 114.774 123.001 113C120.903 112.69 120.903 112.69 118.501 112.734C117.17 112.731 117.17 112.731 115.813 112.727C114.885 112.734 113.957 112.742 113.001 112.75C111.609 112.738 111.609 112.738 110.188 112.727C109.301 112.729 108.414 112.732 107.501 112.734C106.686 112.737 105.871 112.739 105.032 112.741C102.774 112.818 102.774 112.818 101.001 115ZM89.0007 233C88.4562 240.279 88.4562 240.279 91.8757 244.938C92.4094 245.503 92.9431 246.069 93.4929 246.652C96.3103 249.17 98.3724 249.134 102.054 249.161C103.123 249.171 104.193 249.181 105.295 249.191C106.474 249.197 107.652 249.203 108.867 249.209C110.104 249.219 111.342 249.228 112.617 249.238C116.728 249.268 120.839 249.29 124.95 249.309C125.65 249.312 126.349 249.315 127.07 249.319C133.67 249.349 140.27 249.376 146.87 249.393C155.308 249.415 163.745 249.457 172.183 249.526C178.118 249.574 184.052 249.598 189.987 249.605C193.531 249.61 197.073 249.625 200.617 249.665C204.574 249.709 208.53 249.705 212.488 249.697C214.241 249.727 214.241 249.727 216.029 249.758C222.436 249.7 226.206 249.109 230.812 244.483C234.045 240.45 233.001 239.367 233.001 233C185.481 233 137.961 233 89.0007 233Z" fill="#010202"/>
<path d="M120 71.9998C118.821 78.6014 116.565 83.0518 112 87.9998C109.239 89.8408 107.959 90.3793 104.84 90.9998C104.046 91.1648 103.253 91.3298 102.436 91.4998C100.766 91.8339 99.0972 92.1673 97.4277 92.4998C96.2395 92.7473 96.2395 92.7473 95.0273 92.9998C93.9405 93.2164 93.9405 93.2164 92.8318 93.4373C90.7752 93.9124 90.7752 93.9124 89 95.9998C86.3446 96.565 83.7086 96.7377 81 96.9998C81.1547 98.5158 81.1547 98.5158 81.3125 100.062C81.3519 107.382 78.1498 115.715 74.8828 122.226C73.792 124.229 73.792 124.229 73.25 127.625C72 131 72 131 69.1875 132.437C66.3595 132.936 63.8602 133.168 61 133C61 135.64 61 138.28 61 141C66.94 140.505 66.94 140.505 73 140C73 155.51 73 171.02 73 187C64.4881 187 59.3355 185.118 53.125 179.312C50.3817 175.036 48.7415 170.773 47 166C43.7 165.67 40.4 165.34 37 165C37 147.84 37 130.68 37 113C41.95 112.505 41.95 112.505 47 112C48.6267 110.373 48.4361 108.3 48.75 106.062C50.0702 98.6962 52.4159 91.8115 58.1875 86.7498C69.5859 79.3179 84.0034 77.1892 97.125 74.6248C97.8011 74.4914 98.4772 74.358 99.1739 74.2205C106.172 72.855 112.859 71.6182 120 71.9998Z" fill="#FDDCCD"/>
<path d="M112.612 8.33698C113.811 8.32661 115.01 8.31624 116.245 8.30556C119.535 8.28307 122.823 8.28322 126.113 8.29526C128.861 8.30239 131.609 8.29389 134.358 8.28535C140.845 8.26538 147.333 8.27098 153.82 8.29303C160.505 8.31536 167.188 8.29784 173.872 8.25998C179.616 8.22869 185.36 8.22085 191.103 8.23193C194.532 8.23841 197.959 8.23648 201.387 8.21261C205.216 8.19264 209.042 8.21103 212.87 8.23932C214 8.2256 215.129 8.21189 216.293 8.19775C222.419 8.28814 226.203 8.9523 230.798 13.1281C232 14.9998 232 14.9998 233 20.9998C221.78 21.3298 210.56 21.6598 199 21.9998C197.68 24.9698 196.36 27.9398 195 30.9998C191.507 33.3285 190.071 33.2663 185.94 33.3062C184.692 33.3222 183.443 33.3382 182.157 33.3547C180.794 33.361 179.43 33.3664 178.066 33.3709C176.668 33.3799 175.269 33.389 173.871 33.3983C170.939 33.4148 168.008 33.4225 165.077 33.4254C161.323 33.4307 157.57 33.4684 153.816 33.5141C150.927 33.5439 148.039 33.5511 145.15 33.5521C143.766 33.5563 142.382 33.5687 140.999 33.5896C139.062 33.6165 137.126 33.6086 135.19 33.5992C134.088 33.6043 132.987 33.6093 131.853 33.6145C129 32.9998 129 32.9998 126.738 30.8374C125 27.9998 125 27.9998 123 21.9998C110.13 21.5048 110.13 21.5048 97 20.9998C98.7418 8.80702 101.102 8.25048 112.612 8.33698ZM145 16.9998C145 19.6398 145 22.2798 145 24.9998C155.56 24.9998 166.12 24.9998 177 24.9998C177 22.3598 177 19.7198 177 16.9998C166.44 16.9998 155.88 16.9998 145 16.9998Z" fill="#F0F4FA"/>
<path d="M97.0036 233C141.884 233 186.764 233 233.004 233C233.004 242.014 233.004 242.014 230.129 244.938C229.595 245.503 229.061 246.069 228.511 246.652C225.713 249.153 223.71 249.124 220.056 249.12C219.009 249.122 217.963 249.123 216.886 249.124C215.733 249.121 214.581 249.117 213.394 249.114C212.184 249.114 210.974 249.114 209.728 249.114C206.406 249.113 203.084 249.108 199.762 249.101C196.292 249.095 192.822 249.095 189.351 249.093C182.778 249.09 176.205 249.082 169.632 249.072C162.15 249.061 154.667 249.055 147.185 249.05C131.791 249.04 116.397 249.022 101.004 249C96.729 242.722 97.0036 241.826 97.0036 233Z" fill="#F1F5FB"/>
<path d="M208.687 104.562C209.764 104.517 210.841 104.471 211.951 104.424C217.295 104.348 221.002 104.37 225.207 107.902C230.114 112.836 229.324 118.037 229.437 124.687C229.483 125.764 229.529 126.842 229.576 127.951C229.651 133.296 229.63 137.002 226.097 141.207C221.164 146.115 215.963 145.324 209.312 145.437C208.235 145.483 207.158 145.529 206.048 145.576C200.704 145.652 196.997 145.63 192.792 142.098C187.885 137.164 188.675 131.963 188.562 125.312C188.516 124.235 188.47 123.158 188.423 122.049C188.348 116.704 188.369 112.998 191.902 108.793C196.835 103.885 202.036 104.676 208.687 104.562ZM196.999 115C196.69 117.098 196.69 117.098 196.734 119.5C196.731 120.387 196.729 121.274 196.726 122.187C196.734 123.116 196.742 124.044 196.749 125C196.742 125.928 196.734 126.856 196.726 127.812C196.729 128.699 196.731 129.586 196.734 130.5C196.736 131.315 196.738 132.129 196.741 132.969C196.818 135.226 196.818 135.226 198.999 137C201.098 137.31 201.098 137.31 203.499 137.266C204.83 137.269 204.83 137.269 206.187 137.273C207.579 137.262 207.579 137.262 208.999 137.25C209.928 137.258 210.856 137.265 211.812 137.273C212.699 137.271 213.586 137.268 214.499 137.266C215.722 137.262 215.722 137.262 216.968 137.259C219.226 137.182 219.226 137.182 220.999 135C221.309 132.902 221.309 132.902 221.265 130.5C221.268 129.613 221.27 128.726 221.273 127.812C221.265 126.884 221.257 125.956 221.249 125C221.257 124.072 221.265 123.144 221.273 122.187C221.269 120.857 221.269 120.857 221.265 119.5C221.263 118.685 221.261 117.871 221.258 117.031C221.181 114.774 221.181 114.774 218.999 113C216.901 112.69 216.901 112.69 214.499 112.734C213.169 112.73 213.169 112.73 211.812 112.727C210.884 112.734 209.956 112.742 208.999 112.75C207.607 112.738 207.607 112.738 206.187 112.727C205.3 112.729 204.413 112.732 203.499 112.734C202.685 112.737 201.87 112.739 201.031 112.741C198.773 112.818 198.773 112.818 196.999 115Z" fill="#020303"/>
<path d="M160.687 104.562C161.764 104.517 162.841 104.471 163.951 104.424C169.295 104.348 173.002 104.37 177.207 107.902C182.114 112.836 181.324 118.037 181.437 124.687C181.483 125.764 181.529 126.842 181.576 127.951C181.651 133.296 181.63 137.002 178.097 141.207C173.164 146.115 167.963 145.324 161.312 145.437C160.235 145.483 159.158 145.529 158.048 145.576C152.704 145.652 148.997 145.63 144.792 142.098C139.885 137.164 140.675 131.963 140.562 125.312C140.516 124.235 140.47 123.158 140.423 122.049C140.348 116.704 140.369 112.998 143.902 108.793C148.835 103.885 154.036 104.676 160.687 104.562ZM148.999 115C148.69 117.098 148.69 117.098 148.734 119.5C148.731 120.387 148.729 121.274 148.726 122.187C148.734 123.116 148.742 124.044 148.749 125C148.742 125.928 148.734 126.856 148.726 127.812C148.729 128.699 148.731 129.586 148.734 130.5C148.736 131.315 148.738 132.129 148.741 132.969C148.818 135.226 148.818 135.226 150.999 137C153.098 137.31 153.098 137.31 155.499 137.266C156.83 137.269 156.83 137.269 158.187 137.273C159.579 137.262 159.579 137.262 160.999 137.25C161.928 137.258 162.856 137.265 163.812 137.273C164.699 137.271 165.586 137.268 166.499 137.266C167.722 137.262 167.722 137.262 168.968 137.259C171.226 137.182 171.226 137.182 172.999 135C173.309 132.902 173.309 132.902 173.265 130.5C173.268 129.613 173.27 128.726 173.273 127.812C173.265 126.884 173.257 125.956 173.249 125C173.257 124.072 173.265 123.144 173.273 122.187C173.269 120.857 173.269 120.857 173.265 119.5C173.263 118.685 173.261 117.871 173.258 117.031C173.181 114.774 173.181 114.774 170.999 113C168.901 112.69 168.901 112.69 166.499 112.734C165.169 112.73 165.169 112.73 163.812 112.727C162.884 112.734 161.956 112.742 160.999 112.75C159.607 112.738 159.607 112.738 158.187 112.727C157.3 112.729 156.413 112.732 155.499 112.734C154.685 112.737 153.87 112.739 153.031 112.741C150.773 112.818 150.773 112.818 148.999 115Z" fill="#020303"/>
<path d="M208.687 56.5625C209.764 56.5167 210.841 56.471 211.951 56.4238C217.295 56.3484 221.002 56.3697 225.207 59.9023C230.114 64.8356 229.324 70.0367 229.437 76.6875C229.483 77.7645 229.529 78.8415 229.576 79.9512C229.651 85.2959 229.63 89.002 226.097 93.207C221.164 98.1147 215.963 97.3241 209.312 97.4375C208.235 97.4832 207.158 97.529 206.048 97.5762C200.704 97.6515 196.997 97.6303 192.792 94.0976C187.885 89.1644 188.675 83.9632 188.562 77.3125C188.516 76.2355 188.47 75.1585 188.423 74.0488C188.348 68.7041 188.369 64.998 191.902 60.793C196.835 55.8852 202.036 56.6759 208.687 56.5625ZM196.999 67C196.69 69.0981 196.69 69.0981 196.734 71.5C196.731 72.3869 196.729 73.2737 196.726 74.1875C196.734 75.1156 196.742 76.0437 196.749 77C196.742 77.9281 196.734 78.8562 196.726 79.8125C196.729 80.6994 196.731 81.5862 196.734 82.5C196.736 83.3147 196.738 84.1294 196.741 84.9687C196.818 87.2263 196.818 87.2263 198.999 89C201.098 89.3098 201.098 89.3098 203.499 89.2656C204.83 89.2695 204.83 89.2695 206.187 89.2734C207.579 89.2618 207.579 89.2618 208.999 89.25C209.928 89.2577 210.856 89.2654 211.812 89.2734C212.699 89.2708 213.586 89.2683 214.499 89.2656C215.722 89.2622 215.722 89.2622 216.968 89.2588C219.226 89.1817 219.226 89.1817 220.999 87C221.309 84.9018 221.309 84.9018 221.265 82.5C221.268 81.6131 221.27 80.7262 221.273 79.8125C221.265 78.8844 221.257 77.9562 221.249 77C221.257 76.0719 221.265 75.1437 221.273 74.1875C221.269 72.8572 221.269 72.8572 221.265 71.5C221.263 70.6853 221.261 69.8706 221.258 69.0312C221.181 66.7737 221.181 66.7737 218.999 65C216.901 64.6901 216.901 64.6901 214.499 64.7344C213.169 64.7305 213.169 64.7305 211.812 64.7265C210.884 64.7343 209.956 64.742 208.999 64.75C207.607 64.7384 207.607 64.7384 206.187 64.7265C205.3 64.7291 204.413 64.7317 203.499 64.7344C202.685 64.7366 201.87 64.7389 201.031 64.7412C198.773 64.8182 198.773 64.8182 196.999 67Z" fill="#020303"/>
<path d="M160.687 56.5625C161.764 56.5167 162.841 56.471 163.951 56.4238C169.295 56.3484 173.002 56.3697 177.207 59.9023C182.114 64.8356 181.324 70.0367 181.437 76.6875C181.483 77.7645 181.529 78.8415 181.576 79.9512C181.651 85.2959 181.63 89.002 178.097 93.207C173.164 98.1147 167.963 97.3241 161.312 97.4375C160.235 97.4832 159.158 97.529 158.048 97.5762C152.704 97.6515 148.997 97.6303 144.792 94.0976C139.885 89.1644 140.675 83.9632 140.562 77.3125C140.516 76.2355 140.47 75.1585 140.423 74.0488C140.348 68.7041 140.369 64.998 143.902 60.793C148.835 55.8852 154.036 56.6759 160.687 56.5625ZM148.999 67C148.69 69.0981 148.69 69.0981 148.734 71.5C148.731 72.3869 148.729 73.2737 148.726 74.1875C148.734 75.1156 148.742 76.0437 148.749 77C148.742 77.9281 148.734 78.8562 148.726 79.8125C148.729 80.6994 148.731 81.5862 148.734 82.5C148.736 83.3147 148.738 84.1294 148.741 84.9687C148.818 87.2263 148.818 87.2263 150.999 89C153.098 89.3098 153.098 89.3098 155.499 89.2656C156.83 89.2695 156.83 89.2695 158.187 89.2734C159.579 89.2618 159.579 89.2618 160.999 89.25C161.928 89.2577 162.856 89.2654 163.812 89.2734C164.699 89.2708 165.586 89.2683 166.499 89.2656C167.722 89.2622 167.722 89.2622 168.968 89.2588C171.226 89.1817 171.226 89.1817 172.999 87C173.309 84.9018 173.309 84.9018 173.265 82.5C173.268 81.6131 173.27 80.7262 173.273 79.8125C173.265 78.8844 173.257 77.9562 173.249 77C173.257 76.0719 173.265 75.1437 173.273 74.1875C173.269 72.8572 173.269 72.8572 173.265 71.5C173.263 70.6853 173.261 69.8706 173.258 69.0312C173.181 66.7737 173.181 66.7737 170.999 65C168.901 64.6901 168.901 64.6901 166.499 64.7344C165.169 64.7305 165.169 64.7305 163.812 64.7265C162.884 64.7343 161.956 64.742 160.999 64.75C159.607 64.7384 159.607 64.7384 158.187 64.7265C157.3 64.7291 156.413 64.7317 155.499 64.7344C154.685 64.7366 153.87 64.7389 153.031 64.7412C150.773 64.8182 150.773 64.8182 148.999 67Z" fill="#020303"/>
<path d="M113 209C149.96 209 186.92 209 225 209C225 211.64 225 214.28 225 217C188.04 217 151.08 217 113 217C113 214.36 113 211.72 113 209Z" fill="black"/>
<path d="M9 105C12.96 105 16.92 105 21 105C21 128.76 21 152.52 21 177C17.04 177 13.08 177 9 177C9 153.24 9 129.48 9 105Z" fill="#FFCDBE"/>
<path d="M91.9983 119C92.3283 119 92.6583 119 92.9983 119C93.024 120.23 93.0498 121.46 93.0764 122.727C93.1327 124.359 93.19 125.992 93.2483 127.625C93.2624 128.433 93.2766 129.241 93.2912 130.074C93.3235 130.867 93.3557 131.66 93.3889 132.477C93.4203 133.561 93.4203 133.561 93.4524 134.667C93.8896 137.228 93.8896 137.228 96.0097 139.725C98.2921 143.484 98.4605 145.391 98.3606 149.74C98.3514 150.384 98.3422 151.029 98.3328 151.693C98.298 153.804 98.2343 155.913 98.1701 158.023C98.1402 159.495 98.1121 160.966 98.0857 162.437C98.0117 166.294 97.9132 170.15 97.8094 174.007C97.7077 177.948 97.6294 181.89 97.549 185.832C97.3883 193.555 97.2015 201.278 96.9983 209C99.6383 209 102.278 209 104.998 209C104.998 211.64 104.998 214.28 104.998 217C102.358 217 99.7183 217 96.9983 217C96.9983 219.64 96.9983 222.28 96.9983 225C94.3583 225 91.7183 225 88.9983 225C88.9287 212.065 88.8754 199.131 88.8428 186.196C88.8272 180.19 88.8059 174.183 88.7719 168.177C88.7393 162.381 88.7214 156.584 88.7136 150.787C88.7081 148.576 88.6973 146.365 88.6811 144.154C88.6593 141.056 88.6563 137.959 88.6577 134.861C88.6469 133.947 88.6361 133.034 88.625 132.093C88.65 126.952 89.2096 123.495 91.9983 119Z" fill="#17BDE7"/>
<path d="M21 105C23.64 105 26.28 105 29 105C29 128.76 29 152.52 29 177C26.36 177 23.72 177 21 177C21 153.24 21 129.48 21 105Z" fill="#FAA68E"/>
<path d="M81 135C81 152.82 81 170.64 81 189C77.04 188.67 73.08 188.34 69 188C70.98 187.505 70.98 187.505 73 187C73 171.49 73 155.98 73 140C72.34 139.67 71.68 139.34 71 139C72.4782 138.331 73.9576 137.665 75.4375 137C76.2612 136.629 77.0849 136.258 77.9336 135.875C80 135 80 135 81 135Z" fill="#FCBCA8"/>
<path d="M212.434 112.812C214.195 112.791 214.195 112.791 215.992 112.77C218.996 113 218.996 113 220.996 115C221.255 117.031 221.255 117.031 221.262 119.5C221.266 120.83 221.266 120.83 221.27 122.187C221.262 123.116 221.254 124.044 221.246 125C221.254 125.928 221.262 126.856 221.27 127.812C221.267 128.699 221.264 129.586 221.262 130.5C221.259 131.315 221.257 132.129 221.255 132.969C220.996 135 220.996 135 218.996 137C215.992 137.23 215.992 137.23 212.434 137.187C210.668 137.178 210.668 137.178 208.867 137.168C205.996 137 205.996 137 204.996 136C204.897 134.377 204.865 132.751 204.863 131.125C204.862 130.14 204.861 129.155 204.859 128.141C204.863 127.104 204.867 126.068 204.871 125C204.865 123.445 204.865 123.445 204.859 121.859C204.861 120.875 204.862 119.89 204.863 118.875C204.864 117.965 204.866 117.055 204.867 116.117C205.143 111.595 208.654 112.833 212.434 112.812Z" fill="#FDE25B"/>
<path d="M164.441 112.812C166.203 112.791 166.203 112.791 168 112.77C171.004 113 171.004 113 173.004 115C173.263 117.031 173.263 117.031 173.27 119.5C173.273 120.83 173.273 120.83 173.277 122.187C173.27 123.116 173.262 124.044 173.254 125C173.262 125.928 173.269 126.856 173.277 127.812C173.275 128.699 173.272 129.586 173.27 130.5C173.267 131.315 173.265 132.129 173.263 132.969C173.004 135 173.004 135 171.004 137C168 137.23 168 137.23 164.441 137.187C162.676 137.178 162.676 137.178 160.875 137.168C158.004 137 158.004 137 157.004 136C156.905 134.377 156.873 132.751 156.871 131.125C156.87 130.14 156.869 129.155 156.867 128.141C156.871 127.104 156.875 126.068 156.879 125C156.873 123.445 156.873 123.445 156.867 121.859C156.868 120.875 156.87 119.89 156.871 118.875C156.872 117.965 156.873 117.055 156.875 116.117C157.151 111.595 160.661 112.833 164.441 112.812Z" fill="#F0F4FA"/>
<path d="M116.441 112.812C118.203 112.791 118.203 112.791 120 112.77C123.004 113 123.004 113 125.004 115C125.263 117.031 125.263 117.031 125.27 119.5C125.273 120.83 125.273 120.83 125.277 122.187C125.27 123.116 125.262 124.044 125.254 125C125.262 125.928 125.269 126.856 125.277 127.812C125.275 128.699 125.272 129.586 125.27 130.5C125.267 131.315 125.265 132.129 125.263 132.969C125.004 135 125.004 135 123.004 137C120 137.23 120 137.23 116.441 137.187C114.676 137.178 114.676 137.178 112.875 137.168C110.004 137 110.004 137 109.004 136C108.905 134.377 108.873 132.751 108.871 131.125C108.87 130.14 108.869 129.155 108.867 128.141C108.871 127.104 108.875 126.068 108.879 125C108.873 123.445 108.873 123.445 108.867 121.859C108.868 120.875 108.87 119.89 108.871 118.875C108.872 117.965 108.873 117.055 108.875 116.117C109.151 111.595 112.661 112.833 116.441 112.812Z" fill="#F0F4FA"/>
<path d="M212.434 64.8125C214.195 64.7912 214.195 64.7912 215.992 64.7695C218.996 65 218.996 65 220.996 67C221.255 69.0312 221.255 69.0312 221.262 71.5C221.266 72.8303 221.266 72.8303 221.27 74.1875C221.262 75.1156 221.254 76.0437 221.246 77C221.254 77.9281 221.262 78.8562 221.27 79.8125C221.267 80.6994 221.264 81.5862 221.262 82.5C221.259 83.3147 221.257 84.1294 221.255 84.9687C220.996 87 220.996 87 218.996 89C215.992 89.2304 215.992 89.2304 212.434 89.1875C210.668 89.1778 210.668 89.1778 208.867 89.1679C205.996 89 205.996 89 204.996 88C204.897 86.3774 204.865 84.7506 204.863 83.125C204.862 82.1401 204.861 81.1553 204.859 80.1406C204.863 79.1042 204.867 78.0678 204.871 77C204.865 75.4454 204.865 75.4454 204.859 73.8594C204.861 72.8745 204.862 71.8897 204.863 70.875C204.864 69.9649 204.866 69.0548 204.867 68.1172C205.143 63.5953 208.654 64.8332 212.434 64.8125Z" fill="#18CDFA"/>
<path d="M164.441 64.8125C166.203 64.7912 166.203 64.7912 168 64.7695C171.004 65 171.004 65 173.004 67C173.263 69.0312 173.263 69.0312 173.27 71.5C173.273 72.8303 173.273 72.8303 173.277 74.1875C173.27 75.1156 173.262 76.0437 173.254 77C173.262 77.9281 173.269 78.8562 173.277 79.8125C173.275 80.6994 173.272 81.5862 173.27 82.5C173.267 83.3147 173.265 84.1294 173.263 84.9687C173.004 87 173.004 87 171.004 89C168 89.2304 168 89.2304 164.441 89.1875C162.676 89.1778 162.676 89.1778 160.875 89.1679C158.004 89 158.004 89 157.004 88C156.905 86.3774 156.873 84.7506 156.871 83.125C156.87 82.1401 156.869 81.1553 156.867 80.1406C156.871 79.1042 156.875 78.0678 156.879 77C156.873 75.4454 156.873 75.4454 156.867 73.8594C156.868 72.8745 156.87 71.8897 156.871 70.875C156.872 69.9649 156.873 69.0548 156.875 68.1172C157.151 63.5953 160.661 64.8332 164.441 64.8125Z" fill="#FDCBBC"/>
<path d="M89 29C91.64 29 94.28 29 97 29C97.0246 34.3935 97.0428 39.7869 97.0549 45.1804C97.06 47.0167 97.0668 48.853 97.0754 50.6892C97.0875 53.3228 97.0932 55.9563 97.0977 58.5898C97.1028 59.4159 97.108 60.2419 97.1133 61.093C97.1135 63.0624 97.062 65.0316 97 67C96 68 96 68 89 68C89 55.13 89 42.26 89 29Z" fill="#18CEFB"/>
<path d="M145 17C155.56 17 166.12 17 177 17C177 19.64 177 22.28 177 25C166.44 25 155.88 25 145 25C145 22.36 145 19.72 145 17Z" fill="black"/>
<path d="M89.0053 96C88.97 106.637 87.0981 117.201 79.8647 125.438C74.7503 130 74.7503 130 73.0053 130C72.7429 125.352 73.4603 122.286 75.3803 118.062C78.4444 111.043 80.2064 104.59 81.0053 97C83.8977 96.1736 85.8928 96 89.0053 96Z" fill="#FABAA7"/>
<path d="M206 113C206 120.92 206 128.84 206 137C199 137 199 137 197 135C196.741 132.969 196.741 132.969 196.734 130.5C196.732 129.613 196.729 128.726 196.727 127.813C196.738 126.42 196.738 126.42 196.75 125C196.742 124.072 196.735 123.144 196.727 122.188C196.729 121.301 196.732 120.414 196.734 119.5C196.737 118.685 196.739 117.871 196.741 117.031C197.438 111.563 200.885 113 206 113Z" fill="#FCA225"/>
<path d="M158 113C158 120.92 158 128.84 158 137C151 137 151 137 149 135C148.741 132.969 148.741 132.969 148.734 130.5C148.732 129.613 148.729 128.726 148.727 127.813C148.738 126.42 148.738 126.42 148.75 125C148.742 124.072 148.735 123.144 148.727 122.188C148.729 121.301 148.732 120.414 148.734 119.5C148.737 118.685 148.739 117.871 148.741 117.031C149.438 111.563 152.885 113 158 113Z" fill="#DADFE8"/>
<path d="M110 113C110 120.92 110 128.84 110 137C103 137 103 137 101 135C100.741 132.969 100.741 132.969 100.734 130.5C100.732 129.613 100.729 128.726 100.727 127.813C100.738 126.42 100.738 126.42 100.75 125C100.742 124.072 100.735 123.144 100.727 122.188C100.729 121.301 100.732 120.414 100.734 119.5C100.737 118.685 100.739 117.871 100.741 117.031C101.438 111.563 104.885 113 110 113Z" fill="#DADFE8"/>
<path d="M206 65.0001C206 72.9201 206 80.8401 206 89.0001C199 89.0001 199 89.0001 197 87.0001C196.741 84.9688 196.741 84.9688 196.734 82.5001C196.732 81.6132 196.729 80.7263 196.727 79.8126C196.738 78.4204 196.738 78.4204 196.75 77.0001C196.742 76.0719 196.735 75.1438 196.727 74.1876C196.729 73.3007 196.732 72.4138 196.734 71.5001C196.737 70.6854 196.739 69.8707 196.741 69.0313C197.438 63.5634 200.885 65.0001 206 65.0001Z" fill="#1D9FE1"/>
<path d="M158 65.0001C158 72.9201 158 80.8401 158 89.0001C151 89.0001 151 89.0001 149 87.0001C148.741 84.9688 148.741 84.9688 148.734 82.5001C148.732 81.6132 148.729 80.7263 148.727 79.8126C148.738 78.4204 148.738 78.4204 148.75 77.0001C148.742 76.0719 148.735 75.1438 148.727 74.1876C148.729 73.3007 148.732 72.4138 148.734 71.5001C148.737 70.6854 148.739 69.8707 148.741 69.0313C149.438 63.5634 152.885 65.0001 158 65.0001Z" fill="#F7A48C"/>
<path d="M45.9937 43C49.4254 43.319 51.0968 44.7448 53.4468 47.1602C54.0656 47.7886 54.6843 48.417 55.3218 49.0645C55.956 49.7238 56.5903 50.3832 57.2437 51.0625C57.8934 51.7257 58.5431 52.3889 59.2125 53.0723C60.8132 54.7083 62.4065 56.3509 63.9937 58C62.3437 59.98 60.6937 61.96 58.9937 64C54.875 60.5824 50.8806 57.0551 46.9937 53.375C46.21 52.6402 45.4262 51.9055 44.6187 51.1484C42.9937 49 42.9937 49 43.1187 46.8516C43.9937 45 43.9937 45 45.9937 43Z" fill="#060809"/>
<path d="M33 65C39.6 65 46.2 65 53 65C53 67.64 53 70.28 53 73C46.4 73 39.8 73 33 73C33 70.36 33 67.72 33 65Z" fill="black"/>
<path d="M65 33C67.64 33 70.28 33 73 33C73 39.6 73 46.2 73 53C70.36 53 67.72 53 65 53C65 46.4 65 39.8 65 33Z" fill="black"/>
<path d="M128 70.0001C127.159 77.4115 124.594 82.0463 119 87.0001C116.25 88.5626 116.25 88.5626 114 89.0001C113.01 88.6701 112.02 88.3401 111 88.0001C111.398 87.5154 111.797 87.0307 112.207 86.5313C115.909 81.8481 118.173 77.6825 120 72.0001C118.68 71.6701 117.36 71.3401 116 71.0001C120.064 70.226 123.864 69.9016 128 70.0001Z" fill="#F2B5A2"/>
<path d="M88.9978 233C91.6378 233 94.2778 233 96.9978 233C97.0352 233.592 97.0725 234.183 97.1111 234.793C97.5165 239.666 98.1406 242.901 100.998 247C100.998 247.66 100.998 248.32 100.998 249C96.7558 248.899 94.4948 247.946 91.6228 244.938C88.4179 240.915 88.4707 238.008 88.9978 233Z" fill="#D6DBE5"/>
<path d="M101 9C100.567 10.0209 100.567 10.0209 100.125 11.0625C98.874 14.3289 97.9255 17.6285 97 21C94.36 21 91.72 21 89 21C89.075 17.8502 89.4023 15.6983 91.4844 13.2656C96.2375 9 96.2375 9 101 9Z" fill="#D4D9E3"/>
</svg>
