<svg width="73" height="74" viewBox="0 0 73 74" fill="none" xmlns="http://www.w3.org/2000/svg">
<path d="M35.8166 0.816574C35.994 0.84885 36.1713 0.881125 36.354 0.914378C42.3618 2.06732 47.6177 5.69413 51.0558 10.702C52.1223 12.2913 52.9766 13.933 53.6122 15.738C53.6445 15.8295 53.6768 15.9211 53.7101 16.0154C54.1962 17.4184 54.518 18.8199 54.7528 20.2854C54.7774 20.437 54.8021 20.5887 54.8274 20.7449C54.8978 21.2993 54.9208 21.8438 54.9243 22.4015C54.9253 22.5064 54.9263 22.6112 54.9274 22.7193C54.9299 23.0567 54.9308 23.3941 54.931 23.7316C54.9311 23.8468 54.9312 23.962 54.9313 24.0808C54.929 25.7916 54.8545 27.4238 54.4676 29.0962C54.422 29.3152 54.3763 29.5343 54.3306 29.7534C53.7195 32.5299 52.6949 35.2745 51.3361 37.7735C51.176 38.0721 51.0231 38.3737 50.8709 38.6763C49.1096 42.1461 46.8598 45.3256 44.394 48.3305C44.2164 48.5475 44.0406 48.766 43.8651 48.9847C43.1893 49.8221 42.4804 50.6185 41.7459 51.4044C41.5443 51.6204 41.3468 51.8378 41.1554 52.0628C40.3284 53.0345 39.417 53.9241 38.5123 54.8229C38.2233 55.1102 37.9352 55.3982 37.647 55.6862C35.2753 58.0516 35.2753 58.0516 34.079 58.7968C34.0202 58.7365 33.9613 58.6763 33.9008 58.6142C33.8184 58.5308 33.7361 58.4475 33.6512 58.3616C33.5718 58.2808 33.4924 58.2 33.4106 58.1168C33.1283 57.8473 32.8407 57.5907 32.5457 57.3352C31.9543 56.8226 31.3794 56.2944 30.8086 55.7592C30.7092 55.6661 30.6097 55.5729 30.5073 55.4769C29.5184 54.5475 28.5485 53.614 27.6635 52.5846C27.3697 52.2507 27.0678 51.9259 26.7637 51.6014C25.9313 50.7127 25.1464 49.7986 24.3837 48.8492C24.2251 48.6548 24.0664 48.4605 23.9075 48.2664C23.7395 48.061 23.5714 47.8556 23.4034 47.6502C23.3236 47.5526 23.2437 47.455 23.1615 47.3544C22.1024 46.0561 22.1024 46.0561 22.1024 45.7228C22.0083 45.7228 21.9142 45.7228 21.8173 45.7228C21.6157 45.4809 21.6157 45.4809 21.3817 45.1389C21.2949 45.0124 21.2081 44.8859 21.1186 44.7557C21.0257 44.6176 20.9328 44.4795 20.837 44.3373C20.7413 44.196 20.6457 44.0547 20.5471 43.9092C19.6365 42.5534 18.7795 41.1709 17.9676 39.7543C17.91 39.6543 17.8524 39.5543 17.793 39.4513C16.077 36.4424 14.7965 33.1494 14.0111 29.78C13.9827 29.6587 13.9544 29.5373 13.9252 29.4122C13.5034 27.5069 13.3466 25.6315 13.3517 23.6871C13.3517 23.5249 13.3517 23.5249 13.3518 23.3594C13.3568 21.5299 13.5057 19.7874 13.9755 18.0117C14.0029 17.9077 14.0304 17.8038 14.0587 17.6967C15.633 11.9445 19.337 6.73736 24.5338 3.70489C25.0009 3.44141 25.4741 3.19149 25.952 2.9482C26.0423 2.90224 26.1325 2.85629 26.2255 2.80894C28.2756 1.78041 30.3905 1.14109 32.6438 0.729144C32.8971 0.682124 33.1488 0.626895 33.4001 0.570105C34.2272 0.511891 35.0042 0.667914 35.8166 0.816574ZM30.2294 17.4433C28.3051 19.6138 27.6237 21.9232 27.7716 24.758C27.9943 27.1122 29.3731 29.1223 31.1183 30.6549C32.9717 32.0683 35.2154 32.4864 37.5009 32.3646C39.8539 32.0509 41.8346 30.8295 43.3633 29.0406C44.9535 26.844 45.3245 24.423 44.9957 21.7776C44.5128 19.5297 43.0711 17.6112 41.2162 16.3025C37.7619 14.0819 33.1643 14.5526 30.2294 17.4433Z" fill="#FE4A49"/>
<path d="M20.3887 45.7228C21.0007 45.6228 21.4896 45.5735 22.0996 45.7228C22.6128 46.1888 22.9678 46.7241 23.345 47.3015C23.6437 47.7464 23.9761 48.1635 24.3096 48.5827C24.3748 48.6657 24.44 48.7486 24.5072 48.8341C25.0321 49.4966 25.5875 50.1223 26.1653 50.7399C26.4458 51.0432 26.719 51.3499 26.9902 51.6614C27.5288 52.2773 28.0865 52.8738 28.6493 53.4677C28.744 53.5683 28.8388 53.6689 28.9364 53.7725C29.8334 54.7211 30.7379 55.6506 31.7314 56.4992C32.1054 56.8297 32.4668 57.1713 32.8289 57.5146C33.6041 58.247 34.3871 58.9695 35.2168 59.6405C35.3579 59.7561 35.4991 59.8717 35.6445 59.9908C36.0641 60.2544 36.0641 60.2544 36.5657 60.2301C37.1905 60.039 37.542 59.7574 38.0149 59.3208C38.1002 59.245 38.1855 59.1692 38.2734 59.0912C38.5399 58.8532 38.8034 58.6123 39.0664 58.3705C39.1501 58.2941 39.2338 58.2177 39.3201 58.139C39.7175 57.7763 40.1132 57.4118 40.5072 57.0454C40.9202 56.6649 41.3384 56.2948 41.7746 55.9411C42.0758 55.6772 42.0758 55.6772 42.289 55.3176C42.7279 54.7144 43.1216 54.3279 43.8557 54.1697C45.0226 54.0432 46.1968 54.0866 47.3682 54.1105C47.7498 54.1132 48.1313 54.1153 48.5129 54.1166C49.4118 54.121 50.3104 54.1327 51.2092 54.147C52.2333 54.1629 53.2574 54.1707 54.2815 54.1778C56.3864 54.1926 58.491 54.2176 60.5957 54.2493C61.5033 56.1923 61.5033 56.1923 61.8527 57.0565C61.9499 57.2957 61.9499 57.2957 62.0491 57.5397C62.1135 57.6996 62.1779 57.8594 62.2443 58.0241C62.3751 58.347 62.506 58.6699 62.6369 58.9927C62.6998 59.1485 62.7627 59.3042 62.8275 59.4646C63.0782 60.077 63.3399 60.6846 63.6037 61.2914C63.7324 61.6389 63.7324 61.6389 63.7324 62.0653C58.1334 62.1122 52.5343 62.1591 46.7656 62.2074C47.6701 63.027 48.5459 63.8047 49.4913 64.5644C50.0347 65.0179 50.5492 65.4988 51.0663 65.9815C51.5435 66.4245 52.031 66.8452 52.54 67.2522C53.2189 67.7951 53.8536 68.3734 54.4882 68.9659C54.9655 69.4088 55.4529 69.8295 55.9619 70.2365C57.1439 71.1832 58.2418 72.223 59.3125 73.2918C57.695 73.3349 56.0777 73.3676 54.4598 73.3876C53.7083 73.3972 52.9572 73.4101 52.2059 73.4312C51.4792 73.4515 50.7529 73.4624 50.026 73.4671C49.7504 73.4705 49.4747 73.4771 49.1992 73.4872C47.6638 73.5409 46.5967 73.4696 45.4256 72.4063C45.1818 72.1686 44.9453 71.9265 44.7122 71.6785C44.3492 71.3056 43.951 70.9841 43.5487 70.654C43.3972 70.527 43.2459 70.3999 43.0948 70.2726C43.0193 70.209 42.9438 70.1455 42.866 70.08C42.4471 69.7258 42.0313 69.368 41.615 69.0108C41.0359 68.5144 40.453 68.0247 39.8595 67.5453C39.1392 66.9624 38.4386 66.3588 37.739 65.7516C37.0859 65.185 36.4277 64.6249 35.7655 64.0688C35.1934 63.588 34.6255 63.1025 34.0583 62.6159C33.4793 62.1195 32.8963 61.6298 32.3029 61.1505C31.3982 60.418 30.5224 59.6532 29.6434 58.8905C28.4839 57.8862 27.318 56.8921 26.1213 55.9319C25.8066 55.6704 25.8066 55.6704 25.5677 55.4223C25.3877 55.2115 25.3877 55.2115 25.0938 55.2441C24.7254 56.1411 24.3571 57.0382 23.9888 57.9352C23.9319 58.0737 23.8751 58.2121 23.8166 58.3547C23.141 60.0004 22.4659 61.6462 21.7922 63.2926C21.7319 63.4398 21.6717 63.587 21.6097 63.7386C21.4886 64.0345 21.3675 64.3303 21.2465 64.6261C20.0634 67.5171 18.8744 70.4056 17.6797 73.2918C14.8096 73.2918 11.9395 73.2918 8.98242 73.2918C9.27119 72.4284 9.56985 71.5946 9.92199 70.7583C9.97113 70.6406 10.0203 70.5228 10.0709 70.4015C10.2275 70.0266 10.3846 69.6519 10.5419 69.2773C10.6423 69.0373 10.7426 68.7973 10.8429 68.5573C11.1732 67.767 11.5036 66.9767 11.834 66.1864C12.3986 64.8264 12.9632 63.4665 13.5449 62.0653C10.3925 62.0653 7.24012 62.0653 3.99219 62.0653C4.47337 60.6265 4.47337 60.6265 4.68646 60.1175C4.73403 60.0033 4.7816 59.889 4.83062 59.7713C4.88054 59.6527 4.93045 59.5341 4.98188 59.4118C5.0344 59.286 5.08692 59.1602 5.14103 59.0305C5.30718 58.6327 5.47394 58.2351 5.64075 57.8375C5.80792 57.4379 5.97497 57.0382 6.142 56.6385C6.24551 56.3909 6.34912 56.1434 6.45286 55.8959C6.49999 55.7834 6.54711 55.6709 6.59567 55.5551C6.6368 55.457 6.67794 55.3589 6.72032 55.2579C6.85911 54.9228 6.99381 54.5859 7.12891 54.2493C10.3284 54.2024 13.5278 54.1555 16.8242 54.1072C17.7308 51.9329 17.7308 51.9329 18.6369 49.7583C18.752 49.4824 18.8672 49.2066 18.9824 48.9308C19.0403 48.7915 19.0982 48.6522 19.1579 48.5087C19.5497 47.5713 19.9617 46.6448 20.3887 45.7228Z" fill="#FEDA56"/>
<path d="M34.2188 0.5323C36.8845 0.469372 39.4584 0.430043 42.0605 1.10073C42.1645 1.12734 42.2685 1.15395 42.3756 1.18136C43.8511 1.57315 45.2471 2.15103 46.623 2.80603C46.7125 2.8483 46.802 2.89057 46.8942 2.93413C48.9795 3.93518 50.8017 5.33366 52.4688 6.92718C52.5853 7.03599 52.7018 7.1448 52.8219 7.25691C56.6254 10.9071 59.2282 16.3865 59.4803 21.6665C59.5221 24.3819 59.5225 27.0064 58.8848 29.6645C58.8504 29.8089 58.8159 29.9532 58.7805 30.1019C58.0702 32.9909 56.9936 35.7136 55.6062 38.3439C55.4601 38.6226 55.3182 38.9031 55.1766 39.1841C53.6212 42.2353 51.6527 44.9663 49.483 47.6063C49.143 48.0201 48.8085 48.4377 48.4766 48.858C46.6024 51.193 44.5322 53.3576 42.417 55.475C42.261 55.6314 42.261 55.6314 42.1019 55.791C41.5268 56.3626 40.9376 56.9087 40.3223 57.4371C39.9789 57.7338 39.6481 58.0435 39.3159 58.3527C38.7572 58.8561 38.1937 59.35 37.605 59.8182C37.4719 59.9257 37.3388 60.0332 37.2018 60.144C36.6484 60.4308 36.3814 60.3905 35.7871 60.2178C35.3466 59.9242 35.3466 59.9242 34.9406 59.5695C34.804 59.452 34.6674 59.3346 34.5267 59.2136C34.4251 59.123 34.3235 59.0323 34.2188 58.9389C34.3738 58.4752 34.4684 58.3877 34.8336 58.0862C36.2592 56.8869 37.5979 55.5973 38.9162 54.2832C39.165 54.0356 39.4149 53.7891 39.6648 53.5426C40.522 52.6925 41.3253 51.8313 42.0783 50.8871C42.4077 50.4773 42.758 50.1 43.121 49.7196C43.9254 48.8598 44.6373 47.9449 45.3398 47.0018C45.4657 46.8348 45.5916 46.6679 45.7175 46.501C47.1708 44.5618 48.526 42.5507 49.7427 40.4553C49.852 40.2673 49.9619 40.0797 50.0726 39.8924C52.0581 36.5227 53.4786 32.9084 54.3223 29.0961C54.346 28.9949 54.3698 28.8938 54.3943 28.7895C55.7475 22.872 54.4391 16.3555 51.2747 11.2348C48.0047 6.30912 43.1776 2.636 37.3555 1.24284C36.7502 1.1287 36.1422 1.03657 35.5314 0.95689C35.0012 0.885816 34.6709 0.832763 34.2188 0.5323Z" fill="#E7343F"/>
<path d="M25.0938 55.1021C25.5853 55.3152 25.9241 55.6 26.3146 55.9636C26.8083 56.4148 27.3083 56.8497 27.8295 57.2692C28.4742 57.7891 29.1027 58.3246 29.7275 58.8679C30.3381 59.3986 30.9513 59.923 31.5811 60.4311C32.4834 61.1599 33.3557 61.9222 34.2316 62.6822C35.2357 63.5519 36.2419 64.4187 37.2753 65.2539C37.9956 65.8369 38.6961 66.4405 39.3958 67.0477C40.0489 67.6143 40.7071 68.1743 41.3692 68.7304C41.9413 69.2113 42.5093 69.6967 43.0764 70.1833C43.8021 70.8053 44.5372 71.4142 45.2797 72.0163C45.7349 72.3866 46.1838 72.7607 46.623 73.1498C46.623 73.1967 46.623 73.2436 46.623 73.2919C37.0717 73.2919 27.5204 73.2919 17.6797 73.2919C17.9403 72.4262 18.1886 71.6193 18.5418 70.7978C18.6033 70.6521 18.6033 70.6521 18.6661 70.5035C18.7541 70.2951 18.8425 70.0868 18.9311 69.8786C19.1734 69.3094 19.413 68.739 19.6529 68.1688C19.7025 68.0511 19.7521 67.9334 19.8032 67.8121C20.3083 66.6111 20.7995 65.4046 21.2887 64.197C21.4637 63.7655 21.6388 63.334 21.8139 62.9025C21.8586 62.7924 21.9032 62.6823 21.9493 62.5689C22.5032 61.2042 23.0599 59.8407 23.618 58.4778C23.7341 58.194 23.8501 57.9102 23.966 57.6263C24.1273 57.231 24.2891 56.836 24.451 56.441C24.4996 56.3216 24.5483 56.2023 24.5983 56.0793C24.9349 55.2604 24.9349 55.2604 25.0938 55.1021Z" fill="#4CE166"/>
<path d="M46.625 62.0652C52.3181 62.0652 58.0113 62.0652 63.877 62.0652C64.2361 62.7811 64.5678 63.4643 64.8694 64.2001C64.9076 64.2928 64.9457 64.3854 64.985 64.4808C65.1091 64.7827 65.2327 65.0848 65.3562 65.387C65.4876 65.7074 65.6192 66.0278 65.7507 66.3482C65.8417 66.5698 65.9326 66.7915 66.0235 67.0131C66.352 67.8137 66.6843 68.6126 67.0181 69.411C67.1562 69.7419 67.2942 70.0729 67.4321 70.4039C67.5213 70.6174 67.6106 70.8307 67.7003 71.044C67.8252 71.3413 67.9492 71.6389 68.073 71.9367C68.1439 72.1062 68.2148 72.2756 68.2879 72.4502C68.4395 72.8654 68.4395 72.8654 68.4395 73.2918C67.2768 73.3249 66.1144 73.35 64.9515 73.3654C64.4113 73.3728 63.8714 73.3827 63.3314 73.399C62.809 73.4145 62.287 73.4229 61.7644 73.4266C61.5663 73.4292 61.3682 73.4343 61.1702 73.442C60.0195 73.4851 59.3135 73.3993 58.4438 72.6114C58.2102 72.3655 57.9776 72.1186 57.7461 71.8707C57.4941 71.6593 57.239 71.4514 56.9797 71.2489C56.2959 70.6994 55.6544 70.1157 55.0138 69.5176C54.5365 69.0746 54.049 68.6539 53.54 68.2469C52.8612 67.7041 52.2265 67.1258 51.5918 66.5333C51.1146 66.0903 50.6271 65.6697 50.1182 65.2626C49.4283 64.7109 48.7789 64.125 48.1349 63.5215C47.7646 63.1753 47.3909 62.8406 46.9976 62.5204C46.8746 62.4171 46.7517 62.3137 46.625 62.2073C46.625 62.1604 46.625 62.1135 46.625 62.0652Z" fill="#A8EDFB"/>
<path d="M3.99219 62.0652C7.14459 62.0652 10.297 62.0652 13.5449 62.0652C13.2734 62.9674 13.0068 63.8054 12.6365 64.6614C12.5911 64.7683 12.5456 64.8751 12.4988 64.9851C12.3521 65.3296 12.2044 65.6736 12.0568 66.0176C11.9032 66.3776 11.7499 66.7378 11.5966 67.0979C11.4934 67.3403 11.3902 67.5826 11.2869 67.825C10.7253 69.1432 10.1771 70.4669 9.63018 71.7912C9.53257 72.0273 9.53257 72.0273 9.43299 72.2681C9.37658 72.4049 9.32017 72.5417 9.26204 72.6827C9.17522 72.8885 9.0826 73.092 8.98242 73.2918C6.01822 73.2918 3.05402 73.2918 0 73.2918C0 71.3335 0 71.3335 0.438873 70.3835C0.48545 70.2759 0.532027 70.1682 0.580016 70.0572C0.728362 69.7159 0.880816 69.3767 1.03369 69.0374C1.12941 68.82 1.22483 68.6025 1.31996 68.3848C1.41737 68.1622 1.51478 67.9395 1.61514 67.7101C2.43294 65.8393 3.20936 63.9508 3.99219 62.0652Z" fill="#A7EDFB"/>
<path d="M54.0332 45.634C54.3234 45.6411 54.6135 45.6476 54.9037 45.6534C55.612 45.669 56.3195 45.6935 57.0273 45.7228C57.4318 46.5088 57.7934 47.3001 58.1273 48.1181C58.1995 48.2936 58.1995 48.2936 58.2732 48.4727C58.3744 48.719 58.4754 48.9654 58.5762 49.2118C58.728 49.5831 58.8805 49.954 59.0332 50.3249C59.1323 50.5663 59.2313 50.8077 59.3303 51.0491C59.397 51.2113 59.397 51.2113 59.465 51.3767C59.8543 52.3296 60.221 53.2883 60.5918 54.2493C54.9928 54.2493 49.3937 54.2493 43.625 54.2493C44.1656 53.6206 44.7066 53.005 45.2736 52.4019C46.6922 50.8788 48.0422 49.3041 49.3354 47.674C49.404 47.5922 49.4727 47.5105 49.5435 47.4263C49.7714 47.1397 49.7714 47.1397 49.9499 46.7671C50.8587 45.2241 52.4516 45.5665 54.0332 45.634Z" fill="#4CE066"/>
<path d="M11.8929 45.6743C11.9847 45.6743 12.0765 45.6742 12.1712 45.6741C12.4744 45.6744 12.7775 45.6777 13.0807 45.6811C13.2911 45.6819 13.5014 45.6825 13.7118 45.6829C14.2652 45.6845 14.8186 45.6887 15.372 45.6935C15.9368 45.6978 16.5017 45.6998 17.0665 45.7019C18.1746 45.7065 19.2826 45.7138 20.3906 45.7227C19.766 47.4251 19.0867 49.1 18.382 50.7709C18.2046 51.1915 18.0282 51.6125 17.8518 52.0335C17.7392 52.3012 17.6266 52.5688 17.514 52.8365C17.4613 52.9623 17.4086 53.0881 17.3542 53.2177C17.3056 53.3327 17.257 53.4477 17.2069 53.5661C17.1643 53.6675 17.1216 53.7689 17.0776 53.8733C16.9688 54.1071 16.9688 54.1071 16.8262 54.2492C16.5287 54.2626 16.2308 54.2659 15.9331 54.2654C15.7933 54.2654 15.7933 54.2654 15.6507 54.2654C15.3413 54.2653 15.032 54.2642 14.7226 54.2631C14.5086 54.2628 14.2946 54.2626 14.0807 54.2625C13.5165 54.262 12.9523 54.2606 12.3881 54.259C11.8128 54.2575 11.2375 54.2569 10.6622 54.2562C9.53259 54.2546 8.40302 54.2522 7.27344 54.2492C7.53539 53.3232 7.84186 52.4371 8.22192 51.5531C8.27059 51.4382 8.31927 51.3234 8.36942 51.2051C8.52322 50.8429 8.67804 50.481 8.83289 50.1192C8.93608 49.8764 9.03921 49.6335 9.14227 49.3906C9.64195 48.2152 9.64195 48.2152 9.8475 47.7405C9.94225 47.5211 10.0356 47.301 10.1278 47.0804C10.1763 46.967 10.2247 46.8535 10.2746 46.7367C10.3177 46.6342 10.3608 46.5318 10.4052 46.4263C10.7818 45.7186 11.0982 45.6698 11.8929 45.6743Z" fill="#4CE166"/>
<path d="M63.875 62.0652C65.5688 62.0652 67.2627 62.0652 69.0078 62.0652C69.1526 62.4072 69.2975 62.7492 69.4467 63.1016C69.4965 63.2192 69.5463 63.3368 69.5977 63.4581C69.8501 64.0544 70.1019 64.6509 70.3528 65.2478C70.4577 65.4972 70.5626 65.7466 70.6675 65.9959C70.72 66.1206 70.7724 66.2452 70.8264 66.3737C71.1114 67.0495 71.4002 67.7233 71.6955 68.3947C71.8185 68.6746 71.9402 68.9551 72.0614 69.2357C72.2076 69.5732 72.356 69.9096 72.5072 70.2449C72.5728 70.3978 72.6384 70.5507 72.7059 70.7083C72.7631 70.8376 72.8203 70.967 72.8791 71.1002C73 71.5865 73 71.5865 73 73.2918C71.4944 73.2918 69.9887 73.2918 68.4375 73.2918C68.2431 72.8114 68.2431 72.8114 68.0449 72.3214C67.864 71.875 67.6829 71.4288 67.5018 70.9825C67.4545 70.866 67.4073 70.7494 67.3585 70.6294C66.5326 68.5954 65.6908 66.5682 64.8374 64.5456C64.794 64.4424 64.7506 64.3392 64.7059 64.2329C64.6255 64.0419 64.5448 63.8509 64.4639 63.6601C64.242 63.1321 64.0574 62.6105 63.875 62.0652Z" fill="#7EE4F1"/>
<path d="M57.0312 45.7229C57.7112 45.7088 58.391 45.6985 59.0711 45.6916C59.3023 45.6888 59.5335 45.6849 59.7647 45.68C60.0974 45.6731 60.43 45.6698 60.7628 45.6673C60.9174 45.6629 60.9174 45.6629 61.0752 45.6584C61.5452 45.6582 61.8246 45.6838 62.2104 45.9611C62.4732 46.3244 62.6499 46.6692 62.824 47.0823C62.8915 47.2405 62.9589 47.3987 63.0283 47.5617C63.0989 47.7316 63.1696 47.9015 63.2423 48.0765C63.3166 48.253 63.391 48.4294 63.4655 48.6057C63.6595 49.0664 63.8515 49.5278 64.0432 49.9894C64.1981 50.3614 64.3547 50.7328 64.5112 51.1042C64.6954 51.5422 64.8777 51.981 65.0602 52.4197C65.1295 52.5847 65.1988 52.7497 65.2702 52.9196C65.3639 53.1475 65.3639 53.1475 65.4595 53.3801C65.5151 53.514 65.5706 53.6479 65.6279 53.7859C65.7285 54.1072 65.7285 54.1072 65.5859 54.3915C63.1158 54.3211 63.1158 54.3211 60.5957 54.2494C59.954 52.9702 59.954 52.9702 59.7165 52.3969C59.6632 52.2688 59.61 52.1408 59.5551 52.0089C59.4996 51.8744 59.4442 51.74 59.3871 51.6015C59.3285 51.46 59.2698 51.3185 59.2094 51.1728C59.0863 50.8755 58.9634 50.5781 58.8406 50.2807C58.6532 49.8264 58.4649 49.3725 58.2766 48.9186C58.1566 48.6287 58.0367 48.3387 57.9168 48.0488C57.8608 47.9137 57.8048 47.7787 57.7471 47.6396C57.4863 47.0065 57.2367 46.3766 57.0312 45.7229Z" fill="#45C96B"/>
<path d="M60.5938 54.2493C61.2992 54.2458 62.0047 54.2432 62.7101 54.2415C62.9502 54.2407 63.1903 54.2398 63.4304 54.2385C63.7751 54.2368 64.1198 54.236 64.4645 54.2354C64.5722 54.2346 64.6799 54.2339 64.7908 54.2332C65.5515 54.2331 65.5515 54.2331 65.8691 54.3914C66.0481 54.778 66.2125 55.1627 66.3709 55.5577C66.4438 55.7358 66.4438 55.7358 66.518 55.9176C66.674 56.2996 66.8285 56.6822 66.983 57.0648C67.0855 57.3167 67.1881 57.5687 67.2907 57.8206C67.4405 58.1881 67.5902 58.5557 67.7391 58.9236C68.0652 59.7288 68.4008 60.5289 68.7484 61.3251C68.8633 61.6389 68.8633 61.6389 68.8633 62.0652C67.1695 62.0652 65.4756 62.0652 63.7305 62.0652C63.5877 61.7137 63.4449 61.3622 63.2977 61C63.1557 60.6505 63.0136 60.301 62.8716 59.9515C62.7746 59.713 62.6777 59.4744 62.5808 59.2359C62.4397 58.8884 62.2984 58.5408 62.1571 58.1933C62.1105 58.0787 62.0639 57.964 62.0159 57.8459C61.7786 57.2629 61.5398 56.6806 61.2984 56.0994C61.2519 55.9874 61.2054 55.8754 61.1575 55.7601C61.0689 55.5471 60.9801 55.3342 60.8911 55.1214C60.5938 54.4069 60.5938 54.4069 60.5938 54.2493Z" fill="#FCBC29"/>
</svg>
