<svg width="73" height="73" viewBox="0 0 73 73" fill="none" xmlns="http://www.w3.org/2000/svg">
<path d="M35.8166 0.315598C35.994 0.347873 36.1713 0.380148 36.354 0.413401C42.3618 1.56635 47.6177 5.19315 51.0558 10.201C52.1223 11.7903 52.9766 13.432 53.6122 15.237C53.6445 15.3286 53.6768 15.4201 53.7101 15.5145C54.1962 16.9174 54.518 18.3189 54.7528 19.7845C54.7774 19.9361 54.8021 20.0877 54.8274 20.2439C54.8978 20.7983 54.9208 21.3428 54.9243 21.9005C54.9253 22.0054 54.9263 22.1103 54.9274 22.2183C54.9299 22.5557 54.9308 22.8931 54.931 23.2306C54.9311 23.3458 54.9312 23.4611 54.9313 23.5798C54.929 25.2906 54.8545 26.9228 54.4676 28.5952C54.422 28.8143 54.3763 29.0333 54.3306 29.2524C53.7195 32.029 52.6949 34.7735 51.3361 37.2725C51.176 37.5711 51.0231 37.8727 50.8709 38.1753C49.1096 41.6451 46.8598 44.8246 44.394 47.8295C44.2164 48.0465 44.0406 48.265 43.8651 48.4837C43.1893 49.3211 42.4804 50.1175 41.7459 50.9034C41.5443 51.1194 41.3468 51.3368 41.1554 51.5618C40.3284 52.5335 39.417 53.4231 38.5123 54.322C38.2233 54.6092 37.9352 54.8972 37.647 55.1853C35.2753 57.5506 35.2753 57.5506 34.079 58.2958C34.0202 58.2356 33.9613 58.1753 33.9008 58.1132C33.8184 58.0299 33.7361 57.9465 33.6512 57.8606C33.5718 57.7798 33.4924 57.6991 33.4106 57.6158C33.1283 57.3463 32.8407 57.0897 32.5457 56.8342C31.9543 56.3216 31.3794 55.7935 30.8086 55.2583C30.7092 55.1651 30.6097 55.0719 30.5073 54.976C29.5184 54.0466 28.5485 53.113 27.6635 52.0836C27.3697 51.7497 27.0678 51.4249 26.7637 51.1005C25.9313 50.2117 25.1464 49.2976 24.3837 48.3482C24.2251 48.1538 24.0664 47.9595 23.9075 47.7654C23.7395 47.56 23.5714 47.3546 23.4034 47.1492C23.3236 47.0516 23.2437 46.954 23.1615 46.8534C22.1024 45.5552 22.1024 45.5552 22.1024 45.2219C22.0083 45.2219 21.9142 45.2219 21.8173 45.2219C21.6157 44.98 21.6157 44.98 21.3817 44.6379C21.2949 44.5114 21.2081 44.385 21.1186 44.2547C21.0257 44.1166 20.9328 43.9786 20.837 43.8363C20.7413 43.695 20.6457 43.5538 20.5471 43.4082C19.6365 42.0524 18.7795 40.6699 17.9676 39.2533C17.91 39.1533 17.8524 39.0533 17.793 38.9503C16.077 35.9414 14.7965 32.6485 14.0111 29.2791C13.9827 29.1577 13.9544 29.0363 13.9252 28.9112C13.5034 27.0059 13.3466 25.1305 13.3517 23.1862C13.3517 23.0239 13.3517 23.0239 13.3518 22.8584C13.3568 21.0289 13.5057 19.2865 13.9755 17.5107C14.0029 17.4068 14.0304 17.3028 14.0587 17.1957C15.633 11.4435 19.337 6.23638 24.5338 3.20391C25.0009 2.94043 25.4741 2.69051 25.952 2.44722C26.0423 2.40127 26.1325 2.35531 26.2255 2.30796C28.2756 1.27943 30.3905 0.64011 32.6438 0.228168C32.8971 0.181147 33.1488 0.125918 33.4001 0.0691285C34.2272 0.0109148 35.0042 0.166938 35.8166 0.315598ZM30.2294 16.9423C28.3051 19.1128 27.6237 21.4222 27.7716 24.257C27.9943 26.6112 29.3731 28.6213 31.1183 30.1539C32.9717 31.5673 35.2154 31.9855 37.5008 31.8637C39.8539 31.5499 41.8346 30.3286 43.3633 28.5397C44.9535 26.343 45.3245 23.9221 44.9957 21.2766C44.5128 19.0287 43.0711 17.1102 41.2162 15.8015C37.7619 13.581 33.1643 14.0516 30.2294 16.9423Z" fill="#FE4A49"/>
<path d="M20.3887 45.2233C21.0007 45.1233 21.4896 45.074 22.0996 45.2233C22.6128 45.6893 22.9678 46.2246 23.345 46.802C23.6437 47.2469 23.9761 47.664 24.3096 48.0832C24.3748 48.1662 24.44 48.2491 24.5072 48.3346C25.0321 48.9971 25.5875 49.6228 26.1653 50.2404C26.4458 50.5437 26.719 50.8504 26.9902 51.1619C27.5288 51.7778 28.0865 52.3742 28.6493 52.9682C28.744 53.0688 28.8388 53.1693 28.9364 53.273C29.8334 54.2216 30.7379 55.1511 31.7314 55.9997C32.1054 56.3302 32.4668 56.6717 32.8289 57.0151C33.6041 57.7475 34.3871 58.47 35.2168 59.141C35.3579 59.2566 35.4991 59.3722 35.6445 59.4913C36.0641 59.7549 36.0641 59.7549 36.5657 59.7306C37.1905 59.5395 37.542 59.2579 38.0149 58.8213C38.1002 58.7455 38.1855 58.6697 38.2734 58.5917C38.5399 58.3537 38.8034 58.1128 39.0664 57.8709C39.1501 57.7946 39.2338 57.7182 39.3201 57.6395C39.7175 57.2768 40.1132 56.9123 40.5072 56.5459C40.9202 56.1654 41.3384 55.7953 41.7746 55.4416C42.0758 55.1777 42.0758 55.1777 42.289 54.8181C42.7279 54.2149 43.1216 53.8284 43.8557 53.6702C45.0226 53.5437 46.1968 53.5871 47.3682 53.611C47.7498 53.6137 48.1313 53.6158 48.5129 53.6171C49.4118 53.6215 50.3104 53.6332 51.2092 53.6475C52.2333 53.6634 53.2574 53.6712 54.2815 53.6783C56.3864 53.6931 58.491 53.7181 60.5957 53.7498C61.5033 55.6928 61.5033 55.6928 61.8527 56.557C61.9499 56.7962 61.9499 56.7962 62.0491 57.0402C62.1135 57.2001 62.1779 57.3599 62.2443 57.5246C62.3751 57.8475 62.506 58.1704 62.6369 58.4932C62.6998 58.649 62.7627 58.8047 62.8275 58.9651C63.0782 59.5775 63.3399 60.185 63.6037 60.7919C63.7324 61.1394 63.7324 61.1394 63.7324 61.5658C58.1334 61.6127 52.5343 61.6596 46.7656 61.7079C47.6701 62.5275 48.5459 63.3051 49.4913 64.0649C50.0347 64.5184 50.5492 64.9993 51.0663 65.482C51.5435 65.925 52.031 66.3457 52.54 66.7527C53.2189 67.2956 53.8536 67.8739 54.4882 68.4663C54.9655 68.9093 55.4529 69.33 55.9619 69.737C57.1439 70.6836 58.2418 71.7235 59.3125 72.7923C57.695 72.8354 56.0777 72.8681 54.4598 72.888C53.7083 72.8976 52.9572 72.9106 52.2059 72.9317C51.4792 72.9519 50.7529 72.9628 50.026 72.9676C49.7503 72.971 49.4747 72.9776 49.1992 72.9877C47.6638 73.0414 46.5967 72.9701 45.4256 71.9068C45.1818 71.6691 44.9453 71.427 44.7122 71.1789C44.3492 70.8061 43.951 70.4846 43.5487 70.1544C43.3972 70.0275 43.2459 69.9004 43.0948 69.7731C43.0193 69.7095 42.9438 69.646 42.866 69.5805C42.4471 69.2263 42.0313 68.8685 41.615 68.5113C41.036 68.0149 40.453 67.5252 39.8595 67.0458C39.1392 66.4628 38.4386 65.8593 37.739 65.252C37.0859 64.6855 36.4277 64.1254 35.7655 63.5693C35.1934 63.0885 34.6255 62.603 34.0583 62.1164C33.4793 61.62 32.8963 61.1303 32.3029 60.6509C31.3982 59.9185 30.5224 59.1537 29.6434 58.391C28.4839 57.3867 27.318 56.3926 26.1213 55.4323C25.8066 55.1709 25.8066 55.1709 25.5677 54.9227C25.3877 54.712 25.3877 54.712 25.0938 54.7446C24.7254 55.6416 24.3571 56.5387 23.9888 57.4357C23.9319 57.5742 23.8751 57.7126 23.8166 57.8552C23.141 59.5009 22.4659 61.1467 21.7922 62.7931C21.7319 62.9403 21.6717 63.0875 21.6097 63.2391C21.4886 63.5349 21.3675 63.8308 21.2465 64.1266C20.0634 67.0176 18.8744 69.9061 17.6797 72.7923C14.8096 72.7923 11.9395 72.7923 8.98242 72.7923C9.27119 71.9289 9.56985 71.095 9.92199 70.2588C9.97113 70.1411 10.0203 70.0233 10.0709 69.902C10.2275 69.5271 10.3846 69.1524 10.5419 68.7778C10.6423 68.5378 10.7426 68.2978 10.8429 68.0578C11.1732 67.2675 11.5036 66.4772 11.834 65.6869C12.3986 64.3269 12.9632 62.967 13.5449 61.5658C10.3925 61.5658 7.24012 61.5658 3.99219 61.5658C4.47337 60.127 4.47337 60.127 4.68646 59.618C4.73403 59.5038 4.7816 59.3895 4.83062 59.2718C4.88054 59.1532 4.93045 59.0345 4.98188 58.9123C5.0344 58.7865 5.08692 58.6607 5.14103 58.531C5.30718 58.1332 5.47394 57.7356 5.64075 57.338C5.80792 56.9384 5.97497 56.5387 6.142 56.139C6.24551 55.8914 6.34912 55.6438 6.45286 55.3964C6.49999 55.2839 6.54711 55.1714 6.59567 55.0556C6.6368 54.9575 6.67794 54.8594 6.72032 54.7584C6.85911 54.4232 6.99381 54.0864 7.12891 53.7498C10.3284 53.7029 13.5278 53.656 16.8242 53.6077C17.7308 51.4334 17.7308 51.4334 18.6369 49.2588C18.752 48.9829 18.8672 48.7071 18.9824 48.4313C19.0403 48.292 19.0982 48.1527 19.1579 48.0092C19.5497 47.0718 19.9617 46.1453 20.3887 45.2233Z" fill="#FEDA56"/>
<path d="M34.2188 0.0322996C36.8845 -0.0306278 39.4584 -0.0699573 42.0605 0.600733C42.1645 0.627341 42.2685 0.653949 42.3756 0.681363C43.8511 1.07315 45.2471 1.65103 46.623 2.30603C46.7125 2.3483 46.802 2.39057 46.8942 2.43413C48.9795 3.43518 50.8017 4.83366 52.4688 6.42718C52.5853 6.53599 52.7018 6.6448 52.8219 6.75691C56.6254 10.4071 59.2282 15.8865 59.4803 21.1665C59.5221 23.8819 59.5225 26.5064 58.8848 29.1645C58.8504 29.3089 58.8159 29.4532 58.7805 29.6019C58.0702 32.4909 56.9936 35.2136 55.6062 37.8439C55.4601 38.1226 55.3182 38.4031 55.1766 38.6841C53.6212 41.7353 51.6527 44.4663 49.483 47.1063C49.143 47.5201 48.8085 47.9377 48.4766 48.358C46.6024 50.693 44.5322 52.8576 42.417 54.975C42.261 55.1314 42.261 55.1314 42.1019 55.291C41.5268 55.8626 40.9376 56.4087 40.3223 56.9371C39.9789 57.2338 39.6481 57.5435 39.3159 57.8527C38.7572 58.3561 38.1937 58.85 37.605 59.3182C37.4719 59.4257 37.3388 59.5332 37.2018 59.644C36.6484 59.9308 36.3814 59.8905 35.7871 59.7178C35.3466 59.4242 35.3466 59.4242 34.9406 59.0695C34.804 58.952 34.6674 58.8346 34.5267 58.7136C34.4251 58.623 34.3235 58.5323 34.2188 58.4389C34.3738 57.9752 34.4684 57.8877 34.8336 57.5862C36.2592 56.3869 37.5979 55.0973 38.9162 53.7832C39.165 53.5356 39.4149 53.2891 39.6648 53.0426C40.522 52.1925 41.3253 51.3313 42.0783 50.3871C42.4077 49.9773 42.758 49.6 43.121 49.2196C43.9254 48.3598 44.6373 47.4449 45.3398 46.5018C45.4657 46.3348 45.5916 46.1679 45.7175 46.001C47.1708 44.0618 48.526 42.0507 49.7427 39.9553C49.852 39.7673 49.9619 39.5797 50.0726 39.3924C52.0581 36.0227 53.4786 32.4084 54.3223 28.5961C54.346 28.4949 54.3698 28.3938 54.3943 28.2895C55.7475 22.372 54.4391 15.8555 51.2747 10.7348C48.0047 5.80912 43.1776 2.136 37.3555 0.742842C36.7502 0.628701 36.1422 0.536573 35.5314 0.45689C35.0012 0.385816 34.6709 0.332763 34.2188 0.0322996Z" fill="#E7343F"/>
<path d="M25.0938 54.6016C25.5853 54.8147 25.9241 55.0995 26.3146 55.4631C26.8083 55.9143 27.3083 56.3493 27.8295 56.7687C28.4742 57.2886 29.1027 57.8241 29.7275 58.3674C30.3381 58.8981 30.9513 59.4225 31.5811 59.9306C32.4834 60.6594 33.3557 61.4217 34.2316 62.1817C35.2357 63.0514 36.2419 63.9182 37.2753 64.7534C37.9955 65.3364 38.6961 65.94 39.3958 66.5472C40.0489 67.1138 40.7071 67.6738 41.3692 68.23C41.9413 68.7108 42.5093 69.1962 43.0764 69.6828C43.8021 70.3048 44.5372 70.9137 45.2797 71.5158C45.7349 71.8861 46.1838 72.2602 46.623 72.6493C46.623 72.6962 46.623 72.7431 46.623 72.7914C37.0717 72.7914 27.5204 72.7914 17.6797 72.7914C17.9403 71.9257 18.1886 71.1189 18.5418 70.2973C18.6033 70.1517 18.6033 70.1517 18.6661 70.003C18.7541 69.7946 18.8425 69.5863 18.9311 69.3781C19.1734 68.8089 19.413 68.2385 19.6529 67.6683C19.7025 67.5506 19.7521 67.4329 19.8032 67.3117C20.3083 66.1106 20.7995 64.9041 21.2887 63.6965C21.4637 63.265 21.6388 62.8335 21.8139 62.402C21.8586 62.2919 21.9032 62.1818 21.9493 62.0684C22.5032 60.7038 23.0599 59.3403 23.618 57.9773C23.7341 57.6935 23.8501 57.4097 23.966 57.1258C24.1273 56.7306 24.2891 56.3355 24.451 55.9405C24.4996 55.8212 24.5483 55.7018 24.5983 55.5789C24.9349 54.7599 24.9349 54.7599 25.0938 54.6016Z" fill="#4CE166"/>
<path d="M46.625 61.5645C52.3181 61.5645 58.0113 61.5645 63.877 61.5645C64.2361 62.2804 64.5678 62.9636 64.8694 63.6994C64.9076 63.792 64.9457 63.8847 64.985 63.9801C65.1091 64.282 65.2327 64.5841 65.3562 64.8862C65.4876 65.2067 65.6192 65.5271 65.7507 65.8475C65.8417 66.0691 65.9326 66.2907 66.0235 66.5124C66.352 67.313 66.6843 68.1119 67.0181 68.9102C67.1562 69.2412 67.2942 69.5722 67.4321 69.9032C67.5213 70.1166 67.6106 70.33 67.7003 70.5432C67.8252 70.8405 67.9492 71.1382 68.073 71.436C68.1439 71.6054 68.2148 71.7749 68.2879 71.9494C68.4395 72.3647 68.4395 72.3647 68.4395 72.791C67.2768 72.8241 66.1144 72.8493 64.9515 72.8646C64.4113 72.872 63.8714 72.882 63.3314 72.8982C62.809 72.9138 62.287 72.9222 61.7644 72.9258C61.5663 72.9284 61.3682 72.9335 61.1702 72.9413C60.0195 72.9844 59.3135 72.8985 58.4438 72.1107C58.2102 71.8648 57.9776 71.6179 57.7461 71.3699C57.4941 71.1585 57.239 70.9507 56.9797 70.7482C56.2959 70.1987 55.6544 69.6149 55.0138 69.0169C54.5365 68.5739 54.049 68.1532 53.54 67.7462C52.8612 67.2033 52.2265 66.625 51.5918 66.0325C51.1146 65.5896 50.6271 65.1689 50.1182 64.7619C49.4283 64.2102 48.7789 63.6243 48.1349 63.0208C47.7646 62.6746 47.3909 62.3399 46.9976 62.0196C46.8746 61.9163 46.7517 61.813 46.625 61.7066C46.625 61.6597 46.625 61.6128 46.625 61.5645Z" fill="#A8EDFB"/>
<path d="M3.99219 61.5645C7.14459 61.5645 10.297 61.5645 13.5449 61.5645C13.2734 62.4667 13.0068 63.3046 12.6365 64.1607C12.5911 64.2675 12.5456 64.3743 12.4988 64.4844C12.3521 64.8288 12.2044 65.1728 12.0568 65.5168C11.9032 65.8769 11.7499 66.237 11.5966 66.5972C11.4934 66.8396 11.3902 67.0819 11.2869 67.3242C10.7253 68.6425 10.1771 69.9661 9.63018 71.2905C9.53257 71.5265 9.53257 71.5265 9.43299 71.7674C9.37658 71.9042 9.32017 72.041 9.26204 72.1819C9.17522 72.3877 9.0826 72.5913 8.98242 72.791C6.01822 72.791 3.05402 72.791 0 72.791C0 70.8327 0 70.8327 0.438873 69.8828C0.48545 69.7751 0.532027 69.6674 0.580016 69.5565C0.728362 69.2152 0.880816 68.8759 1.03369 68.5366C1.12941 68.3193 1.22483 68.1018 1.31996 67.8841C1.41737 67.6615 1.51478 67.4388 1.61514 67.2094C2.43294 65.3386 3.20936 63.4501 3.99219 61.5645Z" fill="#A7EDFB"/>
<path d="M54.0332 45.134C54.3234 45.1411 54.6135 45.1476 54.9037 45.1534C55.612 45.169 56.3195 45.1935 57.0273 45.2228C57.4318 46.0088 57.7934 46.8001 58.1273 47.6181C58.1995 47.7936 58.1995 47.7936 58.2732 47.9727C58.3744 48.219 58.4754 48.4654 58.5762 48.7118C58.728 49.0831 58.8805 49.454 59.0332 49.8249C59.1323 50.0663 59.2313 50.3077 59.3303 50.5491C59.397 50.7113 59.397 50.7113 59.465 50.8767C59.8543 51.8296 60.221 52.7883 60.5918 53.7493C54.9928 53.7493 49.3937 53.7493 43.625 53.7493C44.1656 53.1206 44.7066 52.505 45.2736 51.9019C46.6922 50.3788 48.0422 48.8041 49.3354 47.174C49.404 47.0922 49.4727 47.0105 49.5435 46.9263C49.7714 46.6397 49.7714 46.6397 49.9499 46.2671C50.8587 44.7241 52.4516 45.0665 54.0332 45.134Z" fill="#4CE066"/>
<path d="M11.8929 45.1741C11.9847 45.174 12.0765 45.174 12.1712 45.1739C12.4744 45.1742 12.7775 45.1775 13.0807 45.1808C13.2911 45.1816 13.5014 45.1822 13.7118 45.1827C14.2652 45.1843 14.8186 45.1885 15.372 45.1932C15.9368 45.1976 16.5017 45.1995 17.0665 45.2017C18.1746 45.2062 19.2826 45.2135 20.3906 45.2225C19.766 46.9249 19.0867 48.5997 18.382 50.2707C18.2046 50.6913 18.0282 51.1123 17.8518 51.5333C17.7392 51.8009 17.6266 52.0686 17.514 52.3362C17.4613 52.462 17.4086 52.5878 17.3543 52.7174C17.3056 52.8324 17.257 52.9474 17.2069 53.0659C17.1643 53.1673 17.1216 53.2687 17.0776 53.3731C16.9688 53.6069 16.9688 53.6069 16.8262 53.749C16.5287 53.7624 16.2308 53.7657 15.9331 53.7651C15.7933 53.7651 15.7933 53.7651 15.6507 53.7652C15.3413 53.7651 15.032 53.764 14.7226 53.7629C14.5086 53.7626 14.2946 53.7624 14.0807 53.7623C13.5165 53.7617 12.9523 53.7603 12.3881 53.7587C11.8128 53.7573 11.2375 53.7566 10.6622 53.7559C9.53259 53.7544 8.40302 53.752 7.27344 53.749C7.53539 52.823 7.84186 51.9369 8.22192 51.0528C8.27059 50.938 8.31927 50.8232 8.36942 50.7049C8.52322 50.3426 8.67804 49.9808 8.83289 49.619C8.93608 49.3761 9.03921 49.1333 9.14227 48.8904C9.64195 47.715 9.64195 47.715 9.8475 47.2403C9.94225 47.0208 10.0356 46.8007 10.1278 46.5802C10.1763 46.4667 10.2247 46.3533 10.2746 46.2364C10.3177 46.134 10.3608 46.0316 10.4052 45.9261C10.7818 45.2184 11.0982 45.1696 11.8929 45.1741Z" fill="#4CE166"/>
<path d="M63.875 61.5645C65.5688 61.5645 67.2627 61.5645 69.0078 61.5645C69.1526 61.9065 69.2975 62.2485 69.4467 62.6008C69.4965 62.7185 69.5463 62.8361 69.5977 62.9573C69.8501 63.5536 70.1019 64.1502 70.3528 64.7471C70.4577 64.9965 70.5626 65.2458 70.6675 65.4952C70.72 65.6199 70.7724 65.7445 70.8264 65.8729C71.1114 66.5487 71.4002 67.2226 71.6955 67.894C71.8185 68.1739 71.9402 68.4543 72.0614 68.735C72.2076 69.0724 72.356 69.4089 72.5072 69.7441C72.5728 69.897 72.6384 70.05 72.7059 70.2075C72.7631 70.3369 72.8203 70.4662 72.8791 70.5995C73 71.0857 73 71.0857 73 72.791C71.4944 72.791 69.9888 72.791 68.4375 72.791C68.2431 72.3107 68.2431 72.3107 68.0449 71.8207C67.864 71.3743 67.6829 70.928 67.5018 70.4818C67.4545 70.3652 67.4073 70.2487 67.3585 70.1286C66.5326 68.0946 65.6908 66.0675 64.8374 64.0448C64.794 63.9417 64.7506 63.8385 64.7059 63.7322C64.6255 63.5412 64.5448 63.3502 64.4639 63.1594C64.242 62.6314 64.0574 62.1098 63.875 61.5645Z" fill="#7EE4F1"/>
<path d="M57.0312 45.2226C57.7112 45.2085 58.391 45.1982 59.0711 45.1914C59.3023 45.1885 59.5335 45.1846 59.7647 45.1797C60.0974 45.1728 60.43 45.1696 60.7628 45.1671C60.9174 45.1627 60.9174 45.1627 61.0752 45.1582C61.5452 45.158 61.8246 45.1836 62.2104 45.4609C62.4732 45.8242 62.6499 46.169 62.824 46.5821C62.8915 46.7403 62.9589 46.8985 63.0283 47.0615C63.0989 47.2314 63.1696 47.4012 63.2423 47.5763C63.3166 47.7527 63.391 47.9291 63.4655 48.1055C63.6595 48.5661 63.8515 49.0276 64.0432 49.4891C64.1981 49.8612 64.3547 50.2325 64.5112 50.6039C64.6954 51.0419 64.8777 51.4807 65.0602 51.9195C65.1295 52.0844 65.1988 52.2494 65.2702 52.4194C65.3639 52.6473 65.3639 52.6473 65.4595 52.8798C65.5151 53.0137 65.5706 53.1477 65.6279 53.2857C65.7285 53.607 65.7285 53.607 65.5859 53.8912C63.1158 53.8209 63.1158 53.8209 60.5957 53.7491C59.954 52.4699 59.954 52.4699 59.7165 51.8966C59.6632 51.7686 59.6099 51.6406 59.5551 51.5086C59.4996 51.3742 59.4442 51.2398 59.3871 51.1012C59.3285 50.9598 59.2698 50.8183 59.2094 50.6726C59.0863 50.3753 58.9634 50.0779 58.8406 49.7804C58.6532 49.3262 58.4649 48.8723 58.2766 48.4184C58.1566 48.1284 58.0367 47.8385 57.9168 47.5485C57.8608 47.4135 57.8048 47.2785 57.7471 47.1394C57.4863 46.5062 57.2367 45.8763 57.0312 45.2226Z" fill="#45C96B"/>
<path d="M60.5938 53.7485C61.2992 53.745 62.0047 53.7424 62.7101 53.7407C62.9502 53.74 63.1903 53.739 63.4304 53.7378C63.7751 53.7361 64.1198 53.7353 64.4645 53.7346C64.5722 53.7339 64.6799 53.7332 64.7908 53.7324C65.5515 53.7323 65.5515 53.7323 65.8691 53.8906C66.0481 54.2772 66.2125 54.662 66.3709 55.0569C66.4438 55.2351 66.4438 55.2351 66.518 55.4168C66.674 55.7989 66.8285 56.1814 66.983 56.564C67.0855 56.816 67.1881 57.0679 67.2907 57.3198C67.4405 57.6874 67.5902 58.055 67.7391 58.4229C68.0652 59.2281 68.4008 60.0282 68.7484 60.8244C68.8633 61.1382 68.8633 61.1382 68.8633 61.5645C67.1695 61.5645 65.4756 61.5645 63.7305 61.5645C63.5877 61.213 63.4449 60.8614 63.2977 60.4992C63.1557 60.1497 63.0136 59.8002 62.8716 59.4507C62.7746 59.2122 62.6777 58.9737 62.5808 58.7352C62.4397 58.3876 62.2984 58.0401 62.1571 57.6926C62.1105 57.5779 62.0639 57.4633 62.0159 57.3452C61.7786 56.7622 61.5398 56.1799 61.2984 55.5986C61.2519 55.4867 61.2054 55.3747 61.1575 55.2593C61.0689 55.0464 60.9801 54.8335 60.8911 54.6207C60.5938 53.9061 60.5938 53.9061 60.5938 53.7485Z" fill="#FCBC29"/>
</svg>
